<?xml version="1.0" encoding="utf-8"?>
<!-- Generator: Adobe Illustrator 24.0.2, SVG Export Plug-In . SVG Version: 6.00 Build 0)  -->
<svg version="1.1" id="레이어_2_1_" xmlns="http://www.w3.org/2000/svg" xmlns:xlink="http://www.w3.org/1999/xlink" x="0px"
	 y="0px" viewBox="0 0 1013.4 903.5" style="enable-background:new 0 0 1013.4 903.5;" xml:space="preserve">
<style type="text/css">
	.st0{fill:#565661;}
	.st1{fill:#DFE6F5;}
	.st2{fill:none;stroke:#565661;stroke-miterlimit:10;}
	.st3{fill:url(#SVGID_1_);}
	.st4{fill:url(#SVGID_2_);}
	.st5{opacity:0.2;}
	.st6{fill:#F2F2F2;}
	.st7{opacity:0.3;fill:#6C63FF;enable-background:new    ;}
	.st8{fill:#BFBFBF;}
	.st9{fill:none;stroke:#C6C6C6;stroke-width:0.1;stroke-miterlimit:10;}
	.st10{fill:#6C63FF;}
	.st11{fill:none;stroke:#6C63FF;stroke-miterlimit:10;}
	.st12{fill:#D0CDE1;}
	.st13{fill:#3F3D56;}
	.st14{fill:#575A89;}
	.st15{fill:#FCFCFC;}
	.st16{opacity:0.1;fill:#F5F6FA;enable-background:new    ;}
	.st17{opacity:0.1;enable-background:new    ;}
	.st18{fill:#BCBEC9;}
	.st19{fill:#EFEFF0;}
	.st20{fill:url(#SVGID_3_);}
	.st21{fill:#A26565;}
	.st22{fill:#454B69;}
	.st23{opacity:0.05;enable-background:new    ;}
	.st24{fill:#FFFFFF;}
	.st25{fill:#F5F6FA;}
	.st26{opacity:0.1;}
	.st27{fill:#D1D9EC;}
	.st28{fill:#4C4C56;}
	.st29{fill:#535461;}
	.st30{fill:#9D9CB5;}
</style>
<g>
	<rect x="293.51" y="149.46" class="st0" width="428.62" height="201.89"/>
	<rect x="303.41" y="164.31" class="st1" width="410.37" height="172.19"/>
	<circle class="st0" cx="507.77" cy="126.67" r="5.77"/>
	<polyline class="st2" points="470.96,155.03 507.77,126.67 544.99,155.03 	"/>
	
		<linearGradient id="SVGID_1_" gradientUnits="userSpaceOnUse" x1="548.638" y1="-524.1819" x2="550.0403" y2="-524.1819" gradientTransform="matrix(1 0 0 1 -34.96 755.4598)">
		<stop  offset="0" style="stop-color:#808080;stop-opacity:0.25"/>
		<stop  offset="0.54" style="stop-color:#808080;stop-opacity:0.12"/>
		<stop  offset="1" style="stop-color:#808080;stop-opacity:0.1"/>
	</linearGradient>
	<path class="st3" d="M513.65,231.12l0.41,0.31l0.93-0.1L513.65,231.12z"/>
	
		<linearGradient id="SVGID_2_" gradientUnits="userSpaceOnUse" x1="550.0403" y1="-523.6656" x2="557.9899" y2="-523.6656" gradientTransform="matrix(1 0 0 1 -34.96 755.4598)">
		<stop  offset="0" style="stop-color:#808080;stop-opacity:0.25"/>
		<stop  offset="0.54" style="stop-color:#808080;stop-opacity:0.12"/>
		<stop  offset="1" style="stop-color:#808080;stop-opacity:0.1"/>
	</linearGradient>
	<path class="st4" d="M515.09,231.33l7.94,1.03C520.56,231.43,517.87,231.02,515.09,231.33z"/>
	<g class="st5">
		<rect x="375.07" y="224.83" class="st6" width="3.61" height="0.1"/>
		<path class="st6" d="M687.59,225.04h-7.01v-0.1h7.01V225.04z M673.47,225.04h-7.01v-0.1h7.01V225.04z M659.44,225.04h-7.01v-0.1
			h7.01V225.04z M645.42,225.04h-7.01v-0.1h7.01V225.04z M631.4,225.04h-7.01v-0.1h7.01V225.04z M617.37,225.04h-7.01v-0.1h7.01
			V225.04z M603.35,225.04h-7.01v-0.1h7.01V225.04z M589.23,225.04h-7.01v-0.1h7.01V225.04z M575.2,225.04h-7.01v-0.1h7.01V225.04z
			 M561.18,225.04h-7.01v-0.1h7.01V225.04z M547.16,225.04h-7.01v-0.1h7.01V225.04z M533.13,225.04h-7.01v-0.1h7.01V225.04z
			 M519.11,225.04h-7.01v-0.1h7.01V225.04z M505.09,225.04h-7.01v-0.1h7.01V225.04z M490.96,225.04h-7.01v-0.1h7.01V225.04z
			 M476.94,225.04h-7.01v-0.1h7.01V225.04z M462.92,225.04h-7.01v-0.1h7.01V225.04z M448.89,225.04h-7.01v-0.1h7.01V225.04z
			 M434.87,225.04h-7.01v-0.1h7.01V225.04z M420.85,225.04h-7.01v-0.1h7.01V225.04z M406.72,225.04h-7.01v-0.1h7.01V225.04z
			 M392.7,225.04h-7.01v-0.1h7.01V225.04z"/>
		<rect x="694.6" y="224.83" class="st6" width="3.61" height="0.1"/>
		<rect x="375.07" y="224.83" class="st6" width="3.61" height="0.1"/>
		<path class="st6" d="M687.59,225.04h-7.01v-0.1h7.01V225.04z M673.47,225.04h-7.01v-0.1h7.01V225.04z M659.44,225.04h-7.01v-0.1
			h7.01V225.04z M645.42,225.04h-7.01v-0.1h7.01V225.04z M631.4,225.04h-7.01v-0.1h7.01V225.04z M617.37,225.04h-7.01v-0.1h7.01
			V225.04z M603.35,225.04h-7.01v-0.1h7.01V225.04z M589.23,225.04h-7.01v-0.1h7.01V225.04z M575.2,225.04h-7.01v-0.1h7.01V225.04z
			 M561.18,225.04h-7.01v-0.1h7.01V225.04z M547.16,225.04h-7.01v-0.1h7.01V225.04z M533.13,225.04h-7.01v-0.1h7.01V225.04z
			 M519.11,225.04h-7.01v-0.1h7.01V225.04z M505.09,225.04h-7.01v-0.1h7.01V225.04z M490.96,225.04h-7.01v-0.1h7.01V225.04z
			 M476.94,225.04h-7.01v-0.1h7.01V225.04z M462.92,225.04h-7.01v-0.1h7.01V225.04z M448.89,225.04h-7.01v-0.1h7.01V225.04z
			 M434.87,225.04h-7.01v-0.1h7.01V225.04z M420.85,225.04h-7.01v-0.1h7.01V225.04z M406.72,225.04h-7.01v-0.1h7.01V225.04z
			 M392.7,225.04h-7.01v-0.1h7.01V225.04z"/>
		<rect x="694.6" y="224.83" class="st6" width="3.61" height="0.1"/>
	</g>
	<g>
		<rect x="365.58" y="222.05" class="st7" width="12.58" height="3.82"/>
		<rect x="365.69" y="248.86" class="st7" width="12.58" height="3.82"/>
		<rect x="365.89" y="275.77" class="st7" width="12.58" height="3.82"/>
		<rect x="366" y="302.58" class="st7" width="12.58" height="3.82"/>
		<rect x="366" y="324.64" class="st7" width="12.58" height="3.82"/>
		<rect x="365.58" y="195.24" class="st7" width="12.58" height="3.82"/>
	</g>
	<g>
		<rect x="690.58" y="222.05" class="st7" width="12.58" height="3.82"/>
		<rect x="690.68" y="248.86" class="st7" width="12.58" height="3.82"/>
		<rect x="690.79" y="275.77" class="st7" width="12.58" height="3.82"/>
		<rect x="690.89" y="302.58" class="st7" width="12.58" height="3.82"/>
		<rect x="690.89" y="324.64" class="st7" width="12.58" height="3.82"/>
		<rect x="690.58" y="195.24" class="st7" width="12.58" height="3.82"/>
	</g>
	<g class="st5">
		<rect x="375.07" y="198.13" class="st6" width="3.61" height="0.1"/>
		<path class="st6" d="M687.59,198.23h-7.01v-0.1h7.01V198.23z M673.47,198.23h-7.01v-0.1h7.01V198.23z M659.44,198.23h-7.01v-0.1
			h7.01V198.23z M645.42,198.23h-7.01v-0.1h7.01V198.23z M631.4,198.23h-7.01v-0.1h7.01V198.23z M617.37,198.23h-7.01v-0.1h7.01
			V198.23z M603.35,198.23h-7.01v-0.1h7.01V198.23z M589.23,198.23h-7.01v-0.1h7.01V198.23z M575.2,198.23h-7.01v-0.1h7.01V198.23z
			 M561.18,198.23h-7.01v-0.1h7.01V198.23z M547.16,198.23h-7.01v-0.1h7.01V198.23z M533.13,198.23h-7.01v-0.1h7.01V198.23z
			 M519.11,198.23h-7.01v-0.1h7.01V198.23z M505.09,198.23h-7.01v-0.1h7.01V198.23z M490.96,198.23h-7.01v-0.1h7.01V198.23z
			 M476.94,198.23h-7.01v-0.1h7.01V198.23z M462.92,198.23h-7.01v-0.1h7.01V198.23z M448.89,198.23h-7.01v-0.1h7.01V198.23z
			 M434.87,198.23h-7.01v-0.1h7.01V198.23z M420.85,198.23h-7.01v-0.1h7.01V198.23z M406.72,198.23h-7.01v-0.1h7.01V198.23z
			 M392.7,198.23h-7.01v-0.1h7.01V198.23z"/>
		<rect x="694.6" y="198.13" class="st6" width="3.61" height="0.1"/>
	</g>
	<g class="st5">
		<rect x="375.07" y="251.64" class="st6" width="3.61" height="0.1"/>
		<path class="st6" d="M687.59,251.74h-7.01v-0.1h7.01V251.74z M673.47,251.74h-7.01v-0.1h7.01V251.74z M659.44,251.74h-7.01v-0.1
			h7.01V251.74z M645.42,251.74h-7.01v-0.1h7.01V251.74z M631.4,251.74h-7.01v-0.1h7.01V251.74z M617.37,251.74h-7.01v-0.1h7.01
			V251.74z M603.35,251.74h-7.01v-0.1h7.01V251.74z M589.23,251.74h-7.01v-0.1h7.01V251.74z M575.2,251.74h-7.01v-0.1h7.01V251.74z
			 M561.18,251.74h-7.01v-0.1h7.01V251.74z M547.16,251.74h-7.01v-0.1h7.01V251.74z M533.13,251.74h-7.01v-0.1h7.01V251.74z
			 M519.11,251.74h-7.01v-0.1h7.01V251.74z M505.09,251.74h-7.01v-0.1h7.01V251.74z M490.96,251.74h-7.01v-0.1h7.01V251.74z
			 M476.94,251.74h-7.01v-0.1h7.01V251.74z M462.92,251.74h-7.01v-0.1h7.01V251.74z M448.89,251.74h-7.01v-0.1h7.01V251.74z
			 M434.87,251.74h-7.01v-0.1h7.01V251.74z M420.85,251.74h-7.01v-0.1h7.01V251.74z M406.72,251.74h-7.01v-0.1h7.01V251.74z
			 M392.7,251.74h-7.01v-0.1h7.01V251.74z"/>
		<rect x="694.6" y="251.64" class="st6" width="3.61" height="0.1"/>
		<rect x="375.07" y="251.64" class="st6" width="3.61" height="0.1"/>
		<path class="st6" d="M687.59,251.74h-7.01v-0.1h7.01V251.74z M673.47,251.74h-7.01v-0.1h7.01V251.74z M659.44,251.74h-7.01v-0.1
			h7.01V251.74z M645.42,251.74h-7.01v-0.1h7.01V251.74z M631.4,251.74h-7.01v-0.1h7.01V251.74z M617.37,251.74h-7.01v-0.1h7.01
			V251.74z M603.35,251.74h-7.01v-0.1h7.01V251.74z M589.23,251.74h-7.01v-0.1h7.01V251.74z M575.2,251.74h-7.01v-0.1h7.01V251.74z
			 M561.18,251.74h-7.01v-0.1h7.01V251.74z M547.16,251.74h-7.01v-0.1h7.01V251.74z M533.13,251.74h-7.01v-0.1h7.01V251.74z
			 M519.11,251.74h-7.01v-0.1h7.01V251.74z M505.09,251.74h-7.01v-0.1h7.01V251.74z M490.96,251.74h-7.01v-0.1h7.01V251.74z
			 M476.94,251.74h-7.01v-0.1h7.01V251.74z M462.92,251.74h-7.01v-0.1h7.01V251.74z M448.89,251.74h-7.01v-0.1h7.01V251.74z
			 M434.87,251.74h-7.01v-0.1h7.01V251.74z M420.85,251.74h-7.01v-0.1h7.01V251.74z M406.72,251.74h-7.01v-0.1h7.01V251.74z
			 M392.7,251.74h-7.01v-0.1h7.01V251.74z"/>
		<rect x="694.6" y="251.64" class="st6" width="3.61" height="0.1"/>
	</g>
	<g class="st5">
		<rect x="375.07" y="278.35" class="st6" width="3.61" height="0.1"/>
		<path class="st6" d="M687.59,278.55h-7.01v-0.21h7.01V278.55z M673.47,278.55h-7.01v-0.21h7.01V278.55z M659.44,278.55h-7.01
			v-0.21h7.01V278.55z M645.42,278.55h-7.01v-0.21h7.01V278.55z M631.4,278.55h-7.01v-0.21h7.01V278.55z M617.37,278.55h-7.01v-0.21
			h7.01V278.55z M603.35,278.55h-7.01v-0.21h7.01V278.55z M589.23,278.55h-7.01v-0.21h7.01V278.55z M575.2,278.55h-7.01v-0.21h7.01
			V278.55z M561.18,278.55h-7.01v-0.21h7.01V278.55z M547.16,278.55h-7.01v-0.21h7.01V278.55z M533.13,278.55h-7.01v-0.21h7.01
			V278.55z M519.11,278.55h-7.01v-0.21h7.01V278.55z M505.09,278.55h-7.01v-0.21h7.01V278.55z M490.96,278.55h-7.01v-0.21h7.01
			V278.55z M476.94,278.55h-7.01v-0.21h7.01V278.55z M462.92,278.55h-7.01v-0.21h7.01V278.55z M448.89,278.55h-7.01v-0.21h7.01
			V278.55z M434.87,278.55h-7.01v-0.21h7.01V278.55z M420.85,278.55h-7.01v-0.21h7.01V278.55z M406.72,278.55h-7.01v-0.21h7.01
			V278.55z M392.7,278.55h-7.01v-0.21h7.01V278.55z"/>
		<rect x="694.6" y="278.35" class="st6" width="3.61" height="0.1"/>
		<rect x="375.07" y="278.35" class="st6" width="3.61" height="0.1"/>
		<path class="st6" d="M687.59,278.55h-7.01v-0.21h7.01V278.55z M673.47,278.55h-7.01v-0.21h7.01V278.55z M659.44,278.55h-7.01
			v-0.21h7.01V278.55z M645.42,278.55h-7.01v-0.21h7.01V278.55z M631.4,278.55h-7.01v-0.21h7.01V278.55z M617.37,278.55h-7.01v-0.21
			h7.01V278.55z M603.35,278.55h-7.01v-0.21h7.01V278.55z M589.23,278.55h-7.01v-0.21h7.01V278.55z M575.2,278.55h-7.01v-0.21h7.01
			V278.55z M561.18,278.55h-7.01v-0.21h7.01V278.55z M547.16,278.55h-7.01v-0.21h7.01V278.55z M533.13,278.55h-7.01v-0.21h7.01
			V278.55z M519.11,278.55h-7.01v-0.21h7.01V278.55z M505.09,278.55h-7.01v-0.21h7.01V278.55z M490.96,278.55h-7.01v-0.21h7.01
			V278.55z M476.94,278.55h-7.01v-0.21h7.01V278.55z M462.92,278.55h-7.01v-0.21h7.01V278.55z M448.89,278.55h-7.01v-0.21h7.01
			V278.55z M434.87,278.55h-7.01v-0.21h7.01V278.55z M420.85,278.55h-7.01v-0.21h7.01V278.55z M406.72,278.55h-7.01v-0.21h7.01
			V278.55z M392.7,278.55h-7.01v-0.21h7.01V278.55z"/>
		<rect x="694.6" y="278.35" class="st6" width="3.61" height="0.1"/>
	</g>
	<g class="st5">
		<rect x="375.07" y="305.05" class="st8" width="3.61" height="0.1"/>
		<path class="st8" d="M687.59,305.26h-7.01v-0.1h7.01V305.26z M673.47,305.26h-7.01v-0.1h7.01V305.26z M659.44,305.26h-7.01v-0.1
			h7.01V305.26z M645.42,305.26h-7.01v-0.1h7.01V305.26z M631.4,305.26h-7.01v-0.1h7.01V305.26z M617.37,305.26h-7.01v-0.1h7.01
			V305.26z M603.35,305.26h-7.01v-0.1h7.01V305.26z M589.23,305.26h-7.01v-0.1h7.01V305.26z M575.2,305.26h-7.01v-0.1h7.01V305.26z
			 M561.18,305.26h-7.01v-0.1h7.01V305.26z M547.16,305.26h-7.01v-0.1h7.01V305.26z M533.13,305.26h-7.01v-0.1h7.01V305.26z
			 M519.11,305.26h-7.01v-0.1h7.01V305.26z M505.09,305.26h-7.01v-0.1h7.01V305.26z M490.96,305.26h-7.01v-0.1h7.01V305.26z
			 M476.94,305.26h-7.01v-0.1h7.01V305.26z M462.92,305.26h-7.01v-0.1h7.01V305.26z M448.89,305.26h-7.01v-0.1h7.01V305.26z
			 M434.87,305.26h-7.01v-0.1h7.01V305.26z M420.85,305.26h-7.01v-0.1h7.01V305.26z M406.72,305.26h-7.01v-0.1h7.01V305.26z
			 M392.7,305.26h-7.01v-0.1h7.01V305.26z"/>
		<rect x="694.6" y="305.05" class="st8" width="3.61" height="0.1"/>
		<rect x="375.07" y="305.05" class="st8" width="3.61" height="0.1"/>
		<path class="st8" d="M687.59,305.26h-7.01v-0.1h7.01V305.26z M673.47,305.26h-7.01v-0.1h7.01V305.26z M659.44,305.26h-7.01v-0.1
			h7.01V305.26z M645.42,305.26h-7.01v-0.1h7.01V305.26z M631.4,305.26h-7.01v-0.1h7.01V305.26z M617.37,305.26h-7.01v-0.1h7.01
			V305.26z M603.35,305.26h-7.01v-0.1h7.01V305.26z M589.23,305.26h-7.01v-0.1h7.01V305.26z M575.2,305.26h-7.01v-0.1h7.01V305.26z
			 M561.18,305.26h-7.01v-0.1h7.01V305.26z M547.16,305.26h-7.01v-0.1h7.01V305.26z M533.13,305.26h-7.01v-0.1h7.01V305.26z
			 M519.11,305.26h-7.01v-0.1h7.01V305.26z M505.09,305.26h-7.01v-0.1h7.01V305.26z M490.96,305.26h-7.01v-0.1h7.01V305.26z
			 M476.94,305.26h-7.01v-0.1h7.01V305.26z M462.92,305.26h-7.01v-0.1h7.01V305.26z M448.89,305.26h-7.01v-0.1h7.01V305.26z
			 M434.87,305.26h-7.01v-0.1h7.01V305.26z M420.85,305.26h-7.01v-0.1h7.01V305.26z M406.72,305.26h-7.01v-0.1h7.01V305.26z
			 M392.7,305.26h-7.01v-0.1h7.01V305.26z"/>
		<rect x="694.6" y="305.05" class="st8" width="3.61" height="0.1"/>
	</g>
	<line class="st9" x1="416.11" y1="198.33" x2="416.11" y2="305.46"/>
	<line class="st9" x1="459.62" y1="198.33" x2="459.62" y2="305.46"/>
	<line class="st9" x1="503.03" y1="198.33" x2="503.03" y2="305.46"/>
	<line class="st9" x1="546.44" y1="198.33" x2="546.44" y2="305.46"/>
	<line class="st9" x1="589.95" y1="198.33" x2="589.95" y2="305.46"/>
	<line class="st9" x1="633.36" y1="198.33" x2="633.36" y2="305.46"/>
	<line class="st9" x1="676.76" y1="198.33" x2="676.76" y2="305.46"/>
	<path class="st7" d="M686.15,198.64l-4.95,6.19c-0.1,0.1-0.21,0.31-0.21,0.41l-3.09,7.63c-0.21,0.62-0.82,1.03-1.34,0.93l-1.03-0.1
		c-0.62,0-1.13-0.52-1.24-1.24l-0.93-3.92c-0.21-0.93-1.03-1.44-1.75-1.13c-0.41,0.1-0.82,0.52-0.93,1.03l-1.65,5.57
		c-0.21,0.72-0.72,1.13-1.34,1.13h-6.08c-0.72,0-1.24-0.62-1.44-1.44l-1.75-12.99c-0.1-0.93-0.82-1.55-1.65-1.44
		c-0.41,0.1-0.82,0.41-1.03,0.93l-8.87,20.93c-0.31,0.82-1.24,1.13-1.86,0.72c-0.1,0-0.1-0.1-0.21-0.1l-5.26-4.43
		c-0.62-0.52-1.44-0.41-1.86,0.31l-1.96,2.78c-0.1,0.1-0.1,0.21-0.21,0.31l-5.36,11.03c-0.31,0.62-0.82,0.93-1.34,0.82l-3.2-0.41
		c-0.21,0-0.41,0-0.62,0.1l-2.89,1.34c-0.72,0.31-1.44-0.1-1.75-0.93l-0.62-1.75c-0.21-0.62-0.82-1.03-1.34-1.03l-3.3,0.21
		c-0.41,0-0.82,0.31-1.03,0.62l-0.93,1.44c-0.52,0.72-1.34,0.93-1.96,0.31c-0.21-0.21-0.41-0.52-0.52-0.82l-1.24-4.02
		c-0.31-0.93-1.03-1.34-1.75-1.03c-0.1,0.1-0.31,0.1-0.41,0.21l-5.67,5.05l-6.29,6.08c-0.41,0.41-1.03,0.52-1.55,0.21l-4.85-2.99
		c-0.31-0.21-0.52-0.21-0.82-0.21l-9.8,1.65c-0.62,0.1-1.03,0.62-1.24,1.34l-1.75,9.07c-0.21,0.93-0.93,1.44-1.65,1.24
		c-0.21-0.1-0.41-0.21-0.62-0.41l0,0c-0.62-0.62-1.44-0.52-1.96,0.21c-0.1,0.1-0.1,0.21-0.21,0.31l-1.34,3.2
		c-0.21,0.52-0.62,0.82-1.03,0.93l-2.99,0.62c-0.21,0-0.41,0.1-0.52,0.31l-4.74,3.82c-0.21,0.21-0.52,0.31-0.82,0.31h-2.27
		c-0.52,0-1.03-0.41-1.34-1.03l-0.62-1.75c-0.31-0.82-1.13-1.24-1.86-0.82l0,0l-5.16,2.89c-0.41,0.21-0.93,0.21-1.34-0.1l-2.37-1.75
		c-0.21-0.21-0.52-0.21-0.72-0.21h-5.26c-0.31,0-0.52,0.1-0.82,0.31l-5.26,4.12c-0.41,0.31-0.93,0.41-1.34,0.1l-2.37-1.34
		c-0.62-0.31-1.24-0.1-1.65,0.41l-1.13,1.55c-0.52,0.72-1.44,0.82-1.96,0.21c-0.1-0.1-0.21-0.31-0.31-0.41l-0.31-0.72
		c-0.41-0.82-1.24-1.13-1.96-0.62l0,0l-4.12,2.89c-0.41,0.31-0.93,0.31-1.44,0l-1.75-1.13c-0.41-0.31-0.82-0.31-1.24-0.1l-1.65,0.93
		c-0.72,0.41-1.55,0-1.86-0.82c0-0.1,0-0.1-0.1-0.21l-1.03-3.71c-0.21-0.72-0.72-1.13-1.34-1.13h-1.55c-0.21,0-0.52-0.1-0.72-0.21
		l-5.88-3.82c-0.52-0.31-1.03-0.31-1.55,0.1l-4.33,3.82c-0.21,0.21-0.52,0.31-0.82,0.31h-5.36c-0.31,0-0.52,0.1-0.82,0.31
		l-1.03,0.82c-0.62,0.52-1.55,0.31-1.96-0.41c0-0.1-0.1-0.1-0.1-0.21l-0.21-0.62c-0.21-0.62-0.72-0.93-1.24-0.93h-2.68
		c-0.41,0-0.82,0.21-1.13,0.62l-1.65,2.58c-0.52,0.72-1.34,0.82-1.96,0.31c-0.1-0.1-0.21-0.31-0.31-0.41l-0.52-0.93
		c-0.41-0.82-1.24-1.03-1.96-0.52l-1.44,1.03c-0.52,0.31-1.13,0.31-1.55-0.1l-2.37-17.73c-0.1-0.1-3.4,12.79-3.51,12.68l-4.43-2.06
		c-0.72-0.31-1.55,0.1-1.75,0.93l-3.09,8.87c0,0.1-0.1,0.21-0.1,0.41l-1.03,8.04c0,0.31-0.21,0.62-0.41,0.93l-2.06,2.68
		c-0.41,0.52-1.13,0.72-1.75,0.31l-3.61-2.37c-0.72-0.41-1.55-0.21-1.96,0.62c0,0.1-0.1,0.21-0.1,0.31l-2.27,8.04
		c-0.1,0.21-0.1,0.41-0.1,0.52v5.05c0,0.72-0.31,1.24-0.82,1.55l-3.71,1.96c-0.41,0.21-0.93,0.21-1.24-0.1l-2.78-1.96
		c-0.31-0.21-0.62-0.31-0.93-0.21l-4.85,0.82c-0.62,0.1-1.13-0.21-1.44-0.82l-0.82-1.65c-0.21-0.41-0.41-0.62-0.82-0.72l-2.17-0.82
		c-0.52-0.21-1.13,0-1.44,0.52l-3.09,4.12c-0.21,0.31-0.62,0.52-0.93,0.52l-4.54,0.41c-0.21,0-0.41,0.1-0.62,0.21l-7.84,5.46
		c-0.52,0.31-1.13,0.31-1.55-0.1l-2.27-2.17c-0.21-0.21-0.52-0.41-0.93-0.41h-8.45c-0.41,0-0.82-0.21-1.13-0.62l-2.17-3.2
		c-0.52-0.72-1.34-0.82-1.96-0.31c-0.1,0.1-0.1,0.1-0.21,0.21l-2.58,3.4c-0.21,0.31-0.41,0.72-0.41,1.13v42.48
		c0,0.93,0.62,1.65,1.44,1.65h306.03c0.82,0,1.44-0.72,1.44-1.65l0,0l-0.1-134.35c0-0.93-0.62-1.75-1.44-1.75
		C686.87,198.13,686.46,198.23,686.15,198.64z"/>
	<path class="st7" d="M685.94,244.73l-4.64,3.09c-0.21,0.1-0.31,0.21-0.41,0.41l-2.89,3.82c-0.31,0.41-0.93,0.72-1.44,0.72h-0.93
		c-0.62,0-1.24-0.41-1.55-1.03l-0.62-1.24c-0.41-0.82-1.44-1.24-2.27-0.93c-0.31,0.21-0.62,0.41-0.82,0.82l-1.24,2.27
		c-0.31,0.62-0.93,0.93-1.55,0.93h-5.88c-0.82,0-1.55-0.52-1.65-1.34l-1.44-5.67c-0.21-0.93-1.13-1.55-2.06-1.24
		c-0.41,0.1-0.72,0.31-0.93,0.62l-8.56,10.72c-0.52,0.62-1.34,0.82-2.06,0.52l-5.46-2.47c-0.62-0.31-1.24-0.21-1.75,0.21l-1.96,1.44
		c-0.1,0.1-0.21,0.1-0.21,0.21l-5.16,5.67c-0.31,0.41-0.82,0.62-1.44,0.62l-3.4-0.21c-0.21,0-0.41,0-0.52,0l-2.99,0.82
		c-0.72,0.21-1.44-0.1-1.86-0.72l-0.31-0.52c-0.31-0.52-0.93-0.72-1.44-0.72l-3.4,0.1c-0.41,0-0.72,0.1-1.03,0.41l-0.82,0.72
		c-0.72,0.62-1.86,0.52-2.47-0.21c-0.1-0.1-0.1-0.21-0.21-0.31l-0.93-1.55c-0.41-0.82-1.44-1.13-2.27-0.72l-5.67,2.78l-6.29,3.3
		c-0.41,0.21-0.93,0.21-1.34,0.1l-5.05-1.65c-0.21-0.1-0.52-0.1-0.72-0.1l-9.69,0.82c-0.72,0.1-1.24,0.52-1.44,1.13l-1.44,3.92
		c-0.31,0.93-1.34,1.34-2.27,1.03c-0.1,0-0.21-0.1-0.21-0.1h-0.1c-0.72-0.41-1.65-0.21-2.17,0.41l-1.13,1.44
		c-0.31,0.41-0.72,0.62-1.24,0.62l-3.09,0.31c-0.21,0-0.31,0.1-0.52,0.1l-4.85,2.06c-0.21,0.1-0.41,0.1-0.72,0.1h-2.37
		c-0.62,0-1.13-0.31-1.44-0.72l-0.31-0.52c-0.41-0.62-1.24-0.93-1.96-0.72l-5.36,1.65c-0.41,0.1-0.72,0.1-1.13,0l-2.47-0.93
		c-0.21-0.1-0.41-0.1-0.62-0.1h-5.36c-0.21,0-0.52,0-0.72,0.1l-5.36,2.27c-0.41,0.21-0.82,0.21-1.24,0.1l-2.68-0.82
		c-0.52-0.21-1.13-0.1-1.55,0.31l-1.13,0.82c-0.72,0.52-1.75,0.41-2.37-0.21l-0.21-0.21c-0.52-0.52-1.24-0.72-1.96-0.52l-4.33,1.65
		c-0.41,0.1-0.82,0.1-1.24,0l-1.86-0.72c-0.31-0.1-0.72-0.1-1.03,0l-1.75,0.52c-0.82,0.21-1.65-0.1-2.06-0.93l-0.62-1.34
		c-0.31-0.62-0.93-0.93-1.55-0.93h-1.55c-0.21,0-0.41,0-0.62-0.1l-5.98-2.06c-0.41-0.21-0.93-0.1-1.34,0.1l-4.43,2.06
		c-0.21,0.1-0.52,0.21-0.72,0.21h-5.57c-0.21,0-0.52,0-0.72,0.1l-1.96,10.93c-0.72,0.31-0.72-10.31-1.24-10.93l0,0
		c-0.31-0.41-0.82-0.72-1.34-0.72h-2.78c-0.41,0-0.82,0.1-1.13,0.41l-1.65,1.34c-0.72,0.62-1.75,0.52-2.37-0.1l-0.41-0.41
		c-0.52-0.52-1.24-0.62-1.86-0.41l-1.65,0.62c-0.41,0.21-0.93,0.1-1.34,0l-5.67-2.68c-0.1,0-0.21-0.1-0.31-0.1l-4.43-1.13
		c-0.72-0.21-1.44,0.1-1.86,0.72l-2.78,4.33c-0.1,0.21-0.21,0.31-0.21,0.52l-0.82,3.71c-0.1,0.41-0.31,0.82-0.72,1.03l-1.86,1.24
		c-0.41,0.31-1.03,0.41-1.55,0.21l-3.82-1.34c-0.82-0.31-1.75,0.1-2.17,0.82l-2.06,3.71c-0.1,0.21-0.21,0.52-0.21,0.82v1.65
		c0,0.82-0.52,1.44-1.24,1.65l-3.3,0.93c-0.31,0.1-0.72,0.1-1.03,0l-2.89-1.13c-0.21-0.1-0.52-0.1-0.82-0.1l-5.05,0.41
		c-0.52,0.1-1.03-0.21-1.44-0.52l-0.62-0.62c-0.21-0.31-0.62-0.52-0.93-0.52l-2.27-0.52c-0.52-0.1-0.93,0-1.34,0.31l-2.99,2.17
		c-0.31,0.21-0.62,0.31-0.93,0.31l-4.64,0.21c-0.21,0-0.31,0-0.52,0.1l-8.04,2.99c-0.41,0.21-0.93,0.1-1.44-0.1l-2.37-1.24
		c-0.21-0.1-0.52-0.21-0.82-0.21h-8.66c-0.41,0-0.82-0.1-1.13-0.41l-2.06-1.65c-0.62-0.52-1.44-0.52-2.06-0.1l-2.27,1.55
		c-0.41,0.31-0.72,0.82-0.72,1.44v16.7c0,0.93,0.82,1.75,1.75,1.75h305c0.93,0,1.75-0.82,1.75-1.75l-0.1-65.37
		c0-0.93-0.72-1.75-1.75-1.75C686.56,244.42,686.25,244.53,685.94,244.73z"/>
	<circle class="st10" cx="687.18" cy="236.59" r="4.12"/>
	<path class="st7" d="M686.87,277.73l-5.67,1.86c-0.1,0-0.21,0.1-0.31,0.1l-3.09,2.06c-0.21,0.1-0.52,0.21-0.72,0.21h-1.96
		c-0.41,0-0.72-0.21-0.93-0.41l-1.24-1.34c-0.52-0.52-1.34-0.62-1.86-0.1l0,0l-1.96,1.86c-0.21,0.21-0.62,0.41-0.93,0.41h-6.91
		c-0.52,0-0.93-0.31-1.24-0.72l-1.55-3.2c-0.31-0.62-1.13-0.93-1.75-0.62c0,0-0.1,0-0.1,0.1l-9.8,6.19
		c-0.31,0.21-0.62,0.21-1.03,0.21l-6.7-1.55c-0.21-0.1-0.52,0-0.72,0l-2.47,0.93c-0.1,0-0.1,0-0.21,0.1l-5.46,2.99
		c-0.21,0.1-0.41,0.21-0.72,0.21l-4.02-0.1c-0.1,0-0.1,0-0.21,0l-3.92,0.52c-0.31,0-0.72,0-0.93-0.21l-0.82-0.62
		c-0.21-0.21-0.52-0.31-0.82-0.21l-4.23,0.1c-0.21,0-0.31,0-0.52,0.1l-1.86,0.82c-0.52,0.21-1.03,0.1-1.44-0.21l-1.55-1.34
		c-0.31-0.31-0.72-0.41-1.24-0.31l-6.5,1.55l-6.7,1.75c-0.21,0-0.41,0-0.52,0l-5.67-0.93c-0.1,0-0.21,0-0.31,0l-10.41,0.52
		c-0.41,0-0.82,0.21-1.03,0.52l-1.55,2.17c-0.31,0.41-0.93,0.62-1.44,0.52l-1.65-0.52c-0.41-0.1-0.72,0-1.03,0.21l-1.65,1.03
		c-0.21,0.1-0.41,0.21-0.62,0.21l-3.61,0.21c-0.1,0-0.1,0-0.21,0l-5.16,1.13c-0.1,0-0.21,0-0.31,0h-2.99c-0.31,0-0.52-0.1-0.82-0.21
		l-0.82-0.62c-0.31-0.21-0.62-0.31-0.93-0.21l-6.39,0.93c-0.1,0-0.31,0-0.41,0l-2.99-0.62c-0.1,0-0.21,0-0.21,0h-5.77
		c-0.1,0-0.21,0-0.31,0l-5.88,1.24c-0.21,0-0.31,0-0.52,0l-3.51-0.52c-0.21,0-0.41,0-0.62,0.1l-2.27,0.82
		c-0.41,0.1-0.82,0.1-1.13-0.1l-1.03-0.62c-0.31-0.21-0.62-0.21-0.93-0.21l-5.36,1.03c-0.21,0-0.31,0-0.52,0l-2.58-0.41
		c-0.1,0-0.31,0-0.41,0l-2.89,0.41c-0.41,0.1-0.82-0.1-1.13-0.41l-0.93-0.93c-0.21-0.21-0.62-0.41-0.93-0.41h-2.27
		c-0.1,0-0.1,0-0.21,0l-6.6-1.13c-0.21,0-0.41,0-0.52,0l-4.95,1.24c-0.1,0-0.21,0-0.31,0h-5.98c-0.1,0-0.21,0-0.31,0l-2.06,0.41
		c-0.31,0.1-0.72,0.1-1.03-0.1l-0.52-0.41c-0.21-0.1-0.41-0.21-0.72-0.21h-3.61c-0.21,0-0.31,0-0.52,0.1l-2.58,1.03
		c-0.31,0.1-0.72,0.1-1.13,0l-1.34-0.72c-0.31-0.1-0.52-0.21-0.82-0.1l-2.68,0.52c-0.21,0-0.41,0-0.52,0l-6.19-1.44h-0.1l-5.26-0.62
		c-0.31,0-0.72,0.1-0.93,0.31l-2.99,2.27c-0.21,0.1-0.31,0.31-0.41,0.52l-0.62,1.44c-0.1,0.31-0.41,0.62-0.82,0.72l-2.27,0.82
		c-0.21,0.1-0.41,0.1-0.62,0.1l-5.05-0.93c-0.41-0.1-0.82,0.1-1.13,0.31l-2.06,1.86c-0.31,0.21-0.41,0.62-0.41,0.93l0,0
		c0,0.62-0.52,1.24-1.13,1.34l-3.82,0.52c-0.1,0-0.31,0-0.41,0l-3.4-0.62c-0.1,0-0.21,0-0.31,0l-5.77,0.31c-0.21,0-0.52,0-0.72-0.21
		l-1.03-0.52c-0.21-0.1-0.31-0.1-0.52-0.21l-2.99-0.31c-0.21,0-0.41,0-0.62,0.1l-3.61,1.24c-0.1,0-0.31,0.1-0.41,0.1l-5.05,0.1
		c-0.1,0-0.1,0-0.21,0l-8.56,1.55c-0.21,0-0.41,0-0.52,0l-2.89-0.72c-0.1,0-0.21,0-0.31,0h-9.28c-0.21,0-0.31,0-0.52-0.1l-2.89-1.13
		c-0.31-0.1-0.62-0.1-0.93,0l-2.68,0.93c-0.52,0.21-0.93,0.72-0.93,1.24v0.62c0,0.72,0.62,1.34,1.34,1.34l0,0h305.82
		c0.72,0,1.34-0.62,1.34-1.34l0,0l-0.1-25.16c0-0.72-0.52-1.34-1.24-1.34C687.18,277.73,686.97,277.73,686.87,277.73z"/>
	<circle class="st10" cx="458.07" cy="264.53" r="4.12"/>
	<circle class="st10" cx="658" cy="238.34" r="4.12"/>
	<circle class="st10" cx="554.48" cy="266.28" r="4.12"/>
	<circle class="st10" cx="608.61" cy="251.44" r="4.12"/>
	<path class="st11" d="M689.24,238.44c0-0.93-0.82-1.75-1.75-1.75c-0.31,0-0.72,0.1-0.93,0.31l-4.64,3.09
		c-0.21,0.1-0.31,0.21-0.41,0.41l-2.89,3.82c-0.31,0.41-0.93,0.72-1.44,0.72h-0.93c-0.62,0-1.24-0.41-1.55-1.03l-0.62-1.24
		c-0.41-0.82-1.44-1.24-2.27-0.93c-0.31,0.21-0.62,0.41-0.82,0.82l-1.24,2.27c-0.31,0.62-0.93,0.93-1.55,0.93h-5.88
		c-0.82,0-1.55-0.52-1.65-1.34l-1.44-5.67c-0.21-0.93-1.13-1.55-2.06-1.24c-0.41,0.1-0.72,0.31-0.93,0.62l-8.56,10.72
		c-0.52,0.62-1.34,0.82-2.06,0.52l-5.46-2.47c-0.62-0.31-1.24-0.21-1.75,0.21l-1.96,1.44c-0.1,0.1-0.21,0.1-0.21,0.21l-5.16,5.67
		c-0.31,0.41-0.82,0.62-1.44,0.62l-3.4-0.21c-0.21,0-0.41,0-0.52,0l-2.99,0.82c-0.72,0.21-1.44-0.1-1.86-0.72l-0.31-0.52
		c-0.31-0.52-0.93-0.72-1.44-0.72l-3.4,0.1c-0.41,0-0.72,0.1-1.03,0.41l-0.82,0.72c-0.72,0.62-1.86,0.52-2.47-0.21
		c-0.1-0.1-0.1-0.21-0.21-0.31l-0.93-1.55c-0.41-0.82-1.44-1.13-2.27-0.72l-5.67,2.78l-6.29,3.3c-0.41,0.21-0.93,0.21-1.34,0.1
		l-5.05-1.65c-0.21-0.1-0.52-0.1-0.72-0.1l-9.69,0.82c-0.72,0.1-1.24,0.52-1.44,1.13l-1.44,3.92c-0.31,0.93-1.34,1.34-2.27,1.03
		c-0.1,0-0.21-0.1-0.21-0.1h-0.1c-0.72-0.41-1.65-0.21-2.17,0.41l-1.13,1.44c-0.31,0.41-0.72,0.62-1.24,0.62l-3.09,0.31
		c-0.21,0-0.31,0.1-0.52,0.1l-4.85,2.06c-0.21,0.1-0.41,0.1-0.72,0.1h-2.37c-0.62,0-1.13-0.31-1.44-0.72l-0.31-0.52
		c-0.41-0.62-1.24-0.93-1.96-0.72l-5.36,1.65c-0.41,0.1-0.72,0.1-1.13,0l-2.47-0.93c-0.21-0.1-0.41-0.1-0.62-0.1h-5.36
		c-0.21,0-0.52,0-0.72,0.1l-5.36,2.27c-0.41,0.21-0.82,0.21-1.24,0.1l-2.68-0.82c-0.52-0.21-1.13-0.1-1.55,0.31l-1.13,0.82
		c-0.72,0.52-1.75,0.41-2.37-0.21l-0.21-0.21c-0.52-0.52-1.24-0.72-1.96-0.52l-4.33,1.65c-0.41,0.1-0.82,0.1-1.24,0l-1.86-0.72
		c-0.31-0.1-0.72-0.1-1.03,0l-1.75,0.52c-0.82,0.21-1.65-0.1-2.06-0.93l-0.62-1.34c-0.31-0.62-0.93-0.93-1.55-0.93h-1.55
		c-0.21,0-0.41,0-0.62-0.1l-5.98-2.06c-0.41-0.21-0.93-0.1-1.34,0.1l-4.43,2.06c-0.21,0.1-0.52,0.21-0.72,0.21h-5.46
		c-0.21,0-0.52,0-0.72,0.1l-1.13,0.52c-0.72,0.31-1.55,0.1-2.06-0.52l0,0c-0.31-0.41-0.82-0.72-1.34-0.72h-2.78
		c-0.41,0-0.82,0.1-1.13,0.41l-1.65,1.34c-0.72,0.62-1.75,0.52-2.37-0.1l-0.41-0.41c-0.52-0.52-1.24-0.62-1.86-0.41l-1.65,0.62
		c-0.41,0.21-0.93,0.1-1.34,0l-5.67-2.68c-0.1,0-0.21-0.1-0.31-0.1l-4.43-1.13c-0.72-0.21-1.44,0.1-1.86,0.72l-2.78,4.33
		c-0.1,0.21-0.21,0.31-0.21,0.52l-0.82,3.71c-0.1,0.41-0.31,0.82-0.72,1.03l-1.86,1.24c-0.41,0.31-1.03,0.41-1.55,0.21l-3.82-1.34
		c-0.82-0.31-1.75,0.1-2.17,0.82l-2.06,3.71c-0.1,0.21-0.21,0.52-0.21,0.82v1.65c0,0.82-0.52,1.44-1.24,1.65l-3.4,1.03
		c-0.31,0.1-0.72,0.1-1.03,0l-2.89-1.13c-0.21-0.1-0.52-0.1-0.82-0.1l-5.05,0.41c-0.52,0.1-1.03-0.21-1.44-0.52l-0.62-0.62
		c-0.21-0.31-0.62-0.52-0.93-0.52l-2.27-0.52c-0.52-0.1-0.93,0-1.34,0.31l-2.99,2.17c-0.31,0.21-0.62,0.31-0.93,0.31l-4.64,0.21
		c-0.21,0-0.31,0-0.52,0.1l-8.04,2.99c-0.41,0.21-0.93,0.1-1.44-0.1l-2.37-1.24c-0.21-0.1-0.52-0.21-0.82-0.21h-8.66
		c-0.41,0-0.82-0.1-1.13-0.41l-2.06-1.65c-0.62-0.52-1.44-0.52-2.06-0.1l-2.27,1.55c-0.41,0.31-0.72,0.82-0.72,1.44"/>
	<circle class="st7" cx="504.06" cy="283.09" r="2.99"/>
	<circle class="st7" cx="543.34" cy="275.05" r="2.99"/>
	<circle class="st7" cx="416.11" cy="296.39" r="2.99"/>
	<circle class="st7" cx="633.36" cy="279.58" r="2.99"/>
	<g>
		<path class="st12" d="M333.31,228.65v43.31c12.06,0,21.86-9.69,21.86-21.65C355.27,238.34,345.37,228.65,333.31,228.65z"/>
		<path class="st12" d="M331.87,228.65c-7.63,0-14.54,4.02-18.04,10.83l18.04,10.62V228.65z"/>
		<path class="st10" d="M312.38,240.51c-5.46,10.83-1.03,24.02,9.8,29.39c3.09,1.55,6.39,2.37,9.8,2.37v-20.11L312.38,240.51z"/>
	</g>
	<g>
		<rect x="654.7" y="180.91" class="st12" width="31.96" height="2.89"/>
		<rect x="644.29" y="178.95" class="st10" width="6.29" height="6.29"/>
		<rect x="654.7" y="190.4" class="st12" width="31.96" height="2.89"/>
		<rect x="644.29" y="188.44" class="st10" width="6.29" height="6.29"/>
		<rect x="654.7" y="199.88" class="st12" width="31.96" height="2.89"/>
		<rect x="644.29" y="197.92" class="st10" width="6.29" height="6.29"/>
	</g>
	<rect x="311.76" y="282.99" class="st6" width="40.73" height="44.65"/>
	<g>
		<rect x="340.22" y="320.83" class="st10" width="2.17" height="2.17"/>
		<rect x="343.31" y="320.83" class="st13" width="2.17" height="2.17"/>
		<rect x="346.51" y="320.83" class="st14" width="2.17" height="2.17"/>
	</g>
	<g>
		<path class="st13" d="M332.07,287.83v3.61c5.98,0,10.83,4.85,10.83,10.83c0,2.89-1.13,5.67-3.2,7.63l2.58,2.58
			c5.67-5.67,5.67-14.74,0-20.42C339.6,289.38,335.89,287.83,332.07,287.83z"/>
		<path class="st14" d="M342.28,312.58L339.7,310c-3.82,3.82-9.9,4.23-14.23,0.93l-2.17,2.89
			C329.08,318.25,337.23,317.63,342.28,312.58z"/>
		<path class="st10" d="M321.25,302.37c0-5.98,4.85-10.83,10.83-10.83v-3.61c-7.94,0-14.44,6.5-14.44,14.44
			c0,4.54,2.06,8.76,5.67,11.55l2.17-2.89C322.79,308.87,321.25,305.67,321.25,302.37z"/>
	</g>
	<rect x="312.28" y="174.41" class="st15" width="40.52" height="44.44"/>
	<g>
		<rect x="319.18" y="195.34" class="st14" width="7.32" height="11.75"/>
		<rect x="329.8" y="187.3" class="st13" width="7.32" height="19.8"/>
		<rect x="340.42" y="178.02" class="st10" width="7.32" height="29.08"/>
		<rect x="316.92" y="209.88" class="st10" width="2.17" height="2.17"/>
		<rect x="320.01" y="209.88" class="st13" width="2.17" height="2.17"/>
		<rect x="323.21" y="209.88" class="st14" width="2.17" height="2.17"/>
	</g>
	<g>
		<line class="st2" x1="336.3" y1="211.02" x2="349.6" y2="211.02"/>
		<line class="st2" x1="336.3" y1="213.08" x2="349.6" y2="213.08"/>
		<line class="st2" x1="336.3" y1="215.14" x2="349.6" y2="215.14"/>
	</g>
	<g>
		<line class="st2" x1="315.68" y1="319.9" x2="325.37" y2="319.9"/>
		<line class="st2" x1="315.68" y1="321.96" x2="325.37" y2="321.96"/>
		<line class="st2" x1="315.68" y1="324.02" x2="325.37" y2="324.02"/>
	</g>
</g>
<path class="st16" d="M806.7,177.9c-73.8,12.5-147.5,7.2-218.5-0.6c-70.9-7.7-141.8-17.9-215.6-14.9c-47.4,2-100.5,11.4-133.5,38.7
	c-32,26.4-37,61.9-37.1,93.9c0,24.2,2.1,49.1,19.1,68.3c11.9,13.3,30.2,22.9,44,35.2c47.8,42.7,33.3,110,1.8,167.1
	c-14.8,26.8-32.8,53.3-42.7,80.7c-10.1,27.4-11.4,57,6.7,79.4c17.8,22,52.2,34.6,88.1,41c73,13.2,154.2,5,233-6.1
	c174.2-24.6,346.4-63,518.3-101.3c63.6-14.1,127.6-28.4,188.8-48.9c34.1-11.4,68.6-25.5,90.8-47.6c27.9-27.9,28.6-66.1,1.8-89
	c-45.2-38.3-147.4-29.8-182.4-73.6c-19.2-24-10.9-56.8,4.4-85.8c32.8-61.9,96.2-123.2,88.1-185.1c-5.8-42.3-49-77.3-106.9-86.5
	c-60.8-9.7-138.9,8.6-173.8,51.3C944.8,138.3,871.9,166.9,806.7,177.9L806.7,177.9z"/>
<path class="st0" d="M535.2,517.7h293.2v67.9H535.2V517.7z"/>
<path class="st17" d="M535.2,517.7h293.2v67.9H535.2V517.7z"/>
<path class="st18" d="M570.2,587.9l2.1,181.2L544,840.4l-2.2-252.6L570.2,587.9L570.2,587.9z"/>
<path class="st0" d="M538.2,530.7l285.4,1.8v50.7H538.2V530.7z"/>
<path class="st18" d="M799.2,587.9l24.4,3.5v246.3l-24.4-75.3V587.9z"/>
<path class="st19" d="M832.9,520.5h137.6v292.3H832.9V520.5z"/>
<path class="st0" d="M843.9,528.6h115.5v224.6H843.9V528.6z"/>
<path class="st17" d="M843.9,528.6h115.5v224.6H843.9V528.6z"/>
<path class="st0" d="M843.9,533.3h115.5v49.9H843.9V533.3z M843.9,587.9h115.5v106H843.9V587.9z M843.9,700.4h115.5v106H843.9V700.4
	z"/>
<ellipse class="st0" cx="848.7" cy="822.3" rx="7.5" ry="9.5"/>
<ellipse class="st0" cx="952.2" cy="822.8" rx="7.5" ry="9.5"/>
<path class="st19" d="M534.1,840.3h9.9l-2.6-317.5h-15.1L534.1,840.3z M823.6,520.5v317.1h9.3V523L823.6,520.5z M541.8,580v11.4
	h281.8v-8.2L541.8,580z M560.9,499.2h357.5l52,17.1v9.9l-445.8-3.4v-10.2L560.9,499.2z"/>
<path class="st18" d="M524.6,512.7l445.8,3.7v9.9l-445.8-3.4V512.7L524.6,512.7z"/>
<linearGradient id="SVGID_3_" gradientUnits="userSpaceOnUse" x1="675.0338" y1="1913.8257" x2="677.4338" y2="1913.8257" gradientTransform="matrix(1 0 0 -1 -34.96 2517.8257)">
	<stop  offset="0" style="stop-color:#808080;stop-opacity:0.25"/>
	<stop  offset="0.54" style="stop-color:#808080;stop-opacity:0.12"/>
	<stop  offset="1" style="stop-color:#808080;stop-opacity:0.1"/>
</linearGradient>
<path class="st20" d="M642.3,605.1l-2.1-0.4v-0.4l-0.3-1.4C640.9,603.8,641.8,604.5,642.3,605.1L642.3,605.1L642.3,605.1z"/>
<path class="st21" d="M597.5,764.8c1.3-0.4,2.6-0.5,4-0.8c9.4-1.3,19,0.1,27.6,4c-0.8,6.4-1.8,13.1,0.1,19.1
	c1.2,4.3,3.9,8.2,4.4,12.8c2.8,0.5,5.1,2.5,6,5.3c0.4,1.1,0.6,2.5,0.6,3.8c0,1.6-0.3,3.1-0.6,4.6c-0.4,2.5-2.5,4.3-5,4.1
	c-8,0.9-15.8-2.3-23.3-5.5l-14.5-6c-1.7-0.8-3.4-1.4-5.1-2.3c-3.1-1.7-5.8-4-8.1-6.7c-0.4-0.5-0.8-1.1-0.9-1.8
	c-0.4-1.8,1.8-2.9,3.3-4.1c0.4-0.4,0.8-0.8,1.1-1.2c1.6-2.4,1.8-5.8,2.6-8.6c2.3-6.8,9.3-11.1,11.9-17.8c0.1-0.4,0.4-0.8,0.4-1.1"/>
<path class="st17" d="M640.2,809.1c0,1.6-0.3,3.1-0.6,4.6c-0.4,2.5-2.5,4.3-5,4.1c-8,0.9-15.8-2.3-23.3-5.5l-14.5-6
	c-1.7-0.8-3.4-1.4-5.1-2.3c-3.1-1.7-5.8-4-8.1-6.7c-0.4-0.5-0.8-1.1-0.9-1.8c-0.4-1.8,1.8-2.9,3.3-4.1c0.4-0.4,0.8-0.8,1.1-1.2
	c4,0.8,8.9,3.4,12,4.3c3.1,0.8,6,2.1,8.7,3.7c3.9,2.5,6.5,6.1,9.8,9.3c3.3,3.1,7.3,5.9,11.9,5.6c2.4-0.4,4.7-1.1,6.8-2.4
	L640.2,809.1L640.2,809.1z"/>
<path class="st22" d="M623.1,662.1c0.5,2-0.1,4-1.8,5.2c-1.3,0.8-3.1,0.8-4.4,1.7c-1.7,1.1-1.8,3.5-2.2,5.5
	c-1.1,6.9-4.4,13.2-7.3,19.5c-2.9,6.3-5.5,13.3-4.3,20.1c0.8,4.7,3,9.7,0.9,13.9c-0.5,1.1-1.3,2-2,3c-3,5-1.2,11.1-1.3,16.9
	c0,0.6-0.1,1.2-0.4,1.8c-0.4,0.5-1.1,0.9-1.7,1.2c-2.2,1.6-3.4,4-3.5,6.7c-0.1,2.5,0.3,5.2,0.9,7.7c0.1,1.1,0.5,2,1.2,2.6
	c0.8,0.5,1.8,0.8,2.8,0.8c6.5,0.5,12.8,2.1,19,4.6c4,1.7,7.7,3.8,11.9,4.4c0.8,0.3,1.7,0.3,2.5-0.4c0.5-0.5,0.9-1.1,1.1-1.8
	c1.6-5.3,3.3-10.7,2.6-16.2l-1.1-7c-0.8-9.3,5.6-17.6,7.5-26.9c0.9-4.1,0.9-8.4,1.6-12.5c1.8-11.5,8.1-21.7,10.4-33.1
	c0.4-2.1,0.8-4.1,1.6-6.1c1.8-4.3,6-8,6.1-12.7c0.1-1.1-0.3-2.1-0.8-3c-0.9-1.1-2.3-1.8-3.8-2.1c-5.6-1.6-11.4-2.6-17.1-3.4
	c-2.6-0.5-5.5-0.8-8.1-0.5c-3.5,0.4-6.9,1.6-9.8,3.5C619.7,657.9,622.3,658.4,623.1,662.1z"/>
<path class="st23" d="M623.1,662.1c0.5,2-0.1,4-1.8,5.2c-1.3,0.8-3.1,0.8-4.4,1.7c-1.7,1.1-1.8,3.5-2.2,5.5
	c-1.1,6.9-4.4,13.2-7.3,19.5c-2.9,6.3-5.5,13.3-4.3,20.1c0.8,4.7,3,9.7,0.9,13.9c-0.5,1.1-1.3,2-2,3c-3,5-1.2,11.1-1.3,16.9
	c0,0.6-0.1,1.2-0.4,1.8c-0.4,0.5-1.1,0.9-1.7,1.2c-2.2,1.6-3.4,4-3.5,6.7c-0.1,2.5,0.3,5.2,0.9,7.7c0.1,1.1,0.5,2,1.2,2.6
	c0.8,0.5,1.8,0.8,2.8,0.8c6.5,0.5,12.8,2.1,19,4.6c4,1.7,7.7,3.8,11.9,4.4c0.8,0.3,1.7,0.3,2.5-0.4c0.5-0.5,0.9-1.1,1.1-1.8
	c1.6-5.3,3.3-10.7,2.6-16.2l-1.1-7c-0.8-9.3,5.6-17.6,7.5-26.9c0.9-4.1,0.9-8.4,1.6-12.5c1.8-11.5,8.1-21.7,10.4-33.1
	c0.4-2.1,0.8-4.1,1.6-6.1c1.8-4.3,6-8,6.1-12.7c0.1-1.1-0.3-2.1-0.8-3c-0.9-1.1-2.3-1.8-3.8-2.1c-5.6-1.6-11.4-2.6-17.1-3.4
	c-2.6-0.5-5.5-0.8-8.1-0.5c-3.5,0.4-6.9,1.6-9.8,3.5C619.7,657.9,622.3,658.4,623.1,662.1z"/>
<path class="st0" d="M602.8,818.1H594l-5.8-118.6l-0.4-6.8l7.5-2.5l0.5,7.2L602.8,818.1z"/>
<path class="st17" d="M595.9,697.2l-7.6,2.2l-0.4-6.8l7.5-2.5L595.9,697.2z"/>
<path class="st0" d="M713.6,843.1l-14.6,1.8l-67-152.1l-18.2-1.3l-31.8,9.3l-6.1,181.1h-14.5l5.6-187.8l-34.9,0.9l-62.2,154.8h-13.3
	l65.3-180.9l2.5-6.9l97.4-3.4l24.3,13.7l0.4,0.8L713.6,843.1z"/>
<path class="st17" d="M646.9,672.8c-21,6.3-42.7,13.3-42.7,13.3s-19.8,6.9-28.2,0c-1.1-0.8-2.3-1.4-3.5-2c1.1,0.8,2.3,1.4,3.5,2
	l-53.7-17.3l2.5-6.9l97.4-3.3l24.3,13.7L646.9,672.8L646.9,672.8z"/>
<path class="st24" d="M547.8,642.8l39.7-8.9c0,0,94.9,17.6,101.9,24.8c0,0-75.9,15.4-84.3,20.6C597,684.4,546.9,690.4,547.8,642.8
	L547.8,642.8z"/>
<path class="st25" d="M530.8,543.5c-3.1,9.8-11.6,18.7-21.8,19.1c-0.8,0.1-1.6,0-2.2-0.4c-1.3-0.8-1.3-2.6-0.8-4.1
	c0.5-1.4,1.4-2.6,1.6-4.2c0-0.4,0-0.6-0.1-0.9c-0.4-1.2-1.2-2.4-2.5-2.1c1.7-1.3,2.1-3.8,0.9-5.5c-0.5-0.5-0.9-1.1-1.2-1.7
	c-0.8-1.8,0.5-3.8,1.1-5.6c1.1-4.1-1.8-8.2-2-12.5c-0.3-3.9,1.8-7.5,2.3-11.2c0.8-6.1-2.3-12.2-2.6-18.4c-0.3-4.3,0.8-8.6,2-12.8
	c1.1-3.8,2.2-7.5,2.3-11.4c0-2.8-0.5-5.6-0.6-8.4c-0.3-2.5,0.3-5.2,1.3-7.5c0.8-1.3,2-2.4,3.4-2.9c3.4-1.1,5.6,0.6,6.1,3.9
	c0.8,5.5,0.4,11.1,1.4,16.6c1.1,5.2,2.5,10.2,4.6,15c1.8,4.3,4,8.6,5.5,13.2c1.1,3.8,1.8,7.5,2.3,11.4
	C532.7,523.2,533.9,533.7,530.8,543.5L530.8,543.5z"/>
<path class="st21" d="M766.3,794c-2.6,3.8-6.8,6.1-11.2,6.7c-4.4,0.5-9-0.5-13.6,0.6c-1.3,0.3-2.5,1.1-3.1,2.4
	c-0.1,0.8-0.3,1.7-0.3,2.5c-0.5,2.8-4.1,3.4-6.9,3.4l-11.8-0.1c-2.4,0-5.1-0.1-6.9-1.8c-1.8-1.8-1.8-4.7-0.1-6.8
	c1.2-0.4,1.8-1.8,1.4-2.9c-0.4-1.1-1.8-1.8-2.9-1.4c-0.3-1.6-0.1-3.1,0.3-4.6c0-4.3,1.1-11.6,4-15c3.8-4.2,10.3-9.7,15.8-10.7
	c3.9-0.8,7.8,0.4,10.7,3.1c2.6,2.5,4.7,6.4,8.2,6.9c2,0.3,4-0.8,5.9-1.1c4.6-0.6,9,1.8,11.1,5.9c0.5,1.1,0.8,2.1,1.1,3.3
	C769,787.8,768.3,791.2,766.3,794L766.3,794z"/>
<path class="st17" d="M766.3,794c-2.6,3.8-6.8,6.1-11.2,6.7c-4.4,0.5-9-0.5-13.6,0.6c-1.3,0.3-2.5,1.1-3.1,2.4
	c-0.1,0.8-0.3,1.7-0.3,2.5c-0.5,2.8-4.1,3.4-6.9,3.4l-11.8-0.1c-2.4,0-5.1-0.1-6.9-1.8c-1.8-1.8-1.8-4.7-0.1-6.8
	c6.8-0.4,13.3,0,20.1-1.3c2.6-0.5,5.5-1.2,8.2-1.7c6-0.8,12.3-0.1,17.8-2.6c4.6-2.1,7.8-6.3,9.7-11C769,787.8,768.3,791.1,766.3,794
	L766.3,794z"/>
<path class="st22" d="M735.6,777.7c-4.1,3.3-8.9,5.6-14.1,6c-5.2,0.4-10.7-2.1-13.3-6.7c-3.8-6.7-0.4-15.9-5-22l-5-5.2
	c0,0-2.4-4.7-1.1-6.7c-1.7,0.6-3.3-0.9-3.9-2.5c-0.5-1.7-0.3-3.5-0.5-5.2c-0.8-4.4-5.2-7.3-7.2-11.4c-2.1-4-1.8-9.2-2.1-13.9
	c-0.5-11.5-4.8-22.6-12.2-31.3c-1.4-1.7-3.3-3.4-5.5-3.3c0.4-3.9-2.2-7.5-5.5-9.3s-7.2-2.5-11-2.9c-38.2-3.8-78,10.4-114.6-1.6
	c-10.2-3.3-20-8.9-26.3-17.6c-4.8-6.8-6.9-15.1-5.5-23.3v-0.1c1.4-7.3,5.3-9,11.9-12.5c7.5-4,15.3-7.2,23.2-9.7
	c15.4-4.8,32.1-6.7,48.2-3l22.1,6.1c3,0.6,5.9,1.1,8.9,1.4l14,1.6c15,1.8,29.8,5.1,44,9.8c5.3,1.8,10.6,3.9,15.3,7.2
	c7.3,5.3,12.2,13.3,13.6,22.2c0.4,3,0.4,6.1,1.1,9c0.6,2.5,1.4,4.8,2.5,7.2c8.8,21.8,16.1,44.3,21.7,67.2c0.4,1.7,0.9,3.3,1.8,4.8
	c1.3,2.2,3.7,3.7,5,5.6c3.1,5.1,0.1,12.1,2.9,17.4c0.9,1.8,2.5,3.3,3.5,5.1C745.4,766.4,740.9,773.4,735.6,777.7L735.6,777.7z"/>
<path class="st17" d="M682.7,658.8c1.4-1.1,2.6-2.5,3.8-4.1c1.1-1.6,1.4-3.5,1.1-5.5c0.8,4.7-0.8,9.7-4,13.2
	c-2.5,2.6-7.5,5.3-11.2,4.3C672.9,663.8,680.4,660.8,682.7,658.8L682.7,658.8z M618,607.2c-0.6,2.3-2.4,4-4.6,4.7
	c-2.2,0.8-4.6,0.9-6.9,0.8h-2.1c-27.1-0.6-54.6-6.7-81.1-0.8c-3.3,0.6-6.3,1.6-9.4,2.8c-3.9,1.6-7.5,3.7-10.7,6.1v-0.1
	c1.4-7.3,5.3-9,11.9-12.5c7.5-4,15.1-7.2,23.2-9.7c15.4-4.8,32.1-6.7,48.2-3l22.1,6.1c3,0.6,5.9,1.1,8.9,1.4
	C618.1,604.5,618.4,605.9,618,607.2L618,607.2z"/>
<path class="st21" d="M618,605.8c-0.6,2.3-2.4,4-4.6,4.7c-2.2,0.8-4.6,0.9-6.9,0.8h-2.1c-27.1-0.6-54.6-6.7-81.1-0.8
	c-3.3,0.6-6.3,1.6-9.4,2.8c-4,1.7-7.8,3.9-11.2,6.7l-2.4-6.5c-0.9-2.5,2.1-3.3,2.6-5.5c0.4-1.6-0.4-3.4-0.6-5.1l-0.3-1.2
	c-0.3-3.8,1.1-5.9,4.2-7.8c9-6,20.1-10.2,30.6-13.3c5.5-1.8,11.1-2.9,16.9-3.3c8.2-0.5,16.3,1.1,24.2,2.9
	c9.7,2.4,19.5,5.6,28.1,10.6c4.2,2.5,8.4,5.6,10.6,10.1C617.9,602.1,618.4,603.9,618,605.8z"/>
<path class="st17" d="M530.8,543.5c-3.1,9.8-11.6,18.7-21.8,19.1c-0.8,0.1-1.6,0-2.2-0.4c-1.3-0.8-1.3-2.6-0.8-4.1
	c0.5-1.4,1.4-2.6,1.6-4.2c0-0.4,0-0.6-0.1-0.9c5.5-7.7,10.7-15.4,12.9-24.7c0.4-1.6,0.5-3.3,0.4-4.8c-0.4-1.8-1.2-3.5-1.8-5.5
	c-0.9-3.3-0.5-6.5-0.3-9.8c1.1-14.6-1.3-29.1-7-42.6c-1.4-3.3-3-6.5-3.5-9.9c0.8-1.3,2-2.4,3.4-2.9c3.4-1.1,5.6,0.6,6.1,3.9
	c0.8,5.5,0.4,11.1,1.4,16.6c1.1,5.2,2.5,10.2,4.6,15c1.8,4.3,4,8.6,5.5,13.2c1.1,3.8,1.8,7.5,2.3,11.4
	C532.7,523.2,533.9,533.7,530.8,543.5L530.8,543.5z M618,605.8c-0.6,2.3-2.4,4-4.6,4.7c-2.2,0.8-4.6,0.9-6.9,0.8h-2.1
	c-8.8-5.9-19.5-8.5-29.9-7.2c-3.4,0.4-6.8,1.2-10.2,0.8c-6.9-0.6-12.3-5.5-18.4-8.7c-14.1-6.9-31.2-4.7-42.7,5.8l-0.6,0.5l-0.3-1.2
	c-0.3-3.8,1.1-5.9,4.2-7.8c9-6,20.1-10.2,30.6-13.3c5.5-1.8,11.1-2.9,16.9-3.3c8.2-0.5,16.3,1.1,24.2,2.9
	c9.7,2.4,19.5,5.6,28.1,10.6c4.2,2.5,8.4,5.6,10.6,10.1C617.9,602.1,618.4,603.9,618,605.8L618,605.8z"/>
<path class="st25" d="M641.3,492.4l-0.1,0.4c-2.3,6-6.7,11.1-9.3,16.9c-3.4,7.5-4.2,15.7-5.1,23.9c-0.6,7-1.3,14-0.8,21
	c1.3,17.3,9.7,33.6,12,50.7c0.5,4,0.8,7.8,0.4,11.9c-0.3,2.5-0.6,5.2-2.3,7s-4.8,2.5-6.7,0.8l2.4-4.6c-4.7-3.7-11.9-1.1-17.4-3.3
	c-2.5-1.1-4.3-2.9-6.4-4.6c-9.4-7.6-21.5-11.1-33.5-9.8c-3.4,0.4-6.8,1.2-10.2,0.9c-6.9-0.6-12.3-5.5-18.4-8.7
	c-14.1-6.9-31.2-4.7-42.7,5.8c-1.4,1.3-3.4,2.9-5.2,2.1c-0.8-0.4-1.2-1.1-1.6-1.8c-6.8-11.6-1.8-26.5,5.5-37.7
	c7.2-11.2,16.9-21.7,19.8-34.6c0.4-1.6,0.5-3.3,0.4-4.8c-0.4-1.8-1.2-3.5-1.8-5.5c-0.9-3.3-0.5-6.5-0.3-9.8
	c1.1-14.6-1.3-29.1-7-42.6c-1.7-3.9-3.7-7.7-3.7-12c0-6.7,4.7-12.1,8.7-17.4c4.6-6.1,8.2-12.8,14-17.9c5.5-4.7,13.3-7.6,19.8-5.3
	c11.4-2.8,23.1-3.9,34.8-3.3c4,0.3,8.2,0.6,11.9,2.5c3.9,2.1,6.5,5.8,10.3,8c2.6,1.7,5.9,2.4,8.8,3.5c8.2,3.3,14.9,9.2,19.1,17
	c4.1,8.1,5.2,17.3,6.1,26.3C643.5,475.8,644.3,484.4,641.3,492.4L641.3,492.4z"/>
<path class="st17" d="M626,554.6c1.3,17.3,9.7,33.6,12,50.7c-4.6-3.9-10.7-7.6-11.6-12.1c-0.9-4.7-4-11.1-4.4-15.9
	c-0.5-4.8,2.9-10.7-0.6-14l1.1-2.8c-3.9-3.8-4.7-9.4-5-14.8c-0.4-9.4,0.8-19-0.9-28.1c-1.1-5.6-3.3-11.1-5-16.7
	c-2-6.4-3.4-13.1-4.8-19.7c-1.4-5.9-2.5-11.9-3.1-17.9c-0.4-5.2-0.3-10.6,2.1-15.4c2.3-4.7,6.9-8.6,12.2-8.5
	c17.5,0.3,14.5,24,18.4,34.9c1.6,4.3,3.7,8.6,4.4,13.2c0.4,1.8,0.5,3.7,0.5,5.5c-2.3,6-6.7,11.1-9.3,16.9
	c-3.4,7.5-4.2,15.7-5.1,23.9C626.1,540.5,625.6,547.6,626,554.6L626,554.6z"/>
<path class="st25" d="M637.4,473.9c1.6,4.3,3.7,8.6,4.4,13.2c1.4,7.6-0.8,15.7,1.6,23.1c0.6,1.6,1.1,3.3,1.6,4.8
	c0.4,2.4-0.1,4.7-0.1,7.2c0,3.9,1.2,7.5,2.3,11.2c3.7,12.5,6,25.5,7.2,38.4c0.3,3.5,0.8,6.9,1.7,10.4c0.4,1.1,0.8,2.3,1.1,3.5
	c0.4,1.6,0.4,3.3,0.3,4.7c-0.4,5.1-0.8,10.2-0.4,15.3c0.5,5.1,2.4,10.2,6.1,13.6c-3.4,0.8-7,1.4-10.4,0.4c-4.7-1.6-7.5-6.1-9.8-10.4
	c-3-5.5-14.4-10.4-15.6-16.5c-0.9-4.7-4-11.1-4.4-15.9c-0.5-4.8,2.9-10.7-0.6-14l1.1-2.8c-3.9-3.8-4.7-9.4-5-14.8
	c-0.4-9.4,0.8-19-0.9-28.1c-1.1-5.6-3.3-11.1-5-16.7c-2-6.4-3.4-13.1-4.8-19.7c-1.4-5.9-2.5-11.9-3.1-17.9
	c-0.4-5.2-0.3-10.6,2.1-15.4c2.3-4.8,7-8.6,12.2-8.5C636.6,439.2,633.5,463,637.4,473.9L637.4,473.9z"/>
<path class="st17" d="M587.4,477.9c1.7,2,3.8,4,6.1,3.7c-0.4,0.6-1.2,0.8-1.8,0.4c-0.6-0.5-1.1-0.9-1.3-1.6l-3.5-6
	c-0.5-0.8-3.7-5.3-4.4-2.6C582.2,472.9,586.8,477.1,587.4,477.9L587.4,477.9z M585.6,492.9c-0.1-2-0.9-3.9-2.3-5.2
	c-1.2-1.1-2.6-2-4.2-2.5c-4-1.6-8.5-2.9-12.7-2.6c1.6,2.3,6.4,3.7,8.9,4.8C578.8,489.1,582.2,490.9,585.6,492.9z M596.7,535.3
	c-0.8,5.3-5.1,9.3-9.4,12.4s-9.3,5.8-12.2,10.3c-2,3.1-2.9,6.8-4.6,9.9c-1.8,3.7-4.7,6.5-6.9,9.9s-4,7.3-3.3,11.4
	c0,0.4,0.3,0.8,0.5,0.9c0.4,0.3,0.9,0.1,1.3-0.1c4.6-2.4,6.3-7.7,8.2-12.4s4.2-9.3,6.8-13.7c1.1-2.1,2.4-4.3,4.4-5.5
	c1.4-0.6,2.9-1.1,4.3-1.6c2.1-0.9,4-2.4,5.5-4.2c5.6-6.8,8.6-15.3,8.2-24c-0.1-1.8-0.3-10.7-3-8.1
	C593.8,523.1,597.1,531.7,596.7,535.3L596.7,535.3z"/>
<path class="st21" d="M603.4,332.1c8.9,4,16.6,12.4,16.2,22.1c-0.3,10.2-8.8,19.8-5.8,29.5c1.7,5.6,6.9,9.4,10.9,13.7
	c15.4,16.3,15.4,44.8-0.1,61c-5.9,6.1-13.6,10.6-19.8,16.6c-22,20.8-23,56.8-11.1,84.7c-8.9,2-18.4,3-27.6,3.1
	c-4.3,0-9.7-0.8-11.1-4.7c-1.4-3.8,1.1-8.8-1.8-11.6c-1.3-1.3-3.4-1.4-5.2-1.8c-11.8-1.8-21.3-11.1-25.5-22.1
	c-4.3-11-4.1-23.3-1.7-34.8c1.8-8.2,4.6-17.5,0.4-24.9c-5.2-9.4-20.1-13.3-19.8-24c0.3-8.8,10.5-13.1,16.5-19.6
	c10.9-12,5.6-30.6,5.6-46.9c0-14.2,5-29,15.6-38.4C554.8,319.6,585.2,324.2,603.4,332.1L603.4,332.1z"/>
<g class="st26">
	<path d="M523,452.1c-4.6-8.2-16.5-12.2-19.2-20.3c-1.3,1.8-2.2,4.1-2.3,6.5c-0.3,10.7,14.6,14.8,19.8,24c1.7,3.3,2.4,7,2.1,10.7
		C524.9,466,526.3,458.4,523,452.1L523,452.1z M615,370.3c1.8-5.5,4.6-10.9,4.7-16.6V352C617.7,358.2,614.5,364.3,615,370.3z
		 M524.6,399.4c3.5-11.2,0.5-25.2,0.5-37.7c0-1.6,0.1-3,0.3-4.6c-1.2,4.8-1.8,9.8-1.8,14.8C523.5,380.9,525.1,390.5,524.6,399.4
		L524.6,399.4z M626.4,447.8c-5.9,6.1-13.6,10.6-19.8,16.6c-11.1,10.5-16.9,24.9-18.4,40.2c2.6-11.4,8.1-21.8,16.7-29.9
		c6.1-5.9,13.9-10.4,19.8-16.6c7-7.6,11.1-17.6,11.5-28.1C634.5,436.7,631.1,442.7,626.4,447.8z M567.9,552.1
		c-4.3,0-9.7-0.8-11.1-4.7c-1.4-3.8,1.1-8.8-1.8-11.6c-1.3-1.3-3.4-1.4-5.2-1.8c-11.8-1.8-21.3-11.1-25.5-22.1
		c-3.3-8.1-4-16.9-3.1-25.6l-0.3,1.1c-2.5,11.5-2.6,23.9,1.7,34.9s14,20.3,25.5,22.1c1.8,0.4,3.9,0.5,5.2,1.8
		c2.9,2.8,0.4,7.8,1.8,11.6c1.6,4,6.9,4.8,11.1,4.7c9.3-0.1,18.5-1.1,27.6-3.1c-1.2-3-2.4-6.1-3.3-9.2
		C582.9,551.3,575.5,552,567.9,552.1L567.9,552.1z"/>
</g>
<path class="st17" d="M601.8,507c2.5,2,5.3-5.5,3.8-7.2C605,500.2,601.4,506.6,601.8,507z M612.8,639.7c3-1.1,6.1-2.1,8.2-4.6
	c1.7-2,3-9.9-0.5-6.1C617.5,632.3,616,636.7,612.8,639.7L612.8,639.7z M643.3,631.5c-0.4,2.5-1.1,5-2.8,6.8
	c-0.4,0.4-1.1,0.5-1.1,0.1c2-1.1,3.8-2.3,5.5-3.8c3.5-3.4,4-12-1.3-14.2C643.3,624,643.8,627.7,643.3,631.5z"/>
<path class="st22" d="M680.1,616c0,0-29.4-11.6-39.9-10.4l12,17.9l13.6,9c0,0,8.2-3.1,8.8-3.3L680.1,616L680.1,616z"/>
<path class="st0" d="M478.1,492.3c0,0,22-12.8,51.2,3.1l34,109.5c0,0-11.9,95.2,34.1,74.1c0,0,83.7-26.1,92.2-20.3c0,0,8,0-8,3.5
	l-77.2,23c0,0-19.8,6.9-28.2,0s-32.1,0.9-35.3-46.8c-2.1-29.9-5.6-60-11.1-89.5l-8.2-24.3L478.1,492.3L478.1,492.3z"/>
<path class="st24" d="M475.5,639.7c0,0,9.7-96.7-6.1-131.4c-13.9-30.4,39.7-16.2,53.7-12c2.2,0.6,4,2,5.5,3.9
	c8.2,11.8,37.9,58.3,29.1,120.7c0,0-3.5,55.5,18.5,64.4l-67.9-21.8c-5.5-1.8-11.1-3.3-16.8-4.6C484.2,657,472.3,652.4,475.5,639.7
	L475.5,639.7z"/>
<path class="st25" d="M891.9,466.9c0,0-4.7,22.1,16.3,24.8l1.3-2.5C909.6,489.1,893.3,473.7,891.9,466.9z M916.3,489l-5,1.1
	l-0.5,0.1c0,0-13.2-10.6-12.9-34.5c1.8,3.5,3.9,6.9,6.1,9.9C909.4,472.6,915.4,481.7,916.3,489L916.3,489z M918,491.3
	c-0.8,0.5-1.8,0.6-2.6,0.4c-12.5-3-8.4-44.1-8.4-44.1c0.8,0.4,1.4,5.6,4.3,12.3C916.4,471.7,922,488.3,918,491.3L918,491.3z
	 M946,466.9c0,0,0.8,22.1-20.3,24.8l-1.3-2.5C924.4,489.1,944.6,473.7,946,466.9L946,466.9z M939.9,455.7
	c0.3,23.8-16.9,34.5-16.9,34.5l-0.5-0.1l-5-1.1c0.9-7.2,6.9-16.5,12.1-23.3C932.7,461.9,936.1,458.5,939.9,455.7L939.9,455.7z
	 M922.4,489.1c-0.8,0.9-1.8,1.7-2.8,2.2c-0.4,0.1-0.8,0.4-1.1,0.4c-3.1,0.8-4.1-1.6-4-5.3c0.4-6.8,4.6-18.5,8.4-27.3
	c2.8-6.3,7.2-11.1,8-11.5C930.9,447.6,930.7,479.4,922.4,489.1L922.4,489.1z M918.9,433.2c0,0-14,50-2,57.5
	C929.1,498.2,922,437.5,918.9,433.2z"/>
<path class="st17" d="M891.9,466.9c0,0-4.7,22.1,16.3,24.8l1.3-2.5C909.6,489.1,893.3,473.7,891.9,466.9z M916.3,489l-5,1.1
	l-0.5,0.1c0,0-13.2-10.6-12.9-34.5c1.8,3.5,3.9,6.9,6.1,9.9C909.4,472.6,915.4,481.7,916.3,489L916.3,489z M918,491.3
	c-0.8,0.5-1.8,0.6-2.6,0.4c-12.5-3-8.4-44.1-8.4-44.1c0.8,0.4,1.4,5.6,4.3,12.3C916.4,471.7,922,488.3,918,491.3L918,491.3z
	 M946,466.9c0,0,0.8,22.1-20.3,24.8l-1.3-2.5C924.4,489.1,944.6,473.7,946,466.9L946,466.9z M939.9,455.7
	c0.3,23.8-16.9,34.5-16.9,34.5l-0.5-0.1l-5-1.1c0.9-7.2,6.9-16.5,12.1-23.3C932.7,461.9,936.1,458.5,939.9,455.7L939.9,455.7z
	 M922.4,489.1c-0.8,0.9-1.8,1.7-2.8,2.2c-0.4,0.1-0.8,0.4-1.1,0.4c-3.1,0.8-4.1-1.6-4-5.3c0.4-6.8,4.6-18.5,8.4-27.3
	c2.8-6.3,7.2-11.1,8-11.5C930.9,447.6,930.7,479.4,922.4,489.1L922.4,489.1z M918.9,433.2c0,0-14,50-2,57.5
	C929.1,498.2,922,437.5,918.9,433.2z"/>
<path class="st25" d="M891.9,466.9c0,0-2.8,22.1,18.4,24.8l1.3-2.5C911.6,489.1,893.3,473.7,891.9,466.9z M918.4,489l-5,1.1
	l-0.5,0.1c0,0-15.1-10.6-14.9-34.5c0,0,3.9,4.1,8.2,9.9C911.3,472.6,917.2,481.7,918.4,489L918.4,489z"/>
<path class="st17" d="M918.4,489l-5,1.1c-4.7-4.1-6.5-14.8-7.2-24.4C911.3,472.6,917.2,481.7,918.4,489z"/>
<path class="st25" d="M919.9,491.3c-0.8,0.5-1.8,0.6-2.6,0.4c-12.5-3-10.4-44.1-10.4-44.1c0.8,0.4,3.4,5.6,6.3,12.3
	C918.5,471.7,924,488.3,919.9,491.3L919.9,491.3z M946,466.9c0,0,2.8,22.1-18.4,24.8l-1.3-2.5C926.5,489.1,944.6,473.7,946,466.9z
	 M939.9,455.7c0.3,23.8-14.9,34.5-14.9,34.5l-0.5-0.1l-5-1.1c0.9-7.2,6.9-16.5,12.1-23.3C936.1,459.9,939.9,455.7,939.9,455.7
	L939.9,455.7z"/>
<path class="st17" d="M931.6,465.7c-0.6,8.9-2.3,18.8-6.1,23.4l-0.9,0.9l-5-1.1C920.6,481.7,926.5,472.6,931.6,465.7z"/>
<path class="st25" d="M924.4,489.1c-0.8,0.9-1.8,1.7-2.8,2.2c-0.4,0.1-0.8,0.4-1.1,0.4c-3.1,0.8-4.1-1.6-4-5.3
	c0.4-6.8,4.6-18.5,8.4-27.3c2.8-6.3,5.3-11.1,6-11.5C930.9,447.6,932.7,479.4,924.4,489.1L924.4,489.1z"/>
<path class="st17" d="M919.9,491.3c-0.8,0-1.4-0.3-2-0.6c-5.9-3.8-6-17.6-4.7-30.8C918.5,471.7,924,488.3,919.9,491.3z M924.4,489.1
	c-0.8,1.4-1.6,2.3-2.8,2.2c-0.6-0.1-1.1-0.4-1.7-0.6c-1.6-1.1-2.6-2.5-3.3-4.3c0.4-6.8,4.6-18.5,8.4-27.3
	C926.3,471.2,926.8,484,924.4,489.1z"/>
<path class="st25" d="M918.9,433.2c0,0-12.1,50,0,57.5S922,437.5,918.9,433.2z"/>
<path class="st0" d="M937.9,493l-0.8,4.4l-3.1,16.2h-29.3l-3.1-16.2l-0.8-4.4L937.9,493L937.9,493z"/>
<path class="st17" d="M937.9,493l-0.8,4.4h-35.4l-0.8-4.4H937.9z"/>
<path class="st0" d="M893.8,488.2h50.6v8.4h-50.6V488.2z"/>
<path class="st27" d="M773.9,504.3l-27.7,2.3l-39.4-2.5l0.8-0.1l36.5-3.5c8.4-3.1,2.5-21.3,2.5-21.3l27.9,1.4l2.3,0.1
	C786.7,503.9,773.9,504.3,773.9,504.3z"/>
<path class="st17" d="M773.9,504.3l-27.7,2.3l-39.4-2.5l0.8-0.1l39.9,1.4l26.7-2.9c7.5-2,3.3-15.1,0.5-21.7l2.3,0.1
	C786.7,503.9,773.9,504.3,773.9,504.3L773.9,504.3z"/>
<path class="st28" d="M822.1,339.9l-8.5,121.2l-1.1,15.9c-0.3,3.7-3.3,6.4-6.9,6.4h-2.5l-127.3-0.8c-2,0-3.5-1.7-3.5-3.7v-0.4
	l1.1-10.7l8.9-88.1c0.4-2.8,2.2-5.3,4.8-6.1l121.2-41.8c4.1-1.4,8.2-0.9,11,1.2C821.6,334.8,822.5,337.4,822.1,339.9L822.1,339.9z"
	/>
<path class="st1" d="M813.8,461.3l-1.1,15.9c-0.3,3.7-3.3,6.4-6.9,6.4h-2.5L676,482.8c-2,0-3.5-1.7-3.5-3.7v-0.4l1.1-10.7
	L813.8,461.3L813.8,461.3z"/>
<ellipse class="st24" cx="728.5" cy="474.4" rx="1.7" ry="3.4"/>
<path class="st27" d="M790.7,508.1c0,0,34.8-13.2,44.2-3.7c0,0,1.6,2.9-4.7,3.7l-25.5,2.1C804.7,510.3,794.1,511.2,790.7,508.1z"/>
<path class="st1" d="M791.7,504.8c6.9-2.8,27.4-10.1,40.6-2.1c0,0-14.6-1.7-22.6,3l-19,2.5l-0.3-0.4c-0.6-1.1-0.3-2.4,0.9-3
	C791.6,504.8,791.7,504.8,791.7,504.8L791.7,504.8z M822.1,339.9l-9.5,137.2c-0.3,3.7-3.3,6.4-6.9,6.4h-2.5c1.8-1.7,3.3-3.7,4.4-5.8
	c0,0,9.4-137.7,10.1-141.2c0.4-1.2,0.9-2.5,1.8-3.4C821.6,334.8,822.5,337.4,822.1,339.9L822.1,339.9z"/>
<path class="st17" d="M822.1,339.9l-9.5,137.2c-0.3,3.7-3.3,6.4-6.9,6.4h-2.5c1.8-1.7,3.3-3.7,4.4-5.8c0,0,9.4-137.7,10.1-141.2
	c0.4-1.2,0.9-2.5,1.8-3.4C821.6,334.8,822.5,337.4,822.1,339.9L822.1,339.9z"/>
<ellipse class="st16" cx="356.2" cy="795.9" rx="100.7" ry="16.2"/>
<path class="st29" d="M352.8,485.7h6.5v146.1h-6.5V485.7z"/>
<path class="st0" d="M400.1,631.3l-0.4,6.7l-0.6,9.3l-0.3,3.9l-0.6,9.3l-0.3,3.9l-0.6,9.3L391,779.3c-0.6,9.4-8.4,16.8-17.9,16.8
	H339c-9.4,0-17.3-7.3-17.8-16.8l-6.4-105.6l-0.6-9.3l-0.3-3.9l-0.6-9.3l-0.3-3.9l-0.6-9.3l-0.4-6.7c-0.4-5.2,3.7-9.5,8.8-9.8h70
	c5.2,0,9.3,4.2,9.2,9.4v0.4L400.1,631.3L400.1,631.3z"/>
<path class="st30" d="M399.7,637.9l-0.5,9.2h-86.1l-0.6-9.2H399.7z M398.9,651.1l-0.5,9.3H314l-0.6-9.3H398.9z M398,664.1l-0.5,9.3
	h-82.8l-0.5-9.3H398z"/>
<path class="st25" d="M302.6,540.5c37.7,27.3,53.6,70,53.6,70s-45.6-1.6-83.2-28.9l-53.6-70C219.3,511.6,264.8,513.2,302.6,540.5
	L302.6,540.5z"/>
<path class="st29" d="M355.5,611.3l-74.6-51.1l-0.1-0.1c-14.8-21.3-61.5-47.4-61.9-47.6l0.9-1.8c2,1.1,47.4,26.5,62.6,48.1
	l74.2,50.8L355.5,611.3z"/>
<path class="st25" d="M326.9,485.4c20.5,14.9,29.1,38.2,29.1,38.2s-24.8-0.8-45.3-15.7l-29.1-38.2
	C281.7,469.7,306.4,470.5,326.9,485.4z"/>
<path class="st29" d="M355.6,524.4l-40.8-27.9l-0.1-0.1c-8-11.5-33.3-25.6-33.6-25.7l0.9-1.8c1.1,0.6,25.9,14.4,34.2,26.3l40.4,27.7
	L355.6,524.4z"/>
<path class="st25" d="M386.1,522.4c-23.5,26-28.6,60-28.6,60s33.3-8.2,57-34.2l28.6-60C442.9,488.2,409.6,496.4,386.1,522.4
	L386.1,522.4z"/>
<path class="st29" d="M358,583l-1.3-1.6c0.4-0.4,39.1-31,46.6-48.7c7.8-18.4,37.6-44.2,38.9-45.3l1.3,1.6
	c-0.4,0.3-30.7,26.5-38.3,44.4C397.4,551.8,359.6,581.9,358,583z"/>
</svg>
