<?xml version="1.0" encoding="utf-8"?>
<!-- Generator: Adobe Illustrator 26.0.1, SVG Export Plug-In . SVG Version: 6.00 Build 0)  -->
<svg version="1.1" id="레이어_1" xmlns="http://www.w3.org/2000/svg" xmlns:xlink="http://www.w3.org/1999/xlink" x="0px"
	 y="0px" viewBox="0 0 332 48" style="enable-background:new 0 0 332 48;" xml:space="preserve">
<style type="text/css">
	.st0{fill:#FB1F4C;}
	.st1{enable-background:new    ;}
	.st2{fill:#FFFFFF;}
	.st3{fill:#323232;}
</style>
<g>
	<path id="사각형_172_00000134935601443755635660000004217348630786853251_" class="st0" d="M256,2h72c2.2,0,4,1.8,4,4v30
		c0,2.2-1.8,4-4,4h-72c-2.2,0-4-1.8-4-4V6C252,3.8,253.8,2,256,2z"/>
	<g class="st1">
		<path class="st2" d="M267.7,11.1c0-0.5,0.2-0.7,0.7-0.7h2.5c0.5,0,0.7,0.2,0.7,0.7v16.1h7.5c0.1,0,0.2,0,0.3,0.1
			c0.1,0.1,0.1,0.2,0.1,0.3v1.9c0,0.1,0,0.2-0.1,0.3c-0.1,0.1-0.2,0.1-0.3,0.1h-10.7c-0.4,0-0.7-0.2-0.7-0.7V11.1z"/>
		<path class="st2" d="M281.4,11.4c0-0.6,0.2-1.1,0.6-1.5s0.9-0.6,1.5-0.6s1.1,0.2,1.5,0.6s0.6,0.9,0.6,1.5s-0.2,1.1-0.6,1.5
			s-0.9,0.6-1.5,0.6s-1.1-0.2-1.5-0.6S281.4,12,281.4,11.4z M281.7,15.7c0-0.5,0.2-0.7,0.7-0.7h2.3c0.5,0,0.7,0.2,0.7,0.7v13.6
			c0,0.5-0.2,0.7-0.7,0.7h-2.3c-0.4,0-0.7-0.2-0.7-0.7V15.7z"/>
		<path class="st2" d="M296.9,27.9c-0.3,0.7-0.5,1.2-0.7,1.5c-0.2,0.4-0.6,0.5-1,0.5H294c-0.5,0-0.8-0.2-1-0.5
			c-0.2-0.4-0.4-0.9-0.6-1.5l-4.7-12.2c-0.1-0.2,0-0.4,0.2-0.6c0.2-0.1,0.3-0.2,0.5-0.2h2.4c0.1,0,0.2,0,0.4,0.1
			c0.1,0.1,0.2,0.2,0.3,0.5l3.6,9.6c0.3-0.8,0.6-1.7,1-2.5c0.3-0.8,0.7-1.7,1-2.6l1.7-4.5c0.1-0.4,0.4-0.6,0.7-0.6h1.9
			c0.2,0,0.4,0.1,0.6,0.2s0.2,0.3,0.1,0.6L296.9,27.9z"/>
		<path class="st2" d="M306.8,23.2c0,1.5,0.4,2.6,1.2,3.4s1.7,1.2,2.9,1.2c1.3,0,2.5-0.3,3.6-1c0.2-0.1,0.5-0.2,0.7-0.2
			s0.4,0.2,0.4,0.5l0.2,1c0,0.3,0,0.5,0,0.6c-0.1,0.2-0.2,0.3-0.5,0.5c-0.7,0.4-1.5,0.7-2.3,0.9s-1.6,0.2-2.5,0.2
			c-1.1,0-2.1-0.2-3-0.6s-1.7-0.9-2.3-1.6s-1.1-1.5-1.5-2.5c-0.3-1-0.5-2.1-0.5-3.3c0-1.2,0.2-2.3,0.5-3.2c0.4-0.9,0.8-1.7,1.5-2.4
			c0.6-0.6,1.3-1.1,2.2-1.5c0.8-0.3,1.7-0.5,2.7-0.5c1.1,0,2,0.2,2.8,0.5c0.8,0.4,1.5,0.8,2.1,1.5c0.9,1,1.5,2.3,1.7,3.8
			c0.2,1.6-0.6,2.5-2.3,2.6h-7.6V23.2z M313.2,20c-0.1-0.3-0.2-0.7-0.3-1s-0.3-0.6-0.5-0.9c-0.6-0.7-1.4-1.1-2.3-1.1
			c-0.9,0-1.7,0.4-2.3,1.1c-0.3,0.4-0.5,0.8-0.7,1.3c-0.1,0.5-0.2,1-0.3,1.6h5.5c0.3,0,0.5-0.1,0.7-0.3
			C313.2,20.6,313.3,20.3,313.2,20z"/>
	</g>
	<path id="패스_11_00000133529530712569897310000018207208586098005666_" class="st0" d="M262,36v12l18-12H262z"/>
</g>
<g class="st1">
	<path class="st3" d="M23.2,36.5c0,0.5-0.2,0.7-0.7,0.7H10.3c-1.1,0-2.1-0.1-3.1-0.4c-0.9-0.3-1.7-0.7-2.4-1.2
		c-0.7-0.6-1.2-1.3-1.6-2.3s-0.6-2.1-0.6-3.4V15.2c0-2.4,0.7-4.2,2-5.4C6,8.6,7.9,7.9,10.3,7.9h11.8c0.2,0,0.4,0.1,0.5,0.2
		c0.1,0.1,0.2,0.3,0.2,0.5v2.5c0,0.5-0.2,0.7-0.7,0.7H10.3c-0.4,0-0.8,0.1-1.2,0.2c-0.4,0.1-0.8,0.3-1.1,0.6
		c-0.3,0.3-0.6,0.7-0.8,1.1c-0.2,0.4-0.3,1-0.3,1.5V20h14.3c0.5,0,0.7,0.2,0.7,0.7v2.5c0,0.5-0.2,0.7-0.7,0.7H6.9v6
		c0,0.6,0.1,1.1,0.3,1.5c0.2,0.4,0.5,0.8,0.8,1.1c0.3,0.3,0.7,0.5,1.1,0.6c0.4,0.1,0.8,0.2,1.2,0.2h12.2c0.4,0,0.7,0.2,0.7,0.7V36.5
		z"/>
	<path class="st3" d="M31.3,36.5c0,0.5-0.2,0.7-0.7,0.7h-2.9c-0.2,0-0.3-0.1-0.5-0.2s-0.2-0.3-0.2-0.5V16.5c0-0.5,0.2-1,0.6-1.5
		c0.4-0.5,0.9-0.7,1.5-0.7h11.2c2.6,0,4.5,0.7,5.8,2s1.9,3.1,1.9,5.3v14.8c0,0.5-0.2,0.7-0.7,0.7h-2.9c-0.2,0-0.3-0.1-0.5-0.2
		c-0.1-0.1-0.2-0.3-0.2-0.5V21.7c0-0.4-0.1-0.9-0.2-1.3c-0.1-0.4-0.3-0.8-0.6-1.1c-0.3-0.3-0.6-0.6-1.1-0.8c-0.4-0.2-1-0.3-1.6-0.3
		h-9.1V36.5z"/>
	<path class="st3" d="M51.4,18.7c-0.2,0-0.3-0.1-0.5-0.2c-0.1-0.1-0.2-0.3-0.2-0.5v-2.5c0-0.2,0.1-0.4,0.2-0.5
		c0.1-0.1,0.3-0.2,0.5-0.2h5.7c0.6,0,1.1,0.2,1.5,0.7c0.4,0.4,0.6,0.9,0.6,1.5v23.2c0,2.2-0.6,3.9-1.9,5.1C56,46.4,54.1,47,51.5,47
		h-4c-0.2,0-0.3-0.1-0.5-0.2c-0.1-0.1-0.2-0.3-0.2-0.5v-2.5c0-0.2,0.1-0.4,0.2-0.5c0.1-0.1,0.3-0.2,0.5-0.2h4c1.3,0,2.2-0.3,2.7-0.9
		S55,41,55,40.1V18.7H51.4z M58.2,3.6c0.2,0,0.3,0.1,0.5,0.2c0.1,0.1,0.2,0.3,0.2,0.5v5.1c0,0.2-0.1,0.4-0.2,0.5
		c-0.1,0.1-0.3,0.2-0.5,0.2h-2.9c-0.4,0-0.7-0.2-0.7-0.7V4.3c0-0.5,0.2-0.7,0.7-0.7H58.2z"/>
	<path class="st3" d="M72,37.2c-2.6,0-4.6-0.6-5.8-1.8c-1.3-1.2-1.9-2.9-1.9-5v-9c0-2.2,0.6-3.9,1.9-5.1c1.3-1.2,3.2-1.8,5.8-1.8
		h5.6c2.6,0,4.5,0.6,5.8,1.8c1.3,1.2,1.9,2.9,1.9,5.1v9c0,2.1-0.6,3.8-1.9,5s-3.2,1.8-5.8,1.8H72z M68.6,30.3c0,0.9,0.2,1.6,0.7,2.1
		c0.5,0.6,1.4,0.9,2.7,0.9h5.6c1.3,0,2.2-0.3,2.7-0.9c0.5-0.6,0.7-1.3,0.7-2.1v-9c0-0.9-0.2-1.6-0.7-2.2c-0.5-0.6-1.4-0.9-2.7-0.9
		H72c-1.3,0-2.2,0.3-2.7,0.9c-0.5,0.6-0.7,1.3-0.7,2.2V30.3z"/>
	<path class="st3" d="M108.5,14.4c0.2,0,0.4,0.1,0.5,0.3c0.1,0.2,0.1,0.4,0.1,0.6l-3.4,22c-0.1,0.7-0.3,1.5-0.5,2.5
		c-0.2,1-0.6,1.9-1.1,2.8c-0.5,0.9-1.2,1.6-2.1,2.2c-0.9,0.6-2.1,0.9-3.5,0.9h-7.1c-0.2,0-0.4-0.1-0.5-0.2c-0.1-0.1-0.2-0.3-0.2-0.5
		v-2.5c0-0.5,0.2-0.7,0.7-0.7h7.1c0.4,0,0.8-0.1,1.1-0.4c0.3-0.3,0.6-0.7,0.8-1.1c0.2-0.5,0.4-1,0.6-1.6c0.2-0.6,0.3-1.3,0.4-2
		c0-0.1,0-0.1,0-0.2s0-0.2,0-0.2H98c-1.6,0-2.9-0.3-3.8-0.9c-1-0.6-1.7-1.4-2.2-2.3c-0.5-0.9-0.9-1.9-1.1-3C90.6,29,90.4,28,90.3,27
		v0c-0.2-1.2-0.4-2.5-0.6-3.9c-0.2-1.4-0.4-2.7-0.6-3.9c-0.2-1.4-0.4-2.8-0.6-4.1c0-0.2,0-0.4,0.2-0.5c0.1-0.1,0.3-0.2,0.5-0.3
		L92,14c0.2,0,0.3,0,0.5,0.2c0.1,0.1,0.2,0.3,0.3,0.5c0.2,1.3,0.4,2.7,0.6,4.1c0.2,1.2,0.4,2.5,0.6,3.9c0.2,1.4,0.4,2.7,0.6,3.9
		c0.2,1,0.3,1.9,0.5,2.6c0.2,0.7,0.4,1.3,0.6,1.8c0.2,0.5,0.5,0.8,0.9,1.1c0.4,0.2,0.8,0.4,1.4,0.4h4.1c0.2-1,0.4-2.1,0.6-3.4
		c0.2-1.2,0.4-2.5,0.6-3.8c0.2-1.3,0.4-2.6,0.6-3.8c0.2-1.2,0.4-2.3,0.5-3.3c0.1-1,0.3-1.8,0.4-2.4s0.1-1,0.2-1.1
		c0.1-0.2,0.2-0.3,0.3-0.4c0.1-0.1,0.3-0.2,0.5-0.1L108.5,14.4z"/>
	<path class="st3" d="M119.5,11.8c-0.3,0-0.6,0-0.9,0.1c-0.4,0.1-0.7,0.2-1,0.5c-0.3,0.2-0.6,0.5-0.8,0.9c-0.2,0.4-0.3,0.9-0.3,1.5
		V17c0.1,0.6,0.3,1.1,0.6,1.5c0.2,0.4,0.6,0.7,1.1,1c0.5,0.3,1.2,0.5,2.2,0.5l6,0.1c1.5,0,2.8,0.3,3.9,0.8c1,0.5,1.9,1.1,2.5,1.7
		c0.6,0.7,1.1,1.4,1.4,2.2c0.3,0.8,0.4,1.5,0.4,2.1v3.5c0,1.1-0.2,2.1-0.6,3c-0.4,0.9-0.9,1.6-1.6,2.2c-0.7,0.6-1.5,1-2.3,1.3
		c-0.9,0.3-1.8,0.4-2.8,0.4h-13.9c-0.2,0-0.3-0.1-0.5-0.2s-0.2-0.3-0.2-0.5V34c0-0.2,0.1-0.4,0.2-0.5c0.1-0.1,0.3-0.2,0.5-0.2h13.9
		c0.3,0,0.6,0,0.9-0.1s0.7-0.2,1-0.5c0.3-0.2,0.5-0.5,0.7-0.9c0.2-0.4,0.3-0.9,0.3-1.5v-3.5c-0.1-0.6-0.3-1.1-0.5-1.5
		c-0.3-0.4-0.7-0.7-1.2-1c-0.5-0.3-1.2-0.5-2.2-0.5l-6-0.1c-1.6,0-2.9-0.2-3.9-0.7c-1.1-0.5-1.9-1.1-2.5-1.8
		c-0.6-0.7-1.1-1.4-1.4-2.2c-0.3-0.8-0.4-1.4-0.4-2v-2.2c0-1.1,0.2-2.1,0.6-3c0.4-0.8,1-1.6,1.6-2.2c0.7-0.6,1.5-1,2.3-1.3
		c0.9-0.3,1.8-0.4,2.7-0.4h13.5c0.2,0,0.4,0.1,0.5,0.2c0.1,0.1,0.2,0.3,0.2,0.5v2.5c0,0.5-0.2,0.7-0.7,0.7H119.5z"/>
	<path class="st3" d="M152.5,36.5c0,0.5-0.2,0.7-0.7,0.7h-3.7c-1.4,0-2.6-0.2-3.6-0.7c-1-0.5-1.7-1.1-2.3-1.8
		c-0.6-0.7-1.1-1.5-1.3-2.3c-0.3-0.8-0.4-1.6-0.4-2.3V18.2h-3.2c-0.2,0-0.3-0.1-0.5-0.2c-0.1-0.1-0.2-0.3-0.2-0.5v-2.5
		c0-0.2,0.1-0.4,0.2-0.5c0.1-0.1,0.3-0.2,0.5-0.2h3.2V7.8c0-0.5,0.2-0.7,0.7-0.7h2.9c0.2,0,0.3,0.1,0.5,0.2c0.1,0.1,0.2,0.3,0.2,0.5
		v6.6h5.8c0.5,0,0.7,0.2,0.7,0.7v2.5c0,0.2-0.1,0.3-0.2,0.5c-0.1,0.1-0.3,0.2-0.5,0.2h-5.8v11.8c0.1,0.7,0.2,1.2,0.4,1.6
		c0.2,0.4,0.5,0.8,1,1.1c0.5,0.3,1.1,0.5,2,0.5h3.7c0.5,0,0.7,0.2,0.7,0.7V36.5z"/>
	<path class="st3" d="M169.7,14.4c0.6,0,1.1,0.2,1.5,0.6c0.4,0.4,0.6,0.9,0.6,1.4v3.7c0,0.2-0.1,0.4-0.2,0.5
		c-0.1,0.1-0.3,0.2-0.5,0.2h-2.9c-0.5,0-0.7-0.2-0.7-0.7v-1.9h-3.8c-0.6,0-1.2,0.1-1.6,0.3s-0.8,0.4-1.1,0.8
		c-0.3,0.3-0.5,0.7-0.6,1.1c-0.1,0.4-0.2,0.8-0.2,1.3v14.8c0,0.5-0.2,0.7-0.7,0.7h-2.9c-0.2,0-0.3-0.1-0.5-0.2s-0.2-0.3-0.2-0.5
		V21.7c0-2.1,0.6-3.9,1.9-5.3c1.3-1.4,3.2-2,5.8-2H169.7z"/>
	<path class="st3" d="M188.6,14.4c1,0,2,0.1,2.9,0.4c0.9,0.3,1.7,0.7,2.3,1.3c0.6,0.6,1.2,1.3,1.5,2.2s0.6,1.8,0.6,3
		c0,4.8-2.7,7.2-8.1,7.3h-8.6v1.7c0,0.9,0.2,1.6,0.7,2.1c0.5,0.6,1.4,0.9,2.7,0.9h11.3c0.5,0,0.7,0.2,0.7,0.7v2.5
		c0,0.5-0.2,0.7-0.7,0.7h-11.3c-2.6,0-4.6-0.6-5.8-1.8s-1.9-2.9-1.9-5v-9c0-2.2,0.6-3.9,1.9-5.1c1.3-1.2,3.2-1.8,5.8-1.8H188.6z
		 M182.6,18.2c-1.3,0-2.2,0.3-2.7,0.9c-0.5,0.6-0.7,1.3-0.7,2.2v3.4h8.6c1.4,0,2.4-0.3,3-0.8c0.6-0.6,0.9-1.4,0.9-2.6
		c0-0.6-0.1-1.1-0.3-1.5c-0.2-0.4-0.4-0.7-0.7-0.9c-0.3-0.2-0.6-0.4-1-0.5c-0.4-0.1-0.7-0.1-1.1-0.1H182.6z"/>
	<path class="st3" d="M213.4,14.4c1,0,2,0.1,2.9,0.4c0.9,0.3,1.7,0.7,2.3,1.3c0.6,0.6,1.2,1.3,1.5,2.2s0.6,1.8,0.6,3
		c0,4.8-2.7,7.2-8.1,7.3H204v1.7c0,0.9,0.2,1.6,0.7,2.1c0.5,0.6,1.4,0.9,2.7,0.9h11.3c0.5,0,0.7,0.2,0.7,0.7v2.5
		c0,0.5-0.2,0.7-0.7,0.7h-11.3c-2.6,0-4.6-0.6-5.8-1.8s-1.9-2.9-1.9-5v-9c0-2.2,0.6-3.9,1.9-5.1c1.3-1.2,3.2-1.8,5.8-1.8H213.4z
		 M207.5,18.2c-1.3,0-2.2,0.3-2.7,0.9c-0.5,0.6-0.7,1.3-0.7,2.2v3.4h8.6c1.4,0,2.4-0.3,3-0.8c0.6-0.6,0.9-1.4,0.9-2.6
		c0-0.6-0.1-1.1-0.3-1.5c-0.2-0.4-0.4-0.7-0.7-0.9c-0.3-0.2-0.6-0.4-1-0.5c-0.4-0.1-0.7-0.1-1.1-0.1H207.5z"/>
	<path class="st3" d="M238.7,36.5c0,0.5-0.2,0.7-0.7,0.7h-3.7c-1.4,0-2.6-0.2-3.6-0.7c-1-0.5-1.7-1.1-2.3-1.8
		c-0.6-0.7-1.1-1.5-1.3-2.3c-0.3-0.8-0.4-1.6-0.4-2.3V18.2h-3.2c-0.2,0-0.3-0.1-0.5-0.2s-0.2-0.3-0.2-0.5v-2.5
		c0-0.2,0.1-0.4,0.2-0.5c0.1-0.1,0.3-0.2,0.5-0.2h3.2V7.8c0-0.5,0.2-0.7,0.7-0.7h2.9c0.2,0,0.3,0.1,0.5,0.2c0.1,0.1,0.2,0.3,0.2,0.5
		v6.6h5.8c0.5,0,0.7,0.2,0.7,0.7v2.5c0,0.2-0.1,0.3-0.2,0.5c-0.1,0.1-0.3,0.2-0.5,0.2H231v11.8c0.1,0.7,0.2,1.2,0.4,1.6
		c0.2,0.4,0.5,0.8,1,1.1c0.5,0.3,1.1,0.5,2,0.5h3.7c0.5,0,0.7,0.2,0.7,0.7V36.5z"/>
</g>
</svg>
