<?xml version="1.0" encoding="utf-8"?>
<!-- Generator: Adobe Illustrator 26.0.0, SVG Export Plug-In . SVG Version: 6.00 Build 0)  -->
<svg version="1.1" id="Layer_1" xmlns="http://www.w3.org/2000/svg" xmlns:xlink="http://www.w3.org/1999/xlink" x="0px" y="0px"
	 viewBox="0 0 369.4 46" style="enable-background:new 0 0 369.4 46;" xml:space="preserve">
<style type="text/css">
	.st0{fill:#FFFFFF;}
	.st1{fill:#FB1F4C;}
</style>
<path class="st0" d="M20.6,34.5c0,0.5-0.2,0.7-0.7,0.7H7.7c-1,0-2.1-0.1-3.1-0.4c-0.9-0.2-1.7-0.7-2.4-1.2c-0.7-0.6-1.3-1.4-1.6-2.3
	C0.2,30.2,0,29,0,27.9V13.2c-0.1-2,0.6-4,2-5.4c1.6-1.3,3.6-2,5.7-1.9h11.8c0.2,0,0.4,0.1,0.5,0.2s0.2,0.3,0.2,0.5v2.5
	c0,0.3-0.2,0.7-0.5,0.7l0,0h-12c-0.4,0-0.8,0.1-1.2,0.2c-0.4,0.1-0.7,0.3-1.1,0.6c-0.3,0.3-0.6,0.7-0.8,1.1c-0.2,0.5-0.3,1-0.3,1.5
	V18h14.3c0.3,0,0.7,0.2,0.7,0.5l0,0c0,0.1,0,0.1,0,0.2v2.5c0,0.3-0.2,0.7-0.5,0.7l0,0H4.3v6c0,0.5,0.1,1.1,0.3,1.5
	c0.2,0.4,0.5,0.7,0.8,1s0.7,0.5,1.1,0.6s0.8,0.2,1.2,0.2H20c0.4,0,0.7,0.2,0.7,0.7v2.6H20.6z"/>
<path class="st0" d="M30.9,11c-0.1-0.2-0.2-0.4-0.2-0.6c-0.1-0.1-0.1-0.2-0.2-0.4c-0.2,0-0.4-0.1-0.5-0.1c-0.3-0.1-0.5-0.1-0.8-0.1
	v24.6c0,0.2,0,0.4-0.2,0.5c-0.1,0.1-0.3,0.2-0.5,0.2h-3c-0.4,0-0.7-0.2-0.7-0.7V8.1c0-0.6,0.2-1.1,0.6-1.5C25.9,6.2,26.5,6,27,5.9
	h2.6c1-0.1,2.1,0.1,3.1,0.5c0.8,0.4,1.4,1.2,1.7,2L43,30c0.2,0.4,0.4,0.7,0.7,1c0.3,0.2,0.6,0.3,1,0.3V6.6c0-0.2,0.1-0.3,0.2-0.5
	C45,6,45.1,5.9,45.3,5.9h2.9c0.2,0,0.4,0.1,0.5,0.2s0.2,0.3,0.2,0.5v26.6c0,0.5-0.2,1-0.5,1.4C48,35,47.5,35.2,47,35.2h-2.4
	c-1.1,0-2.2-0.2-3.3-0.6c-0.9-0.4-1.5-1.1-1.9-2L30.9,11z"/>
<path class="st0" d="M57.1,6.6c0-0.2,0.1-0.3,0.2-0.5c0.1-0.1,0.3-0.2,0.5-0.2H64c1.2,0.1,1.7,0.6,1.7,1.7v20.2c0.2,2-0.6,4-2,5.4
	c-1.6,1.3-3.6,2-5.7,1.9h-4.5c-0.3,0-0.7-0.2-0.7-0.5l0,0c0-0.1,0-0.1,0-0.2V32c-0.1-0.3,0.2-0.7,0.5-0.7l0,0H58
	c0.4,0,0.8-0.1,1.2-0.2s0.8-0.4,1.2-0.6c0.3-0.3,0.6-0.7,0.8-1.1c0.2-0.5,0.3-1,0.3-1.5v-18h-3.6c-0.3,0-0.7-0.2-0.7-0.5l0,0
	c0-0.1,0-0.1,0-0.2V6.6H57.1z"/>
<path class="st0" d="M85.9,5.9C88,5.8,90,6.5,91.6,7.8c1.4,1.4,2.1,3.4,2,5.4v14.6c0,1.2-0.2,2.3-0.6,3.4c-0.3,0.9-0.9,1.6-1.6,2.3
	c-0.7,0.6-1.6,1-2.5,1.2c-1,0.3-2,0.4-3.1,0.4h-7.3c-1,0-2-0.1-3-0.4c-0.9-0.2-1.7-0.7-2.4-1.2c-0.7-0.6-1.3-1.4-1.7-2.3
	c-0.4-1.1-0.6-2.2-0.6-3.4V13.2c-0.1-2,0.6-4,2-5.4c1.6-1.3,3.6-2,5.7-1.9C78.5,5.9,85.9,5.9,85.9,5.9z M89.4,13.2
	c0.1-1-0.3-2-1.1-2.6c-0.7-0.5-1.5-0.8-2.4-0.8h-7.3c-0.9,0-1.8,0.3-2.4,0.8c-0.7,0.7-1.1,1.6-1,2.6v14.6c-0.1,1,0.3,2,1.1,2.6
	c0.7,0.5,1.5,0.8,2.4,0.8H86c0.9,0,1.8-0.3,2.5-0.8c0.7-0.7,1.1-1.6,1-2.6L89.4,13.2L89.4,13.2z"/>
<path class="st0" d="M106.5,23.5c-1.5,0-3-0.6-4.1-1.5c-1.3-1.1-2.2-2.7-2.5-4.4L97.5,7.2c0-0.2,0-0.4,0.1-0.6s0.3-0.3,0.5-0.3
	l2.9-0.4c0.2,0,0.4,0,0.5,0.2c0.1,0.1,0.2,0.3,0.3,0.5l2.3,10.6c0.1,0.8,0.4,1.5,1,2c0.4,0.3,0.9,0.5,1.4,0.6h5.2
	c0.5,0,1-0.2,1.4-0.6c0.5-0.5,0.9-1.2,1-2l2.3-10.6c0-0.2,0.1-0.3,0.3-0.5c0.1-0.1,0.3-0.2,0.5-0.2l2.9,0.4c0.2,0,0.4,0.1,0.5,0.3
	c0.1,0.2,0.2,0.4,0.1,0.6l-2.3,10.4c-0.3,1.7-1.2,3.3-2.6,4.4c-1.1,1-2.6,1.5-4.1,1.5h-0.4v10.9c0.1,0.3-0.2,0.7-0.5,0.7l0,0
	c-0.1,0-0.1,0-0.2,0h-2.9c-0.3,0-0.7-0.2-0.7-0.5l0,0c0-0.1,0-0.1,0-0.2V23.5H106.5z"/>
<path class="st0" d="M130.9,9.8c-0.3,0-0.6,0.1-0.9,0.1c-0.4,0.1-0.7,0.3-1,0.5s-0.6,0.6-0.8,0.9c-0.2,0.5-0.3,1-0.3,1.5V15
	c0.1,0.5,0.3,1,0.6,1.5c0.3,0.4,0.7,0.8,1.1,1c0.7,0.3,1.4,0.5,2.2,0.5l6,0.1c1.3,0,2.6,0.3,3.9,0.8c0.9,0.4,1.8,1,2.5,1.7
	c0.6,0.6,1.1,1.4,1.4,2.2c0.3,0.7,0.4,1.4,0.4,2.1v3.5c0,1-0.2,2.1-0.6,3c-0.4,0.8-0.9,1.6-1.6,2.2c-0.7,0.6-1.5,1-2.3,1.2
	c-0.9,0.3-1.8,0.4-2.8,0.4h-14c-0.2,0-0.3-0.1-0.5-0.2c-0.1-0.1-0.2-0.3-0.2-0.5V32c0-0.2,0.1-0.4,0.2-0.5s0.3-0.2,0.5-0.2h14
	c0.3,0,0.6-0.1,0.9-0.1c0.4-0.1,0.7-0.3,1-0.5c0.3-0.3,0.6-0.6,0.8-0.9c0.2-0.5,0.3-1,0.3-1.5v-3.4c-0.1-0.5-0.3-1-0.5-1.5
	c-0.3-0.4-0.7-0.7-1.2-1c-0.7-0.3-1.4-0.5-2.2-0.5l-6-0.1c-1.3,0-2.7-0.2-3.9-0.8c-0.9-0.4-1.8-1.1-2.4-1.8
	c-1.1-1.1-1.7-2.6-1.8-4.2v-2.2c0-1,0.2-2.1,0.6-3c0.4-0.8,1-1.6,1.7-2.2s1.5-1,2.3-1.3c0.9-0.3,1.8-0.4,2.7-0.4h13.5
	c0.2,0,0.4,0.1,0.5,0.2s0.2,0.3,0.2,0.5v2.5c0,0.5-0.2,0.7-0.7,0.7H130.9z"/>
<path class="st0" d="M171.6,9.1c0,0.3-0.2,0.7-0.5,0.7l0,0h-8.5v24.6c0.1,0.3-0.2,0.7-0.5,0.7l0,0c-0.1,0-0.1,0-0.2,0H159
	c-0.3,0-0.7-0.2-0.7-0.5l0,0c0-0.1,0-0.1,0-0.2V9.8H150c-0.3,0.1-0.7-0.2-0.7-0.5l0,0c0-0.1,0-0.1,0-0.2V6.6c0-0.2,0.1-0.3,0.2-0.5
	c0.1-0.1,0.3-0.2,0.5-0.2h21c0.2,0,0.4,0.1,0.5,0.2s0.2,0.3,0.2,0.5L171.6,9.1z"/>
<path class="st0" d="M198.2,32.8c0.1,0.2,0.2,0.4,0.2,0.6c0,0.2-0.2,0.4-0.3,0.5l-2.4,1.5c-0.3,0.2-0.6,0.2-0.8-0.1v-0.1l-11.4-13.4
	c-0.3-0.3-0.5-0.6-0.6-1c0-0.3,0-0.7,0.2-1s0.4-0.6,0.8-0.8c0.4-0.2,0.8-0.3,1.3-0.3h6.1c0.6,0,1.1-0.1,1.6-0.4
	c0.4-0.2,0.7-0.5,0.9-0.9c0.2-0.3,0.3-0.6,0.3-0.9c0-0.2,0.1-0.5,0.1-0.7v-3.5c0-0.7-0.4-1.4-1-1.8c-0.6-0.5-1.3-0.7-2.1-0.7h-7.9
	c-0.6,0-1.2,0.1-1.7,0.5c-0.4,0.3-0.7,0.6-0.9,1c-0.2,0.5-0.4,1-0.4,1.5v21.7c0,0.2-0.1,0.4-0.2,0.5c-0.1,0.1-0.3,0.2-0.5,0.2h-2.9
	c-0.4,0-0.7-0.2-0.7-0.7V12.8c0-0.7,0.2-1.5,0.4-2.2c0.6-1.8,1.8-3.2,3.5-4c1.1-0.5,2.2-0.7,3.4-0.7h7.9c1,0,2,0.2,2.9,0.5
	s1.7,0.8,2.4,1.4c0.6,0.6,1.1,1.3,1.5,2c0.4,0.8,0.6,1.6,0.6,2.5v3.4c0,0.8-0.1,1.7-0.4,2.4c-0.3,0.8-0.7,1.5-1.3,2.1
	c-0.7,0.7-1.5,1.2-2.4,1.6c-1,0.4-2.1,0.6-3.2,0.6h-1.8L198.2,32.8z"/>
<path class="st0" d="M224,34.5c0,0.5-0.2,0.7-0.7,0.7H211c-1,0-2.1-0.1-3.1-0.4c-0.9-0.2-1.7-0.7-2.4-1.2c-0.7-0.6-1.2-1.4-1.6-2.3
	c-0.4-1.1-0.6-2.2-0.6-3.4V13.2c-0.1-2,0.6-4,2-5.4c1.6-1.3,3.6-2,5.6-1.9h11.8c0.2,0,0.4,0.1,0.5,0.2s0.2,0.3,0.2,0.5v2.5
	c0,0.3-0.2,0.7-0.5,0.7l0,0H211c-0.4,0-0.8,0.1-1.2,0.2c-0.4,0.1-0.8,0.3-1.1,0.6s-0.6,0.7-0.8,1.1c-0.2,0.5-0.3,1-0.3,1.5V18H222
	c0.3,0,0.7,0.2,0.7,0.5l0,0c0,0.1,0,0.1,0,0.2v2.5c0,0.3-0.2,0.7-0.5,0.7l0,0h-14.6v6c0,0.5,0.1,1.1,0.3,1.5s0.5,0.8,0.8,1.1
	c0.3,0.3,0.7,0.5,1.1,0.6c0.4,0.1,0.8,0.2,1.2,0.2h12.2c0.4,0,0.7,0.2,0.7,0.7L224,34.5z"/>
<path class="st0" d="M248.9,34.5c0,0.5-0.2,0.7-0.7,0.7H236c-1,0-2.1-0.1-3.1-0.4c-0.9-0.2-1.7-0.7-2.4-1.2
	c-0.7-0.6-1.3-1.4-1.6-2.3c-0.4-1.1-0.6-2.2-0.6-3.4V13.2c-0.1-2,0.6-4,2-5.4c1.6-1.3,3.6-2,5.7-1.9h11.8c0.2,0,0.4,0.1,0.5,0.2
	s0.2,0.3,0.2,0.5v2.5c0,0.3-0.2,0.7-0.5,0.7l0,0h-12c-0.4,0-0.8,0.1-1.2,0.2c-0.4,0.1-0.8,0.3-1.1,0.6s-0.6,0.7-0.8,1.1
	c-0.2,0.5-0.3,1-0.3,1.5V18H247c0.3,0,0.7,0.2,0.7,0.5l0,0c0,0.1,0,0.1,0,0.2v2.5c0,0.3-0.2,0.7-0.5,0.7l0,0h-14.6v6
	c0,0.5,0.1,1.1,0.3,1.5s0.5,0.8,0.8,1.1c0.3,0.3,0.7,0.5,1.1,0.6c0.4,0.1,0.8,0.2,1.2,0.2h12.2c0.4,0,0.7,0.2,0.7,0.7L248.9,34.5
	L248.9,34.5z"/>
<path class="st0" d="M274.7,9.1c0,0.3-0.2,0.7-0.5,0.7l0,0h-8.5v24.6c0.1,0.3-0.2,0.7-0.5,0.7l0,0c-0.1,0-0.1,0-0.2,0h-3
	c-0.3,0-0.7-0.2-0.7-0.5l0,0c0-0.1,0-0.1,0-0.2V9.8H253c-0.3,0-0.7-0.2-0.7-0.5l0,0c0-0.1,0-0.1,0-0.2V6.6c0-0.2,0.1-0.3,0.2-0.5
	c0.1-0.1,0.3-0.2,0.5-0.2h21c0.2,0,0.4,0.1,0.5,0.2s0.2,0.3,0.2,0.5V9.1z"/>
<path class="st1" d="M293.4,0h72c2.2,0,4,1.8,4,4v30c0,2.2-1.8,4-4,4h-72c-2.2,0-4-1.8-4-4V4C289.4,1.8,291.2,0,293.4,0z"/>
<path class="st0" d="M305.1,9.1c0-0.5,0.2-0.7,0.7-0.7h2.5c0.3,0,0.7,0.2,0.7,0.5l0,0c0,0.1,0,0.1,0,0.2v16.1h7.5
	c0.1,0,0.2,0.1,0.3,0.1c0.1,0.1,0.1,0.2,0.1,0.3v1.9c0,0.1,0,0.2-0.1,0.3c-0.1,0.1-0.2,0.1-0.3,0.1h-10.7c-0.5,0-0.7-0.2-0.7-0.7
	V9.1z"/>
<path class="st0" d="M318.8,9.4c0-0.6,0.2-1.1,0.6-1.5s0.9-0.6,1.5-0.6c1.2,0,2.1,1,2.1,2.1c0,0.6-0.2,1.1-0.6,1.5s-0.9,0.6-1.5,0.6
	c-1.1,0-2.1-0.9-2.1-2l0,0V9.4z M319.1,13.7c0-0.5,0.2-0.7,0.7-0.7h2.3c0.3,0,0.7,0.2,0.7,0.5l0,0c0,0.1,0,0.1,0,0.2v13.6
	c0,0.3-0.2,0.7-0.5,0.7l0,0c-0.1,0-0.1,0-0.2,0h-2.3c-0.5,0-0.7-0.2-0.7-0.7V13.7z"/>
<path class="st0" d="M334.3,25.9c-0.2,0.5-0.4,1-0.7,1.5c-0.2,0.4-0.6,0.6-1,0.5h-1.1c-0.4,0-0.8-0.2-1-0.5c-0.2-0.5-0.5-1-0.6-1.5
	L325,13.8c-0.1-0.2,0-0.4,0.1-0.6c0.1-0.1,0.3-0.2,0.5-0.2h2.4c0.3,0,0.6,0.3,0.7,0.6l3.6,9.6c0.3-0.8,0.6-1.7,1-2.5s0.7-1.7,1-2.6
	l1.8-4.5c0.1-0.4,0.4-0.6,0.7-0.6h1.9c0.2,0,0.4,0.1,0.6,0.2c0.2,0.1,0.3,0.4,0.1,0.6L334.3,25.9z"/>
<path class="st0" d="M344.2,21.2c0,1.3,0.4,2.5,1.2,3.4c0.8,0.8,1.8,1.2,2.9,1.2c1.3,0,2.5-0.3,3.6-1c0.2-0.1,0.4-0.2,0.7-0.2
	c0.2,0,0.4,0.2,0.4,0.5l0.2,1c0.1,0.2,0.1,0.4,0,0.6s-0.3,0.4-0.5,0.5c-0.7,0.4-1.6,0.6-2.4,0.8c-0.8,0.2-1.6,0.2-2.5,0.2
	c-1,0-2-0.2-3-0.6c-0.9-0.4-1.7-0.9-2.3-1.6c-0.7-0.7-1.2-1.6-1.5-2.5c-0.3-1.1-0.5-2.2-0.5-3.3c0-1.1,0.2-2.2,0.5-3.2
	c0.3-0.9,0.8-1.7,1.5-2.4c0.6-0.6,1.4-1.1,2.2-1.5c0.9-0.4,1.8-0.5,2.7-0.5c1,0,1.9,0.2,2.8,0.5c0.8,0.3,1.5,0.8,2.1,1.5
	c0.9,1.1,1.5,2.4,1.7,3.8c0.2,1.6-0.6,2.5-2.3,2.6L344.2,21.2z M350.6,18c-0.1-0.3-0.2-0.7-0.3-1c-0.1-0.3-0.3-0.6-0.5-0.9
	c-0.5-0.7-1.4-1.1-2.3-1.1s-1.7,0.4-2.3,1.1c-0.3,0.4-0.5,0.8-0.7,1.3c-0.1,0.5-0.2,1-0.2,1.5h5.5c0.2,0,0.5-0.1,0.7-0.2
	C350.6,18.5,350.7,18.3,350.6,18z"/>
<path class="st1" d="M299.4,34v12l18-12H299.4z"/>
</svg>
