<?xml version="1.0" encoding="utf-8"?>
<!-- Generator: Adobe Illustrator 24.0.2, SVG Export Plug-In . SVG Version: 6.00 Build 0)  -->
<svg version="1.1" id="레이어_1" xmlns="http://www.w3.org/2000/svg" xmlns:xlink="http://www.w3.org/1999/xlink" x="0px"
	 y="0px" viewBox="0 0 436 322.3" style="enable-background:new 0 0 436 322.3;" xml:space="preserve">
<style type="text/css">
	.그림자_x0020_만들기{fill:none;}
	.모퉁이_x0020_둥글리기_x0020_2pt{fill:#FFFFFF;stroke:#231815;stroke-miterlimit:10;}
	.라이브_x0020_반사_x0020_X{fill:none;}
	.경사_x0020_부드럽게{fill:url(#SVGID_1_);}
	.황혼{fill:#FFFFFF;}
	.잎_GS{fill:#FFE100;}
	.퐁파두르_GS{fill-rule:evenodd;clip-rule:evenodd;fill:#4CACE2;}
	.st0{opacity:0.5;fill:#DEE3F3;enable-background:new    ;}
	.st1{opacity:0.45;}
	.st2{fill:#5567FF;}
	.st3{opacity:0.1;enable-background:new    ;}
	.st4{opacity:0.5;fill:#5567FF;enable-background:new    ;}
	.st5{opacity:0.3;enable-background:new    ;}
	.st6{fill:none;stroke:#FC6681;stroke-width:2;stroke-miterlimit:10;}
	.st7{fill:#FC6681;}
	.st8{fill:none;stroke:#FFD037;stroke-width:2;stroke-miterlimit:10;}
	.st9{fill:#FFD037;}
	.st10{fill:#A8A8A8;}
	.st11{opacity:0.2;enable-background:new    ;}
</style>
<linearGradient id="SVGID_1_" gradientUnits="userSpaceOnUse" x1="0" y1="0" x2="0.7071" y2="0.7071">
	<stop  offset="0" style="stop-color:#E6E7EA"/>
	<stop  offset="0.1747" style="stop-color:#E2E3E6"/>
	<stop  offset="0.3538" style="stop-color:#D6D7DA"/>
	<stop  offset="0.5349" style="stop-color:#C1C4C5"/>
	<stop  offset="0.7174" style="stop-color:#A4A8A8"/>
	<stop  offset="0.8993" style="stop-color:#808584"/>
	<stop  offset="1" style="stop-color:#686E6C"/>
</linearGradient>
<ellipse class="st0" cx="217.5" cy="299.2" rx="107.8" ry="18.1"/>
<g class="st1">
	<path class="st2" d="M191.6,110.8c0,0.2,0,0.4,0,0.6C191.6,111.2,191.6,111,191.6,110.8z"/>
	<path class="st2" d="M245.9,97.7c0,0.1,0,0.1,0,0.2C245.9,97.9,245.9,97.8,245.9,97.7z"/>
	<path class="st2" d="M245.8,97.2c0,0.1,0,0.1,0,0.2C245.8,97.3,245.8,97.3,245.8,97.2z"/>
	<path class="st2" d="M245.9,111.8c0,0.1,0,0.2-0.1,0.3C245.8,112,245.9,111.9,245.9,111.8z"/>
	<path class="st2" d="M245.9,111.3c0,0.1,0,0.2,0,0.3C245.9,111.5,245.9,111.4,245.9,111.3z"/>
	<path class="st2" d="M194.1,114.9c-0.4-0.2-0.7-0.4-1-0.7C193.4,114.5,193.8,114.7,194.1,114.9z"/>
	<path class="st2" d="M193.1,114.2c-0.1-0.1-0.3-0.3-0.4-0.4C192.8,113.9,193,114,193.1,114.2z"/>
	<path class="st2" d="M273.2,203.2c-0.1-0.2-0.1-0.4-0.2-0.5C273.1,202.8,273.2,203,273.2,203.2z"/>
	<path class="st2" d="M270.9,200.4c0.2,0.1,0.4,0.2,0.5,0.3C271.3,200.6,271.1,200.5,270.9,200.4z"/>
	<path class="st2" d="M272,201.1c0.3,0.3,0.5,0.6,0.7,0.9C272.5,201.7,272.2,201.4,272,201.1z"/>
	<path class="st2" d="M271.5,200.7c0.2,0.1,0.3,0.2,0.4,0.4C271.8,201,271.6,200.8,271.5,200.7z"/>
	<path class="st2" d="M273,202.6c-0.1-0.2-0.1-0.3-0.2-0.4C272.9,202.3,272.9,202.4,273,202.6z"/>
	<path class="st2" d="M273.4,203.8c0-0.2-0.1-0.3-0.1-0.5C273.3,203.5,273.3,203.6,273.4,203.8z"/>
	<path class="st2" d="M413.9,178.2h-26.8c1.3-0.9,2-2.3,2-3.8v-12.3c0-2.6-2.1-4.7-4.7-4.7c0,0,0,0,0,0h-30.9
		c1.9-0.6,3.2-2.4,3.2-4.4v-12.3c0-1.5-0.7-3-2-3.8h29.6c2.6,0,4.7-2.1,4.7-4.7c0,0,0,0,0,0v-12.3c0-2.6-2.1-4.7-4.7-4.7
		c0,0,0,0,0,0h-33c1.9-0.6,3.2-2.4,3.2-4.4V98.4c0-1.5-0.7-3-2-3.8h31.7c2.6,0,4.7-2.1,4.7-4.7c0,0,0,0,0,0V77.6
		c0-2.6-2.1-4.7-4.7-4.7c0,0,0,0,0,0h-16.6c1.9-0.6,3.2-2.4,3.2-4.4V56.2c0-2.6-2.1-4.7-4.7-4.7c0,0,0,0,0,0h-45
		c-2.6,0-4.7,2.1-4.7,4.7c0,0,0,0,0,0c0-2.6-2.1-4.7-4.7-4.7c0,0,0,0,0,0h-45c-1.8,0-3.5,1.1-4.2,2.7c0.1,0.3,0.1,0.6,0.1,0.9v12.3
		c0,0.7-0.1,1.3-0.4,2c0.2,1.1,0.8,2,1.6,2.7h11.6c1.1,0,2.1,0.4,3,1.1h5c-1.9,0.6-3.2,2.4-3.2,4.4c0-0.3,0-0.6-0.1-0.9c0,0,0,0,0,0
		v12.3c0,0.4-0.1,0.8-0.2,1.2c0.1,0.1,0.1,0.2,0.2,0.3c0-0.2,0-0.4,0-0.6c0,0.3,0,0.5,0.1,0.8c0.1,0.1,0.1,0.3,0.1,0.5
		c0.3,1,0.9,1.9,1.8,2.6h-4c0,0,0.1-0.1,0.1-0.1c-0.4,0-0.7,0-1.1,0c-0.1,0-0.3,0-0.4-0.1c-0.4,0.1-0.9,0.2-1.3,0.2L248,94.6
		c-1.3,0.9-2,2.3-2,3.8v12.3c0,2,1.3,3.8,3.2,4.4l26.4,0.2c0.5,0,0.9,0.1,1.4,0.2c0.3,0,0.6,0.1,0.9,0.2c0,0,0,0,0.1,0
		c-0.3-0.1-0.5-0.3-0.8-0.3h6.5c-1.9,0.6-3.2,2.4-3.2,4.4c0-0.3,0-0.5-0.1-0.8c0,0-0.1,0.1-0.1,0.1c0.1,0.3,0.1,0.6,0.1,0.9v12.3
		c0,0.6,0.1,0.4,0.1-0.2c0,1.5,0.7,3,2,3.8l16.5,0.5c0.6,0,1.1,0.1,1.7,0.3h4c-0.7,0.5-1.3,1.2-1.6,2c0.4,0.7,0.7,1.5,0.7,2.4v12.3
		c0,0.6-0.1,1.3-0.4,1.9c0.6,1,1.5,1.7,2.6,2h-4.3c-0.8,0.5-1.6,0.7-2.5,0.7h-16.3c-1.3,0.9-2.1,2.3-2.1,3.9
		c0-1.6-0.6,14.6-0.6,14.6c0,1.5,25.4,2.1,25.4,2.1c0.6,0,1.3,0.1,1.9,0.4c0.3-0.1,0.5-0.1,0.8-0.1c0,0,0,0,0,0h4
		c-1.3,0.9-2,2.3-2,3.8c0-0.2,0-0.4-0.1-0.7c0,0.1,0,0.1-0.1,0.1c0.1,0.3,0.1,0.7,0.1,1v11.8c0,2.6,2.1,4.7,4.7,4.7c0,0,0,0,0,0
		h-7.2c-0.7,0.3-1.4,0.5-2.2,0.5h-29.2c-1.5,0.8-2.5,2.4-2.5,4.1v12.3c0,2.6,2.1,4.7,4.7,4.7h0h45c2.6,0,4.7-2.1,4.7-4.7
		c0,0,0,0,0,0c0,2.6,2.1,4.7,4.7,4.7c0,0,0,0,0,0h45c2.6,0,4.7-2.1,4.7-4.7c0,0,0,0,0,0v-12.3c0-2.6-2.1-4.7-4.7-4.7c0,0,0,0,0,0
		h36.4c2.6,0,4.7-2.1,4.7-4.7c0,0,0,0,0,0v-12.3C418.6,180.3,416.5,178.2,413.9,178.2C413.9,178.2,413.9,178.2,413.9,178.2z
		 M302.4,94.6c-1.3,0.9-2,2.3-2,3.8c0-1.5-0.7-3-2-3.8H302.4z M297.1,115.2c1.9-0.6,3.2-2.4,3.2-4.4c0,2,1.3,3.8,3.2,4.4H297.1z
		 M313.5,73c1.9-0.6,3.2-2.4,3.2-4.4c0,2,1.3,3.8,3.2,4.4H313.5z M327.8,204.5c0-2.6-2.1-4.7-4.7-4.7c0,0,0,0,0,0h9.3
		C329.9,199.9,327.8,202,327.8,204.5C327.8,204.5,327.8,204.5,327.8,204.5z M332.7,178.2c1.3-0.9,2-2.3,2-3.8c0,1.5,0.7,3,2,3.8
		H332.7z M334.7,162.1c0-2-1.3-3.8-3.2-4.4h6.5C336.1,158.3,334.7,160.1,334.7,162.1z M332.7,136c1.3-0.9,2-2.3,2-3.8
		c0,1.5,0.7,3,2,3.8H332.7z M334.7,119.9c0-2-1.3-3.8-3.2-4.4h6.5C336.1,116,334.7,117.8,334.7,119.9L334.7,119.9z M332.7,93.8
		c1.3-0.9,2-2.3,2-3.8c0,1.5,0.7,3,2,3.8H332.7z M334.7,77.6c0-2-1.3-3.8-3.2-4.4h6.5C336.1,73.8,334.7,75.6,334.7,77.6z
		 M366.2,179.1c-1.3,0.9-2,2.3-2,3.8c0-1.5-0.7-3-2-3.8H366.2z M359.5,199.9c2.6,0,4.7-2.1,4.7-4.7c0,0,0,0,0,0
		c0,2.6,2.1,4.7,4.7,4.7c0,0,0,0,0,0H359.5z"/>
	<path class="st2" d="M280.4,174.4"/>
	<path class="st2" d="M273.4,204.5c0-0.2,0-0.4,0-0.6C273.4,204.1,273.4,204.3,273.4,204.5z"/>
	<path class="st2" d="M246,110.8c0,0.1,0,0.3,0,0.4C246,111.1,246,110.9,246,110.8z"/>
	<path class="st2" d="M191.7,111.5c0,0.2,0.1,0.4,0.1,0.6C191.7,111.8,191.7,111.6,191.7,111.5z"/>
	<path class="st2" d="M139.5,139c-0.1-0.1-0.1-0.1-0.2-0.2c-0.1-0.1-0.1-0.3-0.1-0.4c0,0.3,0,0.6,0,1c0.1,0.4,0.2,0.9,0.2,1.4
		c0-0.5,0.1-0.9,0.2-1.3C139.5,139.2,139.5,139.1,139.5,139C139.5,139,139.5,139,139.5,139z"/>
	<path class="st2" d="M203.3,51.6h-45c-2.6,0-4.7,2.1-4.7,4.7c0,0,0,0,0,0c0-2.6-2.1-4.7-4.7-4.7c0,0,0,0,0,0h-45
		c-2.6,0-4.7,2.1-4.7,4.7c0,0,0,0,0,0v12.3c0,2,1.3,3.8,3.2,4.4H67.6c-2.6,0-4.7,2.1-4.7,4.7c0,0,0,0,0,0V90c0,1.5,0.7,3,2,3.8H33.2
		c-2.6,0-4.7,2.1-4.7,4.7c0,0,0,0,0,0v12.3c0,2.6,2.1,4.7,4.7,4.7c0,0,0,0,0,0h33c-1.9,0.6-3.2,2.4-3.2,4.4v12.3c0,1.5,0.7,3,2,3.8
		H35.3c-2.6,0-4.7,2.1-4.7,4.7c0,0,0,0,0,0V153c0,2.6,2.1,4.7,4.7,4.7c0,0,0,0,0,0h30.9c-1.9,0.6-3.2,2.4-3.2,4.4v12.3
		c0,2.6,2.1,4.7,4.7,4.7l0,0h26.8c-1.3,0.9-2,2.3-2,3.8v12.3c0,2.6,2.1,4.7,4.7,4.7H60.6c-2.6,0-4.7,2.1-4.7,4.7c0,0,0,0,0,0v12.3
		c0,2.6,2.1,4.7,4.7,4.7c0,0,0,0,0,0h45c2.6,0,4.7-2.1,4.7-4.7v0c0,2.6,2.1,4.7,4.7,4.7c0,0,0,0,0,0h45c2.6,0,4.7-2.1,4.7-4.7v0
		v-12.3c0-1.7-1-3.3-2.5-4.1h-9.7c-0.7,0-1.5-0.2-2.2-0.5h-8.2c2.6,0,4.7-2.1,4.7-4.7l0,0c0,2,1.1-11.8,1.1-11.8
		c0-2.6,2.1-4.7,4.7-4.7c0,0,0,0,0,0l17.2-0.5c0.5-0.3,0.9-0.8,1.2-1.3c-0.2-0.6-0.4-1.2-0.4-1.8v-12.3c0-0.9,0.3-1.8,0.8-2.6
		c-0.4-0.9-1-1.6-1.8-2.1h-24.4c-0.9,0-1.8-0.3-2.5-0.7h-6.4c1.9-0.6,3.2-2.4,3.2-4.4l-0.2-12.2c0-0.6,0-1-0.1-1.5
		c-0.3-1-0.9-1.9-1.8-2.5h4c0,0-0.1,0-0.1,0.1c2.3-0.1,28.3-1.7,30.4-3.4c-0.1-0.3-0.1-0.7,0-1c0-0.2-0.1-0.5-0.1-0.7v-12.3
		c0-0.2,0-0.3,0-0.5c-0.3-1.7-1.5-3.2-3.2-3.7h5.7c0.7-0.3,1.4-0.5,2.2-0.5h12.9c1.5-0.8,2.5-2.4,2.5-4.1V98.4c0-1.5-0.7-3-2-3.8
		l-13.4-0.8c-2.3,0-3.8-0.8-2.6,0h-4c1.2-0.9,2-2.3,2-3.8c-0.1-0.3-0.1-0.6-0.1-0.9V76.8c0,0,0,0,0,0c-0.3-1.7-1.5-3.1-3.2-3.6h4.9
		c0.8-0.7,1.9-1.1,3-1.1h30c1.1-0.9,1.7-2.2,1.7-3.6V56.2C208,53.7,205.9,51.6,203.3,51.6L203.3,51.6z M84.9,94.6
		c-1.3,0.9-2,2.3-2,3.8c0-1.5-0.7-3-2-3.8H84.9z M82.9,110.8c0,2,1.3,3.8,3.2,4.4h-6.5C81.6,114.6,82.9,112.8,82.9,110.8z M87,136.8
		c-1.3,0.9-2,2.3-2,3.8c0-1.5-0.7-3-2-3.8H87z M81.8,157.4c1.9-0.6,3.2-2.4,3.2-4.4c0,2,1.3,3.8,3.2,4.4H81.8z M139.3,94.6
		c-1.3,0.9-2,2.3-2,3.8c0-1.5-0.7-3-2-3.8H139.3z M110.3,204.5c0-2.6-2.1-4.7-4.7-4.7c0,0,0,0,0,0h9.3
		C112.4,199.9,110.3,202,110.3,204.5C110.3,204.5,110.3,204.5,110.3,204.5z M115.3,178.2c1.3-0.9,2-2.3,2-3.8c0,1.5,0.7,3,2,3.8
		H115.3z M117.3,162.1c0-2-1.3-3.8-3.2-4.4h6.5C118.6,158.3,117.3,160.1,117.3,162.1L117.3,162.1z M115.3,136c1.3-0.9,2-2.3,2-3.8
		c0,1.5,0.7,3,2,3.8H115.3z M117.3,119.9c0-2-1.3-3.8-3.2-4.4h6.5C118.6,116,117.3,117.8,117.3,119.9L117.3,119.9z M115.3,93.8
		c1.3-0.9,2-2.3,2-3.8c0,1.5,0.7,3,2,3.8H115.3z M117.3,77.6c0-2-1.3-3.8-3.2-4.4h6.5C118.6,73.8,117.3,75.6,117.3,77.6L117.3,77.6z
		 M134,115.2c1.9-0.6,3.2-2.4,3.2-4.4c0,2,1.3,3.8,3.2,4.4H134z M150.4,73c1.9-0.6,3.2-2.4,3.2-4.4c0,2,1.3,3.8,3.2,4.4H150.4z"/>
	<path class="st2" d="M193.2,95C193.2,95,193.2,95,193.2,95C193.2,95,193.2,95,193.2,95z"/>
	<path class="st2" d="M192.8,95.3C192.8,95.3,192.8,95.4,192.8,95.3C192.8,95.4,192.8,95.3,192.8,95.3z"/>
	<path class="st2" d="M192.5,95.8C192.5,95.8,192.5,95.8,192.5,95.8C192.5,95.8,192.5,95.8,192.5,95.8z"/>
	<path class="st2" d="M191.8,112.1c0.1,0.2,0.1,0.4,0.2,0.5C191.9,112.5,191.9,112.3,191.8,112.1z"/>
	<path class="st2" d="M192.3,113.2c0.1,0.2,0.2,0.3,0.3,0.5C192.5,113.5,192.4,113.4,192.3,113.2z"/>
	<path class="st2" d="M192,112.7c0.1,0.2,0.2,0.4,0.3,0.5C192.2,113,192.1,112.9,192,112.7z"/>
	<path class="st2" d="M191.8,97.4c0-0.1,0-0.1,0-0.2C191.8,97.3,191.8,97.3,191.8,97.4z"/>
	<path class="st2" d="M191.9,96.9c0,0,0-0.1,0.1-0.1C191.9,96.8,191.9,96.8,191.9,96.9z"/>
	<path class="st2" d="M191.7,97.9c0-0.1,0-0.1,0-0.2C191.7,97.8,191.7,97.9,191.7,97.9z"/>
	<path class="st2" d="M192.2,96.3C192.2,96.3,192.2,96.3,192.2,96.3C192.2,96.3,192.2,96.3,192.2,96.3z"/>
	<path class="st3" d="M150.4,73.2h-46.9c-2.1,0-3.7-1.7-3.7-3.7V55.3c0-2.1,1.7-3.7,3.7-3.7h46.9c2.1,0,3.7,1.7,3.7,3.7v14.2
		C154.2,71.5,152.5,73.2,150.4,73.2z"/>
	<path class="st3" d="M313,73.2h-46.9c-2.1,0-3.7-1.7-3.7-3.7V55.3c0-2.1,1.7-3.7,3.7-3.7H313c2.1,0,3.7,1.7,3.7,3.7v14.2
		C316.7,71.5,315,73.2,313,73.2z"/>
	<path class="st3" d="M385.3,94.3h-46.9c-2.1,0-3.7-1.7-3.7-3.7V76.4c0-2.1,1.7-3.7,3.7-3.7h46.9c2.1,0,3.7,1.7,3.7,3.7v14.2
		C389,92.6,387.4,94.3,385.3,94.3z"/>
	<path class="st3" d="M296.6,115.4h-46.9c-2.1,0-3.7-1.7-3.7-3.7V97.5c0-2.1,1.7-3.7,3.7-3.7h46.9c2.1,0,3.7,1.7,3.7,3.7v14.2
		C300.3,113.8,298.7,115.4,296.6,115.4z"/>
	<path class="st3" d="M385.3,137.1h-46.9c-2.1,0-3.7-1.7-3.7-3.7v-14.2c0-2.1,1.7-3.7,3.7-3.7h46.9c2.1,0,3.7,1.7,3.7,3.7v14.2
		C389,135.4,387.4,137.1,385.3,137.1z"/>
	<path class="st3" d="M385.3,179.3h-46.9c-2.1,0-3.7-1.7-3.7-3.7v-14.2c0-2.1,1.7-3.7,3.7-3.7h46.9c2.1,0,3.7,1.7,3.7,3.7v14.2
		C389,177.6,387.4,179.3,385.3,179.3z"/>
	<path class="st3" d="M360.8,178.8h-47.6c-1.5,0-2.8,1-3.3,2.4c0,0.2,0,0.4,0,0.6c0,0.1-0.1,0.2-0.1,0.3c0,0,0,0,0,0.1V197
		c0,1.9,1.5,3.4,3.4,3.4h47.6c1.9,0,3.4-1.5,3.4-3.4v-14.8C364.2,180.3,362.7,178.8,360.8,178.8L360.8,178.8z"/>
	<path class="st3" d="M324.1,221.5h-46.9c-2.1,0-3.7-1.7-3.7-3.7v-14.2c0-2.1,1.7-3.7,3.7-3.7h46.9c2.1,0,3.7,1.7,3.7,3.7v14.2
		C327.8,219.8,326.1,221.5,324.1,221.5z"/>
	<path class="st3" d="M167.8,94.3h-46.9c-2.1,0-3.7-1.7-3.7-3.7V76.4c0-2.1,1.7-3.7,3.7-3.7h46.9c2.1,0,3.7,1.7,3.7,3.7v14.2
		C171.6,92.6,169.9,94.3,167.8,94.3z"/>
	<path class="st3" d="M134.1,115.4H87.2c-2.1,0-3.7-1.7-3.7-3.7V97.5c0-2.1,1.7-3.7,3.7-3.7h46.9c2.1,0,3.7,1.7,3.7,3.7v14.2
		C137.8,113.8,136.1,115.4,134.1,115.4z"/>
	<path class="st3" d="M113.5,137.1H66.6c-2.1,0-3.7-1.7-3.7-3.7v-14.2c0-2.1,1.7-3.7,3.7-3.7h46.9c2.1,0,3.7,1.7,3.7,3.7v14.2
		C117.2,135.4,115.5,137.1,113.5,137.1z"/>
	<path class="st3" d="M135.6,158.2H88.7c-2.1,0-3.7-1.7-3.7-3.7v-14.2c0-2.1,1.7-3.7,3.7-3.7h46.9c2.1,0,3.7,1.7,3.7,3.7v14.2
		C139.4,156.5,137.7,158.2,135.6,158.2z"/>
	<path class="st3" d="M113.5,179.3H66.6c-2.1,0-3.7-1.7-3.7-3.7v-14.2c0-2.1,1.7-3.7,3.7-3.7h46.9c2.1,0,3.7,1.7,3.7,3.7v14.2
		C117.2,177.6,115.5,179.3,113.5,179.3z"/>
	<path class="st2" d="M88.9,200.4H42c-2.1,0-3.7-1.7-3.7-3.7v-14.2c0-2.1,1.7-3.7,3.7-3.7h46.9c2.1,0,3.7,1.7,3.7,3.7v14.2
		C92.6,198.8,90.9,200.4,88.9,200.4z"/>
	<path class="st2" d="M406.3,158.2h-46.9c-2.1,0-3.7-1.7-3.7-3.7v-14.2c0-2.1,1.7-3.7,3.7-3.7h46.9c2.1,0,3.7,1.7,3.7,3.7v14.2
		C410,156.5,408.4,158.2,406.3,158.2z"/>
	<path class="st2" d="M404,115.5h-46.9c-2.1,0-3.7-1.7-3.7-3.7V97.6c0-2.1,1.7-3.7,3.7-3.7H404c2.1,0,3.7,1.7,3.7,3.7v14.2
		C407.7,113.8,406,115.5,404,115.5z"/>
	<path class="st2" d="M431.3,221.2h-46.9c-2.1,0-3.7-1.7-3.7-3.7v-14.2c0-2.1,1.7-3.7,3.7-3.7h46.9c2.1,0,3.7,1.7,3.7,3.7v14.2
		C435,219.5,433.3,221.2,431.3,221.2z"/>
	<path class="st2" d="M52.4,221.6H5.5c-2.1,0-3.7-1.7-3.7-3.7v-14.2c0-2.1,1.7-3.7,3.7-3.7h46.9c2.1,0,3.7,1.7,3.7,3.7v14.2
		C56.1,219.9,54.4,221.6,52.4,221.6z"/>
	<path class="st2" d="M59.7,178.9H12.8c-2.1,0-3.7-1.7-3.7-3.7V161c0-2.1,1.7-3.7,3.7-3.7h46.9c2.1,0,3.7,1.7,3.7,3.7v14.2
		C63.4,177.2,61.7,178.9,59.7,178.9z"/>
	<path class="st2" d="M59.7,137H12.8c-2.1,0-3.7-1.7-3.7-3.7v-14.2c0-2.1,1.7-3.7,3.7-3.7h46.9c2.1,0,3.7,1.7,3.7,3.7v14.2
		C63.4,135.3,61.7,137,59.7,137z"/>
	<path class="st2" d="M61.6,94.4H14.7c-2.1,0-3.7-1.7-3.7-3.7V76.4c0-2.1,1.7-3.7,3.7-3.7h46.9c2.1,0,3.7,1.7,3.7,3.7v14.2
		C65.3,92.7,63.7,94.4,61.6,94.4z"/>
	<path class="st3" d="M61.6,94.4H14.7c-2.1,0-3.7-1.7-3.7-3.7V76.4c0-2.1,1.7-3.7,3.7-3.7h46.9c2.1,0,3.7,1.7,3.7,3.7v14.2
		C65.3,92.7,63.7,94.4,61.6,94.4z"/>
	<path class="st2" d="M96.2,73.2H49.3c-2.1,0-3.7-1.7-3.7-3.7V55.3c0-2.1,1.7-3.7,3.7-3.7h46.9c2.1,0,3.7,1.7,3.7,3.7v14.2
		C99.9,71.6,98.2,73.2,96.2,73.2z"/>
	<path class="st3" d="M143.6,200.4H96.7c-2.1,0-3.7-1.7-3.7-3.7v-14.2c0-2.1,1.7-3.7,3.7-3.7h46.9c2.1,0,3.7,1.7,3.7,3.7v14.2
		C147.3,198.7,145.6,200.4,143.6,200.4z"/>
	<path class="st3" d="M106.6,221.5H59.7c-2.1,0-3.7-1.7-3.7-3.7v-14.2c0-2.1,1.7-3.7,3.7-3.7h46.9c2.1,0,3.7,1.7,3.7,3.7v14.2
		C110.3,219.8,108.7,221.5,106.6,221.5z"/>
</g>
<circle class="st4" cx="343.1" cy="13.9" r="12.2"/>
<path class="st0" d="M107.9,35.9H105c1.1,0,2-0.9,2-2c0-1.1-0.9-2-2-2c0,0,0,0,0,0H81.5c-1.1,0-2,0.9-2,2c0,1.1,0.9,2,2,2
	c0,0,0,0,0,0h2.9c-1.1,0-2,0.9-2,2c0,1.1,0.9,2,2,2c0,0,0,0,0,0h-4.1c-1.1,0-2,0.9-2,2c0,1.1,0.9,2,2,2h23.5c1.1,0,2-0.9,2-2
	c0-1.1-0.9-2-2-2h4.1c1.1,0,2-0.9,2-2C109.9,36.8,109,35.9,107.9,35.9z"/>
<path class="st0" d="M341.5,12.4h-2.2c0.9,0,1.5-0.7,1.5-1.5s-0.7-1.5-1.5-1.5h-17.9c-0.9,0-1.5,0.7-1.5,1.5s0.7,1.5,1.5,1.5h2.2
	c-0.9,0-1.5,0.7-1.5,1.5c0,0.9,0.7,1.5,1.5,1.5h-3.1c-0.9,0-1.5,0.7-1.5,1.5c0,0.9,0.7,1.5,1.5,1.5l0,0h17.9c0.9,0,1.5-0.7,1.5-1.5
	c0-0.9-0.7-1.5-1.5-1.5h3.1c0.9,0,1.5-0.7,1.5-1.5C343.1,13.1,342.4,12.4,341.5,12.4L341.5,12.4z"/>
<path class="st0" d="M163.5,7.3h-2.9c1.1,0,2-0.9,2-2c0-1.1-0.9-2-2-2c0,0,0,0,0,0h-23.5c-1.1,0-2,0.9-2,2c0,1.1,0.9,2,2,2
	c0,0,0,0,0,0h2.9c-1.1,0-2,0.9-2,2c0,1.1,0.9,2,2,2c0,0,0,0,0,0h-4.1c-1.1,0-2,0.9-2,2c0,1.1,0.9,2,2,2h23.5c1.1,0,2-0.9,2-2
	c0-1.1-0.9-2-2-2h4.1c1.1,0,2-0.9,2-2C165.5,8.2,164.6,7.3,163.5,7.3z"/>
<path class="st2" d="M166.4,113.2h86.8c3,0,5.5,2.4,5.5,5.5v34.4c0,3-2.4,5.5-5.5,5.5h-86.8c-3,0-5.5-2.4-5.5-5.5v-34.4
	C160.9,115.6,163.4,113.2,166.4,113.2z"/>
<rect x="168.7" y="151.6" class="st3" width="82.2" height="0.8"/>
<rect x="168.7" y="120.3" class="st5" width="82.2" height="31.2"/>
<circle class="st3" cx="187.8" cy="136.5" r="11.3"/>
<circle class="st3" cx="231.8" cy="136.5" r="11.3"/>
<rect x="201.3" y="158.5" class="st2" width="17" height="9.9"/>
<rect x="174.4" y="165.6" class="st2" width="70.8" height="56.7"/>
<rect x="173" y="233.6" class="st2" width="73.7" height="7.1"/>
<polygon class="st2" points="185,257.7 185,266.2 185,278.9 185,286 185,290.2 197.8,290.2 197.8,286 197.8,278.9 197.8,266.2 
	197.8,257.7 197.8,247.7 185,247.7 "/>
<polygon class="st2" points="223.3,247.7 223.3,257.7 223.3,266.2 223.3,278.9 223.3,286 223.3,290.2 236,290.2 236,286 236,278.9 
	236,266.2 236,257.7 236,247.7 "/>
<path class="st2" d="M164.7,178.3v13.1c-3.5,0.6-6.8,2.2-9.4,4.5c-2.5,2.3-4.4,5.1-5.6,8.2c-1.6,4-2.4,8.4-2.8,12.5
	c-0.4,5.6-0.1,11.3,0.8,16.8h-14.2c-0.6-7.8-0.4-14.5,0.4-20.3c0.9-6.5,2.5-11.8,4.5-16.1c4.1-8.6,9.9-13.3,15.1-15.8
	C159.7,178.3,164.7,178.3,164.7,178.3z"/>
<rect x="185" y="247.7" class="st5" width="12.7" height="9.9"/>
<rect x="185" y="266.2" class="st5" width="12.7" height="12.7"/>
<rect x="185" y="286" class="st5" width="12.7" height="4.2"/>
<rect x="223.3" y="247.7" class="st5" width="12.7" height="9.9"/>
<rect x="223.3" y="266.2" class="st5" width="12.7" height="12.7"/>
<rect x="223.3" y="286" class="st5" width="12.7" height="4.2"/>
<path class="st5" d="M164.7,178.3v13.1c-3.5,0.6-6.8,2.2-9.4,4.5l-1.8-14.6C159.7,178.3,164.7,178.3,164.7,178.3z"/>
<path class="st5" d="M149.7,204.2c-1.6,4-2.4,8.4-2.8,12.5l-13-3.5c0.9-6.5,2.5-11.8,4.5-16.1L149.7,204.2z"/>
<path class="st2" d="M254.9,178.3v13.1c3.5,0.6,6.8,2.2,9.4,4.5c2.5,2.3,4.4,5.1,5.6,8.2c1.6,4,2.4,8.4,2.8,12.5
	c0.4,5.6,0.1,11.3-0.8,16.8H286c0.6-7.8,0.4-14.5-0.4-20.3c-0.9-6.5-2.5-11.8-4.5-16.1c-4.1-8.6-9.9-13.3-15.1-15.8
	C259.9,178.3,254.9,178.3,254.9,178.3z"/>
<path class="st5" d="M254.9,178.3v13.1c3.5,0.6,6.8,2.2,9.4,4.5l1.8-14.6C259.9,178.3,254.9,178.3,254.9,178.3z"/>
<path class="st5" d="M269.9,204.2c1.6,4,2.4,8.4,2.8,12.5l13-3.5c-0.9-6.5-2.5-11.8-4.5-16.1L269.9,204.2z"/>
<rect x="201.3" y="158.5" class="st3" width="17" height="1.2"/>
<path class="st3" d="M246.5,175.7v23.7c-0.8-0.9-1.3-2.1-1.3-3.4v-17C245.1,177.8,245.6,176.6,246.5,175.7z"/>
<path class="st3" d="M174.6,177.3V195c-0.1,1.1-0.6,2.2-1.3,3v-23.8C174.1,175.1,174.6,176.1,174.6,177.3z"/>
<rect x="177.9" y="222.3" class="st3" width="63.7" height="0.8"/>
<rect x="176.5" y="240.7" class="st3" width="31.2" height="0.7"/>
<rect x="210.5" y="240.7" class="st3" width="31.2" height="0.7"/>
<rect x="180" y="71.2" class="st2" width="4.9" height="41.9"/>
<rect x="235.9" y="71.2" class="st2" width="4.9" height="41.9"/>
<circle class="st3" cx="182.3" cy="71.6" r="5.5"/>
<circle class="st2" cx="182.3" cy="71.2" r="5.5"/>
<circle class="st3" cx="238.5" cy="71.6" r="5.5"/>
<circle class="st2" cx="238.5" cy="71.2" r="5.5"/>
<path class="st6" d="M65.6,199.7c0,0,16.2,31.8,3,49.1s1.2,64.7,1.2,64.7"/>
<path class="st7" d="M70.4,189.9c0,6.1-4.5,11.1-4.5,11.1s-4.5-5-4.5-11.1s4.5-11.1,4.5-11.1S70.4,183.7,70.4,189.9z"/>
<path class="st8" d="M74,199.7c0,0-16.2,31.8-3,49.1s-1.2,64.7-1.2,64.7"/>
<path class="st9" d="M69.2,189.9c0,6.1,4.5,11.1,4.5,11.1s4.5-5,4.5-11.1s-4.5-11.1-4.5-11.1S69.2,183.7,69.2,189.9z"/>
<path class="st6" d="M80.5,199.7c0,0,16.2,31.8,3,49.1s1.2,64.7,1.2,64.7"/>
<path class="st7" d="M85.3,189.9c0,6.1-4.5,11.1-4.5,11.1s-4.5-5-4.5-11.1s4.5-11.1,4.5-11.1S85.3,183.7,85.3,189.9z"/>
<path class="st7" d="M82.8,215.3c-4.2,4.4-10.9,4.9-10.9,4.9s0.2-6.7,4.4-11.1c4.2-4.4,10.9-4.9,10.9-4.9S87.1,210.9,82.8,215.3z"/>
<path class="st7" d="M83.2,237.2c-4.2,4.4-10.9,4.9-10.9,4.9s0.2-6.7,4.4-11.1c4.2-4.4,10.9-4.9,10.9-4.9S87.5,232.8,83.2,237.2z"/>
<path class="st7" d="M60.2,249.3c4,4.6,3.9,11.3,3.9,11.3s-6.6-0.8-10.7-5.4c-4-4.6-3.9-11.3-3.9-11.3S56.2,244.6,60.2,249.3z"/>
<path class="st7" d="M64,202.5c5.1,3.4,6.8,9.9,6.8,9.9s-6.6,1-11.7-2.4c-5.1-3.4-6.8-9.9-6.8-9.9S58.9,199.2,64,202.5z"/>
<path class="st8" d="M88.9,199.7c0,0-16.2,31.8-3,49.1s-1.2,64.7-1.2,64.7"/>
<path class="st9" d="M84.1,189.9c0,6.1,4.5,11.1,4.5,11.1s4.5-5,4.5-11.1s-4.5-11.1-4.5-11.1S84.1,183.7,84.1,189.9z"/>
<path class="st9" d="M85.4,215.8c-4.3,4.4-4.6,11-4.6,11s6.7-0.4,11-4.7s4.6-11,4.6-11S89.7,211.4,85.4,215.8z"/>
<path class="st9" d="M93.9,246.1c-4.3,4.4-4.6,11-4.6,11s6.7-0.4,11-4.7c4.3-4.4,4.6-11,4.6-11S98.2,241.7,93.9,246.1z"/>
<path class="st8" d="M81.5,239.4c0,0,9.7-15.3,23.4-15.7"/>
<path class="st6" d="M73.9,230.2c0,0-9.7-15.3-23.4-15.7"/>
<path class="st8" d="M72.6,252.1c0,0,9.7-15.3,23.4-15.7"/>
<circle class="st9" cx="104.4" cy="223.6" r="2.5"/>
<circle class="st7" cx="50.7" cy="214.6" r="2.5"/>
<path class="st6" d="M79.8,257.1c0,0-9.7-15.3-23.4-15.7"/>
<circle class="st7" cx="56.6" cy="241.5" r="2.5"/>
<circle class="st9" cx="96.2" cy="236.5" r="2.5"/>
<path class="st10" d="M133.6,295.1c0,0-23.5-4.7-29.7-11s-34.4-17.2-37.5-9.4s-42.2,34.4-15.6,39.1c26.6,4.7,62.6,6.3,70.4,3.1
	C128.9,313.9,133.6,295.1,133.6,295.1z"/>
<path class="st11" d="M50.7,311c26.6,4.7,62.6,6.3,70.4,3.1c6-2.4,10.1-13.8,11.7-19.2c0.5,0.1,0.8,0.2,0.8,0.2s-4.7,18.8-12.5,21.9
	s-43.8,1.6-70.4-3.1c-7.7-1.4-9.9-4.5-9-8.6C42.3,308,45,310,50.7,311z"/>
<path class="st7" d="M387,205.3c0,0,5.6,7.4-2.6,18.5c-8.2,11.1-15,20.5-12.3,27.4c0,0,12.4-20.6,22.5-20.9S398.1,217.7,387,205.3z"
	/>
<path class="st3" d="M387,205.3c0.5,0.7,0.9,1.5,1.1,2.3c9.8,11.6,15.1,22.4,5.6,22.6c-8.8,0.3-19.4,16-21.9,20
	c0.1,0.3,0.2,0.6,0.3,0.9c0,0,12.4-20.6,22.5-20.9C404.8,230,398.1,217.7,387,205.3z"/>
<path class="st9" d="M397.5,214.7c0,2.6-0.3,4.7-0.6,4.7s-0.6-2.1-0.6-4.7c0-2.6,0.4-1.4,0.7-1.4
	C397.3,213.4,397.5,212.1,397.5,214.7z"/>
<path class="st9" d="M401.1,217.8c-2.3,1.2-4.3,2-4.4,1.7c-0.2-0.3,1.5-1.6,3.8-2.8s1.4-0.3,1.5,0
	C402.2,217,403.3,216.6,401.1,217.8z"/>
<path class="st7" d="M357.3,205.3c0,0-5.6,7.4,2.6,18.5c8.2,11.1,15,20.5,12.3,27.4c0,0-12.4-20.6-22.5-20.9
	S346.2,217.7,357.3,205.3z"/>
<path class="st3" d="M357.3,205.3c-0.5,0.7-0.9,1.5-1.1,2.3c-9.8,11.6-15.1,22.4-5.6,22.6c8.8,0.3,19.4,16,21.9,20
	c-0.1,0.3-0.2,0.6-0.3,0.9c0,0-12.4-20.6-22.5-20.9C339.6,230,346.2,217.7,357.3,205.3z"/>
<path class="st9" d="M346.9,214.7c0,2.6,0.3,4.7,0.6,4.7s0.6-2.1,0.6-4.7c0-2.6-0.4-1.4-0.7-1.4S346.9,212.1,346.9,214.7z"/>
<path class="st9" d="M343.3,217.8c2.3,1.2,4.3,2,4.4,1.7c0.2-0.3-1.5-1.6-3.8-2.8s-1.4-0.3-1.5,0C342.2,217,341,216.6,343.3,217.8z"
	/>
<path class="st10" d="M348.7,250.2c0,0,15.7-0.5,20.5-3.9c4.7-3.4,24.2-7.4,25.4-2c1.2,5.4,23.6,26.9,5.9,27.1
	c-17.7,0.1-41.2-2.8-46-5.6S348.7,250.2,348.7,250.2z"/>
<path class="st11" d="M400.7,269.5c-17.7,0.1-41.2-2.8-46-5.6c-3.6-2.2-5-10.1-5.5-13.7c-0.3,0-0.5,0-0.5,0s1,12.7,5.7,15.6
	c4.7,2.9,28.2,5.8,46,5.6c5.1,0,6.9-1.9,6.8-4.6C406.4,268.5,404.5,269.5,400.7,269.5z"/>
</svg>
