<?xml version="1.0" encoding="utf-8"?>
<!-- Generator: Adobe Illustrator 24.0.2, SVG Export Plug-In . SVG Version: 6.00 Build 0)  -->
<svg version="1.1" id="레이어_1" xmlns="http://www.w3.org/2000/svg" xmlns:xlink="http://www.w3.org/1999/xlink" x="0px"
	 y="0px" viewBox="0 0 366.8 53.1" style="enable-background:new 0 0 366.8 53.1;" xml:space="preserve">
<style type="text/css">
	.st0{fill:#FFFFFF;}
	.st1{opacity:0.7;fill:#FFFFFF;}
</style>
<g>
	<path class="st0" d="M67.1,41.5c-0.3,0-0.5-0.2-0.6-0.4c-0.2-0.2-0.2-0.5-0.2-0.7l3.8-23.8c0-0.2,0.1-0.7,0.3-1.3
		c0.1-0.7,0.3-1.5,0.6-2.4c0.3-0.9,0.6-1.8,1.1-2.7c0.4-1,1-1.8,1.7-2.6c0.7-0.8,1.5-1.5,2.5-2s2.1-0.8,3.4-0.8h5.5
		c1.3,0,2.4,0.3,3.4,0.8s1.8,1.1,2.5,1.9c0.7,0.8,1.2,1.7,1.7,2.7s0.8,1.9,1.1,2.7c0.3,0.9,0.4,1.6,0.6,2.3c0.1,0.7,0.2,1.1,0.2,1.4
		l3.8,23.8c0,0.2,0,0.4-0.2,0.7c-0.1,0.2-0.3,0.4-0.6,0.4l-3.8,0.6c-0.3,0-0.5,0-0.6-0.2c-0.2-0.2-0.3-0.4-0.3-0.6l-2-12H73.7
		l-1.9,12c0,0.3-0.1,0.5-0.3,0.6c-0.2,0.2-0.4,0.2-0.7,0.2L67.1,41.5z M89.3,17.4c-0.1-0.6-0.2-1.4-0.4-2.3
		c-0.2-0.9-0.5-1.7-0.8-2.5c-0.3-0.8-0.7-1.5-1.2-2c-0.5-0.6-1-0.8-1.6-0.8h-5.5c-0.6,0-1.2,0.3-1.7,0.8c-0.5,0.6-0.9,1.2-1.2,2
		c-0.3,0.8-0.6,1.6-0.8,2.5c-0.2,0.9-0.3,1.6-0.4,2.3l-1.1,6.8h15.9L89.3,17.4z"/>
	<path class="st0" d="M108.9,41.2c0,0.6-0.3,0.9-0.8,0.9h-3.8c-0.2,0-0.4-0.1-0.6-0.3c-0.2-0.2-0.3-0.4-0.3-0.6V15.8
		c0-0.7,0.3-1.3,0.8-1.9c0.5-0.6,1.2-0.9,1.9-0.9h14.2c3.3,0,5.7,0.9,7.4,2.6c1.7,1.7,2.4,4,2.4,6.7v18.8c0,0.6-0.3,0.9-0.8,0.9
		h-3.8c-0.2,0-0.4-0.1-0.6-0.3c-0.2-0.2-0.3-0.4-0.3-0.6V22.3c0-0.6-0.1-1.1-0.2-1.6c-0.1-0.5-0.4-1-0.7-1.4c-0.3-0.4-0.8-0.7-1.3-1
		c-0.4-0.2-1.1-0.4-2-0.4h-11.5V41.2z"/>
	<path class="st0" d="M144.5,42c-1.3,0-2.5-0.2-3.6-0.6c-1.1-0.4-2.1-0.9-2.9-1.6c-0.9-0.7-1.5-1.7-2-2.8s-0.7-2.4-0.7-3.8
		c0-3,0.9-5.3,2.6-6.9c1.8-1.5,4.4-2.4,7.8-2.4h11.5v-2.2c0-1.1-0.3-2-1-2.8c-0.6-0.7-1.8-1.1-3.4-1.1h-14.5c-0.3,0-0.5-0.1-0.6-0.3
		c-0.1-0.2-0.3-0.4-0.3-0.6v-3c0-0.6,0.3-0.9,0.9-0.9h14.5c3.3,0,5.7,0.8,7.4,2.3c1.6,1.6,2.4,3.7,2.4,6.5v11.5
		c0,2.7-0.8,4.9-2.4,6.4c-1.6,1.5-4.1,2.3-7.4,2.3C152.8,42.1,144.5,42.1,144.5,42z M152.7,37.2c1.6,0,2.8-0.4,3.4-1.1
		c0.6-0.7,1-1.6,1-2.7v-4.5l-11.5,0.1c-1.8,0-3.1,0.4-3.8,1.1s-1.1,1.8-1.1,3.4c0,0.7,0.1,1.4,0.3,1.8c0.2,0.4,0.5,0.9,0.9,1.2
		c0.3,0.3,0.7,0.5,1.2,0.6s0.9,0.2,1.4,0.2L152.7,37.2L152.7,37.2z"/>
	<path class="st0" d="M174,41.2c0,0.3-0.1,0.5-0.3,0.6c-0.2,0.2-0.4,0.3-0.6,0.3h-3.8c-0.6,0-0.8-0.3-0.8-0.9V0.8
		c0-0.6,0.3-0.9,0.8-0.9h3.8c0.2,0,0.4,0.1,0.6,0.3s0.3,0.4,0.3,0.6V41.2z"/>
	<path class="st0" d="M204.2,13c0.3,0,0.5,0.2,0.7,0.4c0.1,0.2,0.2,0.5,0.1,0.8l-4.4,28c-0.1,0.9-0.4,2-0.6,3.2
		c-0.3,1.2-0.7,2.4-1.4,3.6c-0.6,1.1-1.5,2.1-2.7,2.9c-1.1,0.8-2.6,1.2-4.5,1.2h-9.1c-0.3,0-0.5-0.1-0.6-0.3
		c-0.1-0.2-0.3-0.4-0.3-0.6v-3.3c0-0.6,0.3-0.9,0.9-0.9h9.1c0.6,0,1-0.2,1.4-0.5c0.4-0.4,0.7-0.8,1-1.4c0.3-0.6,0.5-1.3,0.7-2.1
		c0.2-0.8,0.4-1.6,0.5-2.5c0-0.1,0-0.2,0-0.3s0-0.2,0.1-0.3h-4.4c-2,0-3.6-0.4-4.8-1.1c-1.2-0.8-2.2-1.7-2.8-2.9
		c-0.7-1.2-1.1-2.4-1.4-3.8c-0.3-1.4-0.5-2.7-0.7-3.9v0.1c-0.3-1.6-0.5-3.2-0.8-5c-0.2-1.8-0.5-3.4-0.7-4.9
		c-0.3-1.8-0.5-3.5-0.8-5.3c0-0.3,0-0.5,0.2-0.7s0.4-0.3,0.6-0.3l3.6-0.4c0.2,0,0.4,0,0.6,0.2s0.3,0.4,0.3,0.6
		c0.3,1.7,0.5,3.5,0.8,5.3c0.2,1.5,0.5,3.2,0.7,5s0.5,3.4,0.8,5c0.2,1.3,0.4,2.4,0.6,3.4c0.2,0.9,0.5,1.7,0.8,2.3s0.7,1,1.1,1.3
		c0.5,0.3,1.1,0.4,1.8,0.4h5.3c0.2-1.3,0.5-2.7,0.7-4.3s0.5-3.2,0.8-4.8c0.3-1.6,0.5-3.3,0.8-4.8c0.2-1.6,0.5-3,0.6-4.3
		c0.2-1.3,0.3-2.3,0.4-3.1c0.1-0.8,0.2-1.3,0.2-1.4c0.1-0.2,0.2-0.4,0.4-0.6c0.2-0.1,0.4-0.2,0.6-0.2L204.2,13z"/>
	<path class="st0" d="M211.1,42c-0.7,0-1.3-0.3-1.8-0.8c-0.6-0.6-0.9-1.2-0.9-1.9v-2.5c0-1.4,0.2-2.6,0.7-3.6s1.2-1.9,2.3-2.7
		l13.4-9.6c0.6-0.7,1-1.3,1.3-1.6s0.4-0.8,0.4-1.4h-16.2c-0.2,0-0.4-0.1-0.6-0.3s-0.3-0.4-0.3-0.6v-3.1c0-0.3,0.1-0.5,0.3-0.6
		s0.4-0.3,0.6-0.3h18.8c0.7,0,1.3,0.2,1.9,0.7s0.8,1.1,0.8,1.8v3.3c0,1.4-0.3,2.5-1,3.4c-0.6,0.9-1.5,1.8-2.6,2.6l-13.7,9.6
		c-0.4,0.3-0.7,0.7-0.9,1.2c-0.1,0.5-0.2,1-0.2,1.5h18c0.6,0,0.9,0.3,0.9,0.9v3.1c0,0.6-0.3,0.9-0.9,0.9
		C231.4,42.1,211.1,42.1,211.1,42z"/>
	<path class="st0" d="M254.2,13c1.3,0,2.5,0.2,3.6,0.6c1.1,0.4,2.1,0.9,3,1.7c0.8,0.7,1.5,1.7,2,2.7c0.5,1.1,0.7,2.4,0.7,3.8
		c0,6.1-3.5,9.2-10.4,9.3h-11v2.2c0,1.1,0.3,2,1,2.7c0.6,0.7,1.8,1.1,3.5,1.1H261c0.6,0,0.9,0.3,0.9,0.9v3.1c0,0.6-0.3,0.9-0.9,0.9
		h-14.4c-3.3,0-5.8-0.8-7.4-2.3s-2.4-3.7-2.4-6.4V21.8c0-2.8,0.8-4.9,2.4-6.5c1.6-1.5,4.1-2.3,7.4-2.3C246.6,13,254.2,13,254.2,13z
		 M246.6,17.9c-1.7,0-2.8,0.4-3.5,1.1c-0.6,0.7-1,1.7-1,2.8v4.4h11c1.8,0,3.1-0.4,3.8-1.1c0.7-0.7,1.1-1.8,1.1-3.3
		c0-0.7-0.1-1.4-0.3-1.9c-0.2-0.5-0.5-0.9-0.8-1.2c-0.4-0.3-0.8-0.5-1.3-0.6c-0.5-0.1-0.9-0.2-1.4-0.2
		C254.2,17.9,246.6,17.9,246.6,17.9z"/>
	<path class="st0" d="M285.9,13c0.8,0,1.4,0.3,2,0.8c0.5,0.5,0.8,1.1,0.8,1.8v4.8c0,0.3-0.1,0.5-0.3,0.6c-0.2,0.2-0.4,0.3-0.6,0.3
		H284c-0.6,0-0.9-0.3-0.9-0.9v-2.5h-4.9c-0.8,0-1.5,0.1-2.1,0.4c-0.6,0.2-1,0.6-1.3,1c-0.4,0.4-0.6,0.9-0.8,1.4
		c-0.1,0.5-0.2,1.1-0.2,1.6v18.8c0,0.6-0.3,0.9-0.8,0.9h-3.8c-0.2,0-0.4-0.1-0.6-0.3c-0.2-0.2-0.3-0.4-0.3-0.6V22.3
		c0-2.7,0.8-5,2.4-6.7c1.6-1.7,4.1-2.6,7.4-2.6H285.9z"/>
	<path class="st0" d="M307.8,3.7c1.2,0,2.4,0.1,3.6,0.4c1.2,0.2,2.4,0.7,3.4,1.3s1.8,1.5,2.5,2.7c0.6,1.1,1,2.6,1,4.4v3.3
		c0,1.3-0.3,2.5-0.8,3.6c-0.5,1-1.2,1.9-1.9,2.7c1,0.6,1.8,1.3,2.4,2.3c0.6,1,0.9,2.3,0.9,4v4.9c0,1.8-0.3,3.3-1,4.4
		c-0.6,1.1-1.5,2-2.5,2.7c-1,0.6-2.1,1.1-3.4,1.3c-1.2,0.2-2.4,0.4-3.6,0.4h-15.5c-0.6,0-0.9-0.3-0.9-0.9v-3.1
		c0-0.6,0.3-0.9,0.9-0.9h15.4c1,0,1.9-0.1,2.5-0.3c0.7-0.2,1.2-0.4,1.5-0.8c0.3-0.3,0.6-0.7,0.7-1.2c0.1-0.5,0.2-1,0.2-1.6v-4.9
		c0-0.7-0.2-1.4-0.5-1.9c-0.3-0.5-0.7-0.9-1.1-1.2c-0.5-0.3-1-0.5-1.5-0.6s-0.9-0.2-1.3-0.2h-9c-0.3,0-0.5-0.1-0.6-0.3
		c-0.2-0.2-0.3-0.4-0.3-0.6v-3.2c0-0.6,0.3-0.9,0.9-0.9h9c0.3,0,0.7-0.1,1.2-0.2s0.9-0.3,1.3-0.6c0.4-0.3,0.7-0.6,1-1.1
		c0.3-0.5,0.4-1.1,0.4-1.9v-3.3c0-0.6-0.1-1.1-0.2-1.6s-0.3-0.9-0.7-1.2s-0.9-0.6-1.5-0.8c-0.7-0.2-1.5-0.3-2.5-0.3h-14.5
		c-0.2,0-0.4-0.1-0.6-0.3s-0.3-0.4-0.3-0.6v-3c0-0.3,0.1-0.5,0.3-0.6c0.2-0.1,0.4-0.3,0.6-0.3H307.8z"/>
	<path class="st0" d="M330.6,39.3c0,1.1-0.3,2-1,2.7c-0.7,0.7-1.6,1.1-2.8,1.1c-1.2,0-2.1-0.4-2.8-1.1s-1-1.6-1-2.7
		c0-1.1,0.3-2,1-2.7c0.7-0.7,1.6-1.1,2.8-1.1c1.2,0,2.1,0.4,2.8,1.1C330.3,37.3,330.6,38.3,330.6,39.3z"/>
	<path class="st0" d="M355,3.7c2,0,3.7,0.2,4.9,0.6c1.3,0.4,2.3,1,3,1.8s1.2,1.7,1.5,2.9c0.3,1.1,0.4,2.5,0.4,4v19.9
		c0,1.7-0.2,3.1-0.5,4.3c-0.3,1.2-0.9,2.1-1.6,2.9c-0.8,0.7-1.8,1.2-3.1,1.5c-1.3,0.3-2.8,0.5-4.7,0.5h-9.3c-1.9,0-3.4-0.2-4.7-0.5
		c-1.3-0.3-2.3-0.8-3-1.5c-0.7-0.7-1.3-1.7-1.6-2.9c-0.3-1.2-0.5-2.6-0.5-4.3v-20c0-1.5,0.1-2.8,0.4-4c0.3-1.1,0.8-2.1,1.5-2.9
		s1.7-1.4,3-1.8c1.3-0.4,2.9-0.6,4.9-0.6L355,3.7L355,3.7z M359.4,13c0-1.5-0.3-2.5-0.8-3.3c-0.5-0.7-1.7-1.1-3.6-1.1h-9.3
		c-1,0-1.7,0.1-2.3,0.3s-1,0.4-1.3,0.8c-0.3,0.4-0.5,0.8-0.6,1.4c-0.1,0.6-0.1,1.2-0.1,1.9v19.7c0,1.5,0.3,2.6,0.8,3.3
		c0.6,0.7,1.7,1.1,3.5,1.1h9.3c1,0,1.7-0.1,2.3-0.3c0.6-0.2,1-0.4,1.4-0.8c0.3-0.4,0.5-0.8,0.6-1.4c0.1-0.5,0.1-1.2,0.1-1.9V13z"/>
</g>
<g>
	<polygon class="st1" points="2.3,20.3 5.6,42.7 12.8,44.3 17.5,36.3 6,42.3 	"/>
	<polygon class="st1" points="37.9,1.6 3.2,3.6 32.6,10.6 	"/>
	<polygon class="st0" points="3.2,3.6 2,7.6 3.1,4 	"/>
	<polygon class="st1" points="39.5,12.3 32.6,10.6 17.5,36.3 35.3,27.1 	"/>
	<polygon class="st0" points="3.2,3.6 3.1,4 4.5,3.9 	"/>
	<polygon class="st0" points="2,7.6 0.8,11.2 2.3,20.3 1.1,11.5 	"/>
	<polygon class="st0" points="4.5,3.9 3.2,3.6 2,7.6 0.8,11.2 2.3,20.3 5.6,42.7 17.5,36.3 32.6,10.6 	"/>
</g>
</svg>
