<?xml version="1.0" encoding="utf-8"?>
<!-- Generator: Adobe Illustrator 25.2.1, SVG Export Plug-In . SVG Version: 6.00 Build 0)  -->
<svg version="1.1" id="레이어_1" xmlns="http://www.w3.org/2000/svg" xmlns:xlink="http://www.w3.org/1999/xlink" x="0px"
	 y="0px" viewBox="0 0 243.1 51.5" style="enable-background:new 0 0 243.1 51.5;" xml:space="preserve">
<style type="text/css">
	.st0{fill:#FFFFFF;}
</style>
<path class="st0" d="M72.4,32.3c0-6,4.2-9.5,8.8-9.5s8.8,3.5,8.8,9.5s-4.2,9.5-8.8,9.5S72.4,38.3,72.4,32.3z M84.6,32.3
	c0-3.1-1.1-5.2-3.3-5.2s-3.3,2-3.3,5.2s1.1,5.1,3.3,5.1S84.6,35.4,84.6,32.3z"/>
<path class="st0" d="M95.8,46.6l0.3-1.1c0.2-0.7,0.8-1.2,1.6-1.2l0,0c1.5,0.1,2.8-0.9,3.2-2.4l0.1-0.5c0.1-0.3,0.1-0.6,0-1l-6-15.1
	c-0.3-0.8,0.1-1.6,0.9-1.9c0.2-0.1,0.3-0.1,0.5-0.1h2.1c0.6,0,1.2,0.4,1.4,1L102,31c0.5,1.6,1,3.4,1.4,5.1h0.1
	c0.4-1.7,0.8-3.4,1.3-5.1l1.9-6.7c0.2-0.6,0.8-1.1,1.4-1.1h1.9c0.8,0,1.5,0.7,1.5,1.5c0,0.2,0,0.3-0.1,0.5l-5.6,16.3
	c-1.7,4.5-3.6,6.9-7.9,6.9c-0.4,0-0.7,0-1,0c-0.8-0.1-1.4-0.8-1.3-1.6C95.7,46.8,95.7,46.7,95.8,46.6z"/>
<path class="st0" d="M125.9,38.3L125.9,38.3c0.7-0.9,1.8-1.2,2.6-0.7c1,0.6,2.1,0.9,3.2,0.9c1.6,0,2.3-0.6,2.3-1.6
	c0-1.2-1.8-1.7-3.7-2.5c-2.2-0.9-4.8-2.3-4.8-5.3c0-3.4,2.7-5.7,6.9-5.7c1.5,0,3.1,0.4,4.5,1.1c1,0.5,1.3,1.7,0.8,2.7
	c0,0.1-0.1,0.1-0.1,0.2l-0.1,0.1c-0.6,0.8-1.7,1-2.5,0.5c-0.7-0.4-1.5-0.6-2.4-0.6c-1.4,0-2.1,0.5-2.1,1.5c0,1.1,1.7,1.6,3.6,2.3
	c2.3,0.9,4.9,2.1,4.9,5.5s-2.6,5.8-7.4,5.8c-1.8,0-3.5-0.5-5.1-1.3c-1-0.5-1.3-1.7-0.8-2.7C125.8,38.4,125.8,38.4,125.9,38.3z"/>
<path class="st0" d="M144.5,35.9v-6.1c0-0.7-0.6-1.2-1.2-1.2l0,0l0,0c-0.7,0-1.2-0.6-1.2-1.2l0,0v-1.6c0-0.6,0.5-1.2,1.1-1.2h0.6
	c0.6-0.1,1.1-0.5,1.1-1.1l0.4-2.7c0.1-0.6,0.6-1.1,1.2-1.1h2.1c0.7,0,1.2,0.6,1.2,1.2v2.3c0,0.7,0.6,1.2,1.2,1.2h1.9
	c0.7,0,1.2,0.6,1.2,1.2l0,0v1.7c0,0.7-0.5,1.2-1.2,1.2l0,0H151c-0.7,0-1.2,0.5-1.2,1.2v6c0,2,0.9,2.9,2.4,2.9c0.2,0,0.4,0,0.6,0
	c0.7-0.1,1.3,0.3,1.4,1l0.3,1.5c0.2,0.7-0.2,1.3-0.9,1.5c-0.9,0.2-1.9,0.3-2.8,0.3C146.2,43,144.5,40.1,144.5,35.9z"/>
<path class="st0" d="M220.2,35.9v-6.1c0-0.7-0.6-1.2-1.2-1.2l0,0c-0.7,0-1.2-0.6-1.2-1.2v-1.6c0-0.6,0.5-1.2,1.1-1.2h0.6
	c0.6-0.1,1.1-0.5,1.1-1.1l0.4-2.7c0.1-0.6,0.6-1.1,1.2-1.1h2.1c0.7,0,1.2,0.6,1.2,1.2v2.3c0,0.7,0.6,1.2,1.2,1.2l0,0h1.9
	c0.7,0,1.2,0.6,1.2,1.2v1.7c0,0.7-0.6,1.2-1.2,1.2h-1.9c-0.7,0-1.2,0.6-1.2,1.2l0,0v6c0,2,0.9,2.9,2.3,2.9c0.2,0,0.4,0,0.6,0
	c0.7-0.1,1.3,0.3,1.4,1l0.3,1.5c0.1,0.7-0.3,1.3-0.9,1.5c-0.9,0.2-1.9,0.3-2.9,0.3C222,43,220.2,40.1,220.2,35.9z"/>
<circle class="st0" cx="63.1" cy="21.8" r="2.7"/>
<path class="st0" d="M64.3,26.3h-1.8c-1,0-1.8,0.8-1.8,1.8l0,0v16.4c0,2-0.5,2.9-1.9,2.9c-0.9,0-1.7,0.6-1.8,1.5l-0.1,0.5
	c-0.2,0.9,0.3,1.9,1.3,2.1c0.1,0,0.2,0,0.2,0c0.4,0,0.8,0.1,1.2,0.1c4.9,0,6.5-3.3,6.5-7.3V28C66,27,65.2,26.3,64.3,26.3z"/>
<path class="st0" d="M15.5,11.6C7.6,11.6,0,17.5,0,27c0,9.7,7.2,15.3,16.6,15.3c2.9,0,5.8-0.6,8.5-1.7c1.5-0.5,2.3-2.2,1.8-3.7
	c-0.1-0.2-0.2-0.4-0.3-0.5l0,0c-0.9-1.4-2.7-2-4.3-1.4c-1.2,0.4-2.4,0.6-3.7,0.7l0,0c-1.7,0.1-3.3-0.2-4.9-0.8
	c-1.9-0.7-3.5-1.8-4.9-3.4c-0.1-0.1-0.1-0.2-0.2-0.3c-0.2-0.3-0.5-0.6-0.7-0.9c-0.5-0.9-0.8-1.9-0.9-2.9c0-0.2,0-0.3-0.1-0.5v-0.1
	c0-1,0.1-2.1,0.3-3.1c0.5-2.1,1.7-3.9,3.5-5.1c0.6-0.3,1.1-0.6,1.7-0.9c2.2-0.8,4.7-0.6,6.8,0.5h0.1h0.1c0.3,0.2,0.6,0.5,0.9,0.7
	c1.4,1.5,2.1,3.5,2.2,5.5l0,0c0,0,0,0.8-0.1,1.5c-0.1,1.1,0.4,2.1,1.2,2.8l0.2,0.1l0.1,0.1c0.4,0.3,0.9,0.4,1.4,0.5H26
	c1.8,0.1,3.3-1.2,3.5-3c0-0.3,0-0.6,0-0.9C29.4,17.7,24.8,11.6,15.5,11.6z"/>
<circle class="st0" cx="15.2" cy="25.8" r="3.5"/>
<path class="st0" d="M50.8,25.2L50.8,25.2L50.8,25.2l-0.2-0.1c-2.5-1.1-5.3-1.3-8-0.6c-0.8,0.3-1.6,0.7-2.4,1.1
	c-0.7,0.5-1.3,1.1-1.7,1.9c-0.8,1.7-1.1,3.5-1.1,5.3v8c0,1.3,1.1,2.4,2.4,2.4h0.6c1.3,0,2.4-1.1,2.4-2.4V32c0-0.7,0.3-1.4,0.9-1.9
	c0.7-0.6,1.5-1,2.5-1c1.6,0,2.2,0.8,2.2,3.4v8.2c0,1.3,1.1,2.4,2.4,2.4h0.6c1.3,0,2.4-1.1,2.4-2.4V32C53.8,28.6,52.9,26.3,50.8,25.2
	z"/>
<circle class="st0" cx="37.4" cy="21.8" r="2.7"/>
<path class="st0" d="M184.8,21.8c-5.6-0.1-10.2,4.3-10.3,9.9c0,0.1,0,0.2,0,0.3c0,6.5,4.8,10.2,11.1,10.2c1.9,0,3.9-0.4,5.7-1.1
	c1-0.4,1.5-1.6,1.1-2.6c0-0.1-0.1-0.2-0.1-0.3l0,0c-0.6-0.9-1.8-1.3-2.9-0.9c-0.8,0.3-1.6,0.4-2.5,0.5l0,0c-1.1,0.1-2.2-0.1-3.3-0.5
	c-1.3-0.5-2.4-1.2-3.2-2.2l-0.2-0.2c-0.2-0.2-0.3-0.4-0.5-0.6c-0.3-0.6-0.5-1.3-0.6-2c0-0.1,0-0.2,0-0.3v-0.1c0-0.7,0-1.4,0.2-2
	c0.3-1.4,1.2-2.6,2.3-3.4c0.4-0.2,0.8-0.4,1.1-0.6c1.5-0.5,3.1-0.4,4.5,0.3l0,0l0,0c0.2,0.1,0.4,0.3,0.6,0.5c0.9,1,1.4,2.3,1.4,3.7
	l0,0c0,0,0,0.5,0,1c0,0.7,0.3,1.4,0.8,1.9l0.1,0.1l0,0c0.3,0.2,0.6,0.3,0.9,0.3h0.5c1.2,0.1,2.2-0.8,2.3-2c0-0.2,0-0.4,0-0.6
	C194.1,25.8,191.1,21.8,184.8,21.8z"/>
<circle class="st0" cx="184.9" cy="30.3" r="2.7"/>
<path class="st0" d="M206.4,21.8c-5.6-0.1-10.2,4.3-10.3,9.9c0,0.1,0,0.2,0,0.3c0,6.5,4.8,10.2,11.1,10.2c1.9,0,3.9-0.4,5.7-1.1
	c1-0.4,1.5-1.6,1.1-2.6c0-0.1-0.1-0.2-0.1-0.3l0,0c-0.6-0.9-1.8-1.3-2.9-0.9c-0.8,0.3-1.6,0.4-2.5,0.5l0,0c-1.1,0.1-2.2-0.1-3.3-0.5
	c-1.3-0.5-2.4-1.2-3.2-2.2l-0.2-0.2c-0.2-0.2-0.3-0.4-0.5-0.6c-0.3-0.6-0.5-1.3-0.6-2V32v-0.1c0-0.7,0-1.4,0.2-2
	c0.3-1.4,1.2-2.6,2.3-3.4c0.4-0.2,0.8-0.4,1.2-0.6c1.5-0.5,3.1-0.4,4.5,0.3l0,0l0,0c0.2,0.1,0.4,0.3,0.6,0.5c0.9,1,1.4,2.3,1.4,3.7
	l0,0c0,0,0,0.5,0,1c0,0.7,0.3,1.4,0.8,1.9l0.1,0.1h0.1c0.3,0.2,0.6,0.3,0.9,0.3h0.5c1.2,0.1,2.2-0.8,2.3-2c0-0.2,0-0.4,0-0.6
	C215.8,25.8,212.7,21.8,206.4,21.8z"/>
<circle class="st0" cx="206.6" cy="30.3" r="2.7"/>
<path class="st0" d="M170.3,24.4L170.3,24.4c-2-0.1-4,0.4-5.6,1.5c-2,1.4-3.5,3.5-4.1,5.9c-0.2,0.9-0.3,1.9-0.3,2.9v6.5
	c0,1,0.8,1.9,1.9,1.9l0,0h1.7c1,0,1.8-0.8,1.8-1.8l0,0V33c0-0.3,0-0.5,0.1-0.7c1-2.2,2.5-3,3.8-3h0.4c0.9,0,1.7-0.6,1.9-1.5l0.2-1
	c0.2-1-0.4-2-1.4-2.2C170.5,24.4,170.4,24.4,170.3,24.4z"/>
<circle class="st0" cx="161.4" cy="22.2" r="2.7"/>
<path class="st0" d="M242.8,4.7c-1.2-3.6-5.1-5.6-8.7-4.5c-2.9,0.9-4.8,3.7-4.8,6.7c0,0.9,0.2,1.8,0.5,2.6l0,0l0.2,0.4l0.1,0.2
	l2.1,4.3l0,0l2.4,5.3l0.2,0.4c0.2,0.6,0.7,0.9,1.3,1h0.5c0.1,0,0.1,0,0.2,0c0.5-0.1,0.8-0.5,1-0.9l2.6-5.7l2.1-4.3l0,0l0.2-0.4l0,0
	C243.3,8.3,243.4,6.4,242.8,4.7z M240,8.4c-0.3,2.1-2.3,3.5-4.4,3.2c-2.1-0.3-3.5-2.3-3.2-4.4c0.3-1.6,1.5-2.9,3.2-3.2
	c2.1-0.3,4.1,1.2,4.4,3.3C240,7.6,240,8,240,8.4L240,8.4z"/>
</svg>
