<svg id="격리_모드" data-name="격리 모드" xmlns="http://www.w3.org/2000/svg" xmlns:xlink="http://www.w3.org/1999/xlink" viewBox="0 0 229.97 232.5"><defs><style>.cls-1{fill:none;}.cls-2{fill:#fc0;}.cls-3{clip-path:url(#clip-path);}.cls-4{fill:#333;}</style><clipPath id="clip-path" transform="translate(-182 -305.19)"><rect class="cls-1" x="182" y="304.89" width="229.92" height="233.76"/></clipPath></defs><g id="레이어_1" data-name="레이어 1"><rect class="cls-2" x="97.5" y="78.75" width="7.5" height="75"/><rect class="cls-2" x="127.5" y="78.75" width="7.5" height="75"/><g class="cls-3"><rect class="cls-2" x="157.5" y="78.75" width="7.5" height="75"/><path d="M234.5,481.44H379.83L412,368.94h-8.84c-1.17-23.56-13.27-26.25-18.63-26.25a16.06,16.06,0,0,0-11.25,4.41v-4.41a11.25,11.25,0,0,1,11.25-11.25v-7.5a18.77,18.77,0,0,0-18.75,18.75v4.41a16.08,16.08,0,0,0-11.25-4.41,15.89,15.89,0,0,0-13.23,7l5.13-21.84a18.43,18.43,0,0,0-35.81-8.69l-5.19,20.73A41.21,41.21,0,0,0,227,357.69a40.58,40.58,0,0,0,1.62,11.25h-4.91l-12.5-52.5H182v7.5h23.29l35.71,150h-6.5a18.75,18.75,0,0,0,0,37.5h.34a22.07,22.07,0,0,0-.34,3.75,22.5,22.5,0,0,0,45,0,22.07,22.07,0,0,0-.34-3.75h53.18a22.07,22.07,0,0,0-.34,3.75,22.56,22.56,0,1,0,3-11.25H276.46a22.46,22.46,0,0,0-38.92,0h-3a11.25,11.25,0,0,1,0-22.5Zm120-131.25c8.65,0,11.3,11.91,11.33,12a3.75,3.75,0,0,0,3.66,3h0a3.76,3.76,0,0,0,3.67-3c0-.12,2.68-12,11.33-12,8.44,0,10.68,10.47,11.14,18.75H343.35c.47-8.28,2.71-18.75,11.15-18.75Zm-45.11,4.66L317.86,321a10.93,10.93,0,0,1,21.24,5.16L329,368.94H307.89a41,41,0,0,0,1.61-11.25c0-1-.08-1.91-.14-2.85ZM302,357.69a33.4,33.4,0,0,1-2,11.25H289a33.4,33.4,0,0,1,5.52-32.42,33.61,33.61,0,0,1,7.5,21.17Zm-12.87-26.47a40.89,40.89,0,0,0-8,37.72H255.39a40.89,40.89,0,0,0-8-37.72,33.58,33.58,0,0,1,41.76,0ZM234.5,357.69a33.61,33.61,0,0,1,7.5-21.17,33.4,33.4,0,0,1,5.52,32.42h-11a33.4,33.4,0,0,1-2-11.25Zm-9,18.75H402l-27.86,97.5H248.71Zm129,123.75a15,15,0,1,1-15,15,15,15,0,0,1,15-15Zm-97.5,0a15,15,0,1,1-15,15,15,15,0,0,1,15-15Zm0,0" transform="translate(-182 -305.19)"/></g><path class="cls-4" d="M358.25,515.19a3.75,3.75,0,1,1-3.75-3.75,3.75,3.75,0,0,1,3.75,3.75Zm0,0" transform="translate(-182 -305.19)"/><path class="cls-4" d="M260.75,515.19a3.75,3.75,0,1,1-3.75-3.75,3.75,3.75,0,0,1,3.75,3.75Zm0,0" transform="translate(-182 -305.19)"/><rect x="67.5" y="90" width="131.25" height="7.5"/><rect x="71.25" y="112.5" width="120" height="7.5"/><rect x="75" y="135" width="108.75" height="7.5"/><path d="M316.08,342.58l1.82-7.27,15,3.75-1.82,7.27Zm0,0" transform="translate(-182 -305.19)"/><path d="M312.33,357.58l1.82-7.27,15,3.75-1.82,7.27Zm0,0" transform="translate(-182 -305.19)"/></g></svg>