<svg id="격리_모드" data-name="격리 모드" xmlns="http://www.w3.org/2000/svg" viewBox="0 0 47.16 46.76"><defs><style>.cls-1{fill:#231f20;}.cls-2{fill:#fc0;}</style></defs><path class="cls-1" d="M150.47,353.42a18.56,18.56,0,0,1-9-2.33.74.74,0,0,1-.29-1,.75.75,0,0,1,1-.29,17.12,17.12,0,0,0,8.29,2.14,16.85,16.85,0,0,0,7.58-1.77.75.75,0,0,1,.66,1.34A18.47,18.47,0,0,1,150.47,353.42Z" transform="translate(-127.23 -309.95)"/><polygon class="cls-1" points="27.32 40.11 30.76 41.09 29.77 44.53 31.65 43.49 32.63 40.05 29.2 39.07 27.32 40.11"/><path class="cls-1" d="M168.29,335.61a.76.76,0,0,1-.75-.75,17,17,0,0,0-7.95-14.43.75.75,0,1,1,.8-1.26A18.52,18.52,0,0,1,169,334.86.75.75,0,0,1,168.29,335.61Z" transform="translate(-127.23 -309.95)"/><polygon class="cls-1" points="34.08 13.52 33.13 10.07 36.58 9.13 34.72 8.07 31.27 9.01 32.21 12.46 34.08 13.52"/><path class="cls-1" d="M132.73,333.9h-.07a.74.74,0,0,1-.67-.81,18.59,18.59,0,0,1,10.11-14.8.74.74,0,0,1,.67,1.33,17.21,17.21,0,0,0-6.35,5.54,17,17,0,0,0-2.94,8.07A.76.76,0,0,1,132.73,333.9Z" transform="translate(-127.23 -309.95)"/><polygon class="cls-1" points="8.18 20.38 5.53 22.77 3.13 20.12 3.02 22.26 5.42 24.91 8.07 22.52 8.18 20.38"/><path class="cls-2" d="M155.71,315.93a5.24,5.24,0,1,1-5.24-5.24A5.25,5.25,0,0,1,155.71,315.93Z" transform="translate(-127.23 -309.95)"/><path class="cls-1" d="M150.47,321.91a6,6,0,1,1,6-6A6,6,0,0,1,150.47,321.91Zm0-10.47a4.49,4.49,0,1,0,4.49,4.49A4.5,4.5,0,0,0,150.47,311.44Z" transform="translate(-127.23 -309.95)"/><path class="cls-2" d="M155.83,328.17H145.11v-1.58a5.36,5.36,0,0,1,5.36-5.36h0a5.36,5.36,0,0,1,5.36,5.36Z" transform="translate(-127.23 -309.95)"/><path class="cls-1" d="M155.83,328.91H145.11a.74.74,0,0,1-.74-.74v-1.58a6.11,6.11,0,1,1,12.21,0v1.58A.75.75,0,0,1,155.83,328.91Zm-10-1.49h9.23v-.83a4.62,4.62,0,1,0-9.23,0Z" transform="translate(-127.23 -309.95)"/><path class="cls-2" d="M173.52,343.73a5.24,5.24,0,1,1-5.23-5.24A5.23,5.23,0,0,1,173.52,343.73Z" transform="translate(-127.23 -309.95)"/><path class="cls-1" d="M168.29,349.71a6,6,0,1,1,6-6A6,6,0,0,1,168.29,349.71Zm0-10.47a4.49,4.49,0,1,0,4.49,4.49A4.49,4.49,0,0,0,168.29,339.24Z" transform="translate(-127.23 -309.95)"/><path class="cls-2" d="M173.65,356H162.93v-1.57a5.36,5.36,0,0,1,5.36-5.36h0a5.36,5.36,0,0,1,5.36,5.36Z" transform="translate(-127.23 -309.95)"/><path class="cls-1" d="M173.65,356.71H162.93a.75.75,0,0,1-.75-.75v-1.57a6.11,6.11,0,1,1,12.21,0V356A.74.74,0,0,1,173.65,356.71Zm-10-1.49h9.23v-.83a4.62,4.62,0,1,0-9.23,0Z" transform="translate(-127.23 -309.95)"/><path class="cls-2" d="M138.57,343.73a5.24,5.24,0,1,1-5.23-5.24A5.23,5.23,0,0,1,138.57,343.73Z" transform="translate(-127.23 -309.95)"/><path class="cls-1" d="M133.34,349.71a6,6,0,1,1,6-6A6,6,0,0,1,133.34,349.71Zm0-10.47a4.49,4.49,0,1,0,4.49,4.49A4.49,4.49,0,0,0,133.34,339.24Z" transform="translate(-127.23 -309.95)"/><path class="cls-2" d="M138.7,356H128v-1.57a5.36,5.36,0,0,1,5.36-5.36h0a5.36,5.36,0,0,1,5.36,5.36Z" transform="translate(-127.23 -309.95)"/><path class="cls-1" d="M138.7,356.71H128a.75.75,0,0,1-.75-.75v-1.57a6.11,6.11,0,1,1,12.21,0V356A.74.74,0,0,1,138.7,356.71Zm-10-1.49H138v-.83a4.62,4.62,0,1,0-9.23,0Z" transform="translate(-127.23 -309.95)"/></svg>