<svg id="Layer_1" data-name="Layer 1" xmlns="http://www.w3.org/2000/svg" viewBox="0 0 30.26 45.33"><defs><style>.cls-1{fill:#231f20;}.cls-2{fill:#fc0;}.cls-3{fill:#fff;}</style></defs><path class="cls-1" d="M26.86,424.73H8.08A5.75,5.75,0,0,1,2.34,419V385.15a5.76,5.76,0,0,1,5.74-5.75H26.86a5.76,5.76,0,0,1,5.74,5.75V419A5.75,5.75,0,0,1,26.86,424.73ZM8.08,380.89a4.26,4.26,0,0,0-4.25,4.26V419a4.26,4.26,0,0,0,4.25,4.25H26.86A4.26,4.26,0,0,0,31.11,419V385.15a4.26,4.26,0,0,0-4.25-4.26Z" transform="translate(-2.34 -379.4)"/><rect class="cls-2" x="2.15" y="386.08" width="30.63" height="28.77" transform="translate(415.59 3.59) rotate(90)"/><path class="cls-1" d="M31.85,416.52H3.09a.75.75,0,0,1-.75-.74V385.15a.75.75,0,0,1,.75-.75H31.85a.75.75,0,0,1,.75.75v30.63A.75.75,0,0,1,31.85,416.52ZM3.83,415H31.11V385.89H3.83Z" transform="translate(-2.34 -379.4)"/><path class="cls-1" d="M20,420.41h-5.1a.75.75,0,1,1,0-1.49H20a.75.75,0,1,1,0,1.49Z" transform="translate(-2.34 -379.4)"/><circle class="cls-3" cx="15.13" cy="20.96" r="7.74"/><path class="cls-1" d="M17.47,408.85A8.49,8.49,0,1,1,26,400.36,8.5,8.5,0,0,1,17.47,408.85Zm0-15.49a7,7,0,1,0,7,7A7,7,0,0,0,17.47,393.36Z" transform="translate(-2.34 -379.4)"/><polygon class="cls-3" points="12.62 16.89 19.67 20.96 12.62 25.03 12.62 16.89"/><path class="cls-1" d="M15,405.18a.69.69,0,0,1-.37-.1.74.74,0,0,1-.37-.64v-8.15a.74.74,0,0,1,.37-.64.7.7,0,0,1,.74,0l7.06,4.07a.75.75,0,0,1,0,1.29l-7.06,4.07A.69.69,0,0,1,15,405.18Zm.75-7.6v5.56l4.81-2.78Z" transform="translate(-2.34 -379.4)"/></svg>