<svg id="Layer_1" data-name="Layer 1" xmlns="http://www.w3.org/2000/svg" viewBox="0 0 37.74 44.46"><defs><style>.cls-1{fill:#fff;}.cls-2{fill:#231f20;}.cls-3{fill:#fc0;}</style></defs><polygon class="cls-1" points="36.99 43.72 0.74 43.72 5.93 33.68 31.81 33.68 36.99 43.72"/><path class="cls-2" d="M35.78,220.4H-.47A.73.73,0,0,1-1.1,220a.73.73,0,0,1,0-.73l5.19-10a.73.73,0,0,1,.66-.41H30.59a.76.76,0,0,1,.67.41l5.18,10a.74.74,0,0,1-.66,1.09Zm-35-1.49H34.55l-4.41-8.55h-25Z" transform="translate(1.21 -175.93)"/><path class="cls-3" d="M30.2,189.22a12.55,12.55,0,0,0-25.09,0S4.8,201.84,17.66,214.7C30.51,201.84,30.2,189.22,30.2,189.22Z" transform="translate(1.21 -175.93)"/><path class="cls-2" d="M17.66,215.45a.75.75,0,0,1-.53-.22,49.06,49.06,0,0,1-7.5-9.55,41.11,41.11,0,0,1-3.78-8.31,27.5,27.5,0,0,1-1.49-8.15,13.3,13.3,0,0,1,26.59,0,27.55,27.55,0,0,1-1.49,8.15,40.57,40.57,0,0,1-3.78,8.31,49.06,49.06,0,0,1-7.5,9.55A.74.74,0,0,1,17.66,215.45Zm0-38a11.82,11.82,0,0,0-11.8,11.8v0A26.34,26.34,0,0,0,7.29,197a39.22,39.22,0,0,0,3.65,8,46.85,46.85,0,0,0,6.72,8.68A47.22,47.22,0,0,0,24.37,205,39.22,39.22,0,0,0,28,197a26.34,26.34,0,0,0,1.44-7.75v0A11.82,11.82,0,0,0,17.66,177.42Z" transform="translate(1.21 -175.93)"/><circle class="cls-1" cx="18.87" cy="14.05" r="6.56"/><path class="cls-2" d="M17.66,197.3A7.31,7.31,0,1,1,25,190,7.32,7.32,0,0,1,17.66,197.3Zm0-13.13A5.82,5.82,0,1,0,23.47,190,5.83,5.83,0,0,0,17.66,184.17Z" transform="translate(1.21 -175.93)"/><path class="cls-2" d="M17.66,192a.78.78,0,0,1-.52-.21L14.25,189a.74.74,0,1,1,1-1.08l2.28,2.16,6.06-8.51a.75.75,0,0,1,1-.17.74.74,0,0,1,.18,1l-6.57,9.2a.72.72,0,0,1-.53.31Z" transform="translate(1.21 -175.93)"/></svg>