<svg id="레이어_1" data-name="레이어 1" xmlns="http://www.w3.org/2000/svg" viewBox="0 0 5.66 5.66"><defs><style>.cls-1{fill:#eb1c24;}.cls-2{fill:#fdeb33;}</style></defs><circle class="cls-1" cx="2.83" cy="2.83" r="2.83"/><polygon class="cls-2" points="1.39 1.02 1.59 1.6 2.21 1.61 1.72 1.98 1.9 2.57 1.39 2.22 0.89 2.57 1.07 1.98 0.58 1.61 1.19 1.6 1.39 1.02"/><polygon class="cls-2" points="2.54 0.73 2.53 0.94 2.73 1.02 2.52 1.08 2.5 1.29 2.39 1.11 2.18 1.16 2.31 0.99 2.21 0.81 2.4 0.89 2.54 0.73"/><polygon class="cls-2" points="3.14 1.37 3.08 1.57 3.25 1.7 3.04 1.71 2.98 1.91 2.9 1.71 2.69 1.71 2.86 1.58 2.79 1.38 2.97 1.5 3.14 1.37"/><polygon class="cls-2" points="3.15 2.25 2.98 2.39 3.05 2.58 2.88 2.47 2.71 2.6 2.76 2.4 2.59 2.28 2.8 2.26 2.86 2.06 2.94 2.26 3.15 2.25"/><polygon class="cls-2" points="2.69 2.88 2.49 2.96 2.5 3.17 2.37 3.01 2.17 3.08 2.28 2.9 2.15 2.73 2.35 2.78 2.47 2.61 2.49 2.82 2.69 2.88"/></svg>