<?xml version="1.0" encoding="utf-8"?>
<!-- Generator: Adobe Illustrator 25.3.0, SVG Export Plug-In . SVG Version: 6.00 Build 0)  -->
<svg version="1.1" id="레이어_1" xmlns="http://www.w3.org/2000/svg" xmlns:xlink="http://www.w3.org/1999/xlink" x="0px"
	 y="0px" viewBox="0 0 270.5 46.6" style="enable-background:new 0 0 270.5 46.6;" xml:space="preserve">
<g>
	<path d="M21.8,35.4c0,0.3-0.1,0.4-0.4,0.4H8c-1.2,0-2.2-0.1-3.2-0.4S3,34.7,2.3,34.1c-0.7-0.6-1.3-1.4-1.7-2.4
		c-0.4-1-0.6-2.1-0.6-3.6V12.2c0-2.5,0.7-4.4,2.1-5.7S5.5,4.6,8,4.6h12.9c0.3,0,0.4,0.1,0.4,0.3v2.7c0,0.3-0.1,0.4-0.4,0.4H8
		C7.5,8,7,8.1,6.5,8.2C6,8.4,5.6,8.6,5.2,8.9c-0.4,0.4-0.7,0.8-1,1.3C4,10.7,3.8,11.3,3.8,12v5.5h16c0.3,0,0.4,0.1,0.4,0.4v2.7
		c0,0.3-0.1,0.4-0.4,0.4h-16v7c0,0.7,0.1,1.3,0.4,1.8c0.2,0.5,0.6,1,1,1.3c0.4,0.4,0.8,0.6,1.3,0.8c0.5,0.2,1,0.2,1.5,0.2h13.3
		c0.3,0,0.4,0.1,0.4,0.4v2.9H21.8z"/>
	<path d="M30.7,35.4c0,0.3-0.1,0.4-0.4,0.4h-3.2c-0.2,0-0.3-0.1-0.3-0.4V13.7c0-0.5,0.2-0.9,0.6-1.3s0.8-0.6,1.4-0.6H41
		c2.7,0,4.7,0.7,6,2.1s2,3.2,2,5.5v16.1c0,0.3-0.1,0.4-0.4,0.4h-3.2c-0.3,0-0.4-0.1-0.4-0.4V19.4c0-0.5-0.1-1-0.2-1.5
		s-0.4-0.9-0.6-1.3c-0.3-0.4-0.7-0.7-1.3-0.9c-0.5-0.2-1.2-0.4-1.9-0.4H30.8v20.1H30.7z"/>
	<path d="M52.9,15.6c-0.2,0-0.3-0.1-0.3-0.4v-2.7c0-0.3,0.1-0.4,0.3-0.4h6.2c0.5,0,1,0.2,1.4,0.6s0.6,0.9,0.6,1.4v25.3
		c0,2.2-0.7,4-2,5.3s-3.4,1.9-6.1,1.9h-4.4c-0.2,0-0.3-0.1-0.3-0.4v-2.7c0-0.3,0.1-0.4,0.3-0.4H53c1.6,0,2.6-0.3,3.2-1
		s0.9-1.6,0.9-2.6V15.7L52.9,15.6L52.9,15.6z M60.3,0c0.2,0,0.3,0.1,0.3,0.4v5.5c0,0.3-0.1,0.4-0.3,0.4H57c-0.3,0-0.4-0.1-0.4-0.4
		V0.4C56.6,0.1,56.7,0,57,0H60.3z"/>
	<path d="M75.4,35.8c-2.7,0-4.7-0.6-6.1-1.9c-1.3-1.3-2-3-2-5.2v-9.8c0-2.2,0.7-4,2-5.3s3.4-1.9,6.1-1.9h6.1c2.7,0,4.7,0.6,6.1,1.9
		c1.3,1.3,2,3,2,5.3v9.8c0,2.2-0.7,3.9-2,5.2c-1.3,1.3-3.4,1.9-6.1,1.9H75.4z M71.3,28.7c0,1.1,0.3,1.9,0.9,2.6s1.7,1,3.2,1h6.1
		c1.5,0,2.6-0.3,3.2-1s0.9-1.6,0.9-2.6v-9.8c0-1.1-0.3-1.9-0.9-2.6s-1.7-1.1-3.2-1.1h-6.1c-1.6,0-2.6,0.4-3.2,1.1s-0.9,1.6-0.9,2.6
		V28.7z"/>
	<path d="M115.2,11.7c0.3,0.1,0.4,0.2,0.3,0.5c-0.6,3.9-1.2,7.9-1.8,12c-0.7,4.1-1.3,8.1-1.9,12c-0.1,0.8-0.3,1.7-0.6,2.7
		c-0.3,1-0.7,2-1.2,3c-0.5,0.9-1.3,1.7-2.2,2.3c-0.9,0.6-2,1-3.5,1h-7.8c-0.3,0-0.4-0.1-0.4-0.3v-2.7c0-0.3,0.1-0.4,0.4-0.4h7.8
		c0.5,0,1-0.2,1.4-0.5s0.7-0.8,1-1.3s0.5-1.2,0.6-1.9c0.2-0.7,0.3-1.5,0.5-2.3c0,0,0-0.1,0-0.2s0.1-0.3,0.2-0.7h-4.4
		c-1.7,0-3-0.3-4-1c-1-0.6-1.7-1.4-2.3-2.4c-0.5-1-0.9-2-1.2-3.2c-0.2-1.2-0.4-2.2-0.6-3.3c-0.2-1.3-0.4-2.7-0.6-4.2
		s-0.4-2.9-0.6-4.2c-0.2-1.5-0.4-3-0.7-4.5c0-0.1,0-0.1,0.1-0.2s0.2-0.2,0.3-0.2l3.1-0.4c0.2,0,0.3,0.1,0.4,0.3
		c0.2,1.5,0.4,3,0.7,4.5c0.2,1.3,0.4,2.7,0.6,4.2s0.4,3,0.6,4.3c0.4,2.2,0.8,3.9,1.3,5s1.5,1.7,2.8,1.7h4.8l3.1-19.8l0,0
		c0.1-0.2,0.2-0.3,0.4-0.3L115.2,11.7z"/>
	<path d="M142.2,15.1c-0.5,0-1.1,0.2-1.5,0.5c-0.5,0.3-0.7,0.9-0.7,1.8v2.3c0,0.4,0.2,0.8,0.4,1.2c0.2,0.3,0.5,0.6,0.9,0.8
		c0.4,0.2,0.9,0.4,1.7,0.4h7.1c1.3,0,2.4,0.2,3.2,0.6c0.9,0.4,1.6,1,2.1,1.6s0.9,1.2,1.2,1.9c0.2,0.7,0.3,1.2,0.3,1.7v2.3
		c0,1-0.2,1.8-0.5,2.5c-0.4,0.7-0.8,1.3-1.4,1.8s-1.2,0.8-2,1.1c-0.7,0.2-1.5,0.4-2.3,0.4h-13.8c-0.2,0-0.3-0.1-0.3-0.4v-2.7
		c0-0.3,0.1-0.4,0.3-0.4h13.8c0.5,0,1-0.2,1.5-0.5s0.7-0.9,0.7-1.8v-2.3c-0.1-0.5-0.2-0.9-0.4-1.2c-0.2-0.3-0.5-0.6-0.9-0.8
		c-0.4-0.2-1-0.4-1.7-0.4h-7.1c-1.3,0-2.4-0.2-3.3-0.6s-1.6-0.9-2.1-1.5s-0.9-1.2-1.2-1.9s-0.3-1.2-0.3-1.7v-2.4
		c0-0.9,0.2-1.7,0.5-2.4c0.4-0.7,0.8-1.3,1.4-1.8s1.2-0.8,2-1.1c0.8-0.3,1.5-0.4,2.3-0.4h13.3c0.3,0,0.4,0.1,0.4,0.4v2.7
		c0,0.2-0.1,0.3-0.4,0.3H142.2z"/>
	<path d="M176.4,35.4c0,0.3-0.1,0.4-0.4,0.4h-4c-1.5,0-2.7-0.2-3.7-0.7s-1.8-1.1-2.5-1.8c-0.6-0.7-1.1-1.5-1.4-2.4
		c-0.3-0.8-0.4-1.6-0.4-2.4V15.2h-3.8c-0.2,0-0.3-0.1-0.3-0.3v-2.7c0-0.3,0.1-0.4,0.3-0.4h3.8V4.2c0-0.3,0.1-0.4,0.4-0.4h3.2
		c0.2,0,0.3,0.1,0.3,0.4v7.6h6.7c0.3,0,0.4,0.1,0.4,0.4v2.7c0,0.2-0.1,0.3-0.4,0.3H168v13.3c0.1,0.8,0.3,1.5,0.5,2
		c0.3,0.5,0.7,0.9,1.2,1.3s1.3,0.6,2.4,0.6h4c0.3,0,0.4,0.1,0.4,0.4v2.6H176.4z"/>
	<path d="M195.5,11.7c0.6,0,1,0.2,1.4,0.5c0.4,0.4,0.6,0.8,0.6,1.3v4.1c0,0.3-0.1,0.4-0.3,0.4H194c-0.3,0-0.4-0.1-0.4-0.4v-2.4H189
		c-0.8,0-1.4,0.1-1.9,0.4c-0.5,0.2-1,0.6-1.3,0.9c-0.3,0.4-0.6,0.8-0.7,1.3s-0.2,1-0.2,1.5v16.1c0,0.3-0.1,0.4-0.4,0.4h-3.2
		c-0.2,0-0.3-0.1-0.3-0.4V19.3c0-2.2,0.7-4.1,2-5.5s3.4-2.1,6.1-2.1L195.5,11.7L195.5,11.7z"/>
	<path d="M216.2,11.7c1.1,0,2,0.2,3,0.5c0.9,0.3,1.7,0.8,2.4,1.4s1.2,1.4,1.6,2.2c0.4,0.9,0.6,1.9,0.6,3.1c0,5-2.8,7.5-8.5,7.6h-9.7
		v2.3c0,1.1,0.3,1.9,0.9,2.6s1.7,1,3.2,1H222c0.3,0,0.4,0.1,0.4,0.4v2.7c0,0.3-0.1,0.4-0.4,0.4h-12.3c-2.7,0-4.7-0.6-6.1-1.9
		c-1.3-1.3-2-3-2-5.2V19c0-2.2,0.7-4,2-5.3s3.4-1.9,6.1-1.9h6.5V11.7z M209.6,15.1c-1.6,0-2.6,0.4-3.2,1.1s-0.9,1.6-0.9,2.6v4.1h9.7
		c1.7,0,2.8-0.3,3.5-1c0.7-0.6,1-1.7,1-3.1c0-0.7-0.1-1.3-0.3-1.8s-0.5-0.9-0.8-1.2c-0.4-0.3-0.8-0.5-1.2-0.6
		c-0.4-0.1-0.9-0.2-1.3-0.2h-6.5V15.1z"/>
	<path d="M243.3,11.7c1.1,0,2,0.2,3,0.5c0.9,0.3,1.7,0.8,2.4,1.4s1.2,1.4,1.6,2.2c0.4,0.9,0.6,1.9,0.6,3.1c0,5-2.8,7.5-8.5,7.6h-9.7
		v2.3c0,1.1,0.3,1.9,0.9,2.6c0.6,0.7,1.7,1,3.2,1h12.3c0.3,0,0.4,0.1,0.4,0.4v2.7c0,0.3-0.1,0.4-0.4,0.4h-12.3
		c-2.7,0-4.7-0.6-6.1-1.9c-1.3-1.3-2-3-2-5.2V19c0-2.2,0.7-4,2-5.3s3.4-1.9,6.1-1.9h6.5V11.7z M236.8,15.1c-1.6,0-2.6,0.4-3.2,1.1
		c-0.6,0.7-0.9,1.6-0.9,2.6v4.1h9.7c1.7,0,2.8-0.3,3.5-1c0.7-0.6,1-1.7,1-3.1c0-0.7-0.1-1.3-0.3-1.8s-0.5-0.9-0.8-1.2
		c-0.4-0.3-0.8-0.5-1.2-0.6s-0.9-0.2-1.3-0.2h-6.5V15.1z"/>
	<path d="M270.5,35.4c0,0.3-0.1,0.4-0.4,0.4h-4c-1.5,0-2.7-0.2-3.7-0.7s-1.8-1.1-2.5-1.8c-0.6-0.7-1.1-1.5-1.4-2.4
		c-0.3-0.8-0.4-1.6-0.4-2.4V15.2h-3.8c-0.2,0-0.3-0.1-0.3-0.3v-2.7c0-0.3,0.1-0.4,0.3-0.4h3.8V4.2c0-0.3,0.1-0.4,0.4-0.4h3.2
		c0.2,0,0.3,0.1,0.3,0.4v7.6h6.7c0.3,0,0.4,0.1,0.4,0.4v2.7c0,0.2-0.1,0.3-0.4,0.3H262v13.3c0.1,0.8,0.3,1.5,0.5,2
		c0.3,0.5,0.7,0.9,1.2,1.3s1.3,0.6,2.4,0.6h4c0.3,0,0.4,0.1,0.4,0.4V35.4z"/>
</g>
</svg>
