<?xml version="1.0" encoding="utf-8"?>
<!-- Generator: Adobe Illustrator 25.3.0, SVG Export Plug-In . SVG Version: 6.00 Build 0)  -->
<svg version="1.1" id="레이어_1" xmlns="http://www.w3.org/2000/svg" xmlns:xlink="http://www.w3.org/1999/xlink" x="0px"
	 y="0px" viewBox="0 0 271.1 47.2" style="enable-background:new 0 0 271.1 47.2;" xml:space="preserve">
<style type="text/css">
	.st0{fill:#FFFFFF;}
</style>
<g>
	<path class="st0" d="M22.4,35.8c0,0.5-0.2,0.8-0.7,0.8H8.4c-1.2,0-2.3-0.1-3.4-0.4c-1-0.3-1.9-0.7-2.6-1.3
		c-0.7-0.6-1.3-1.5-1.8-2.5S0,30.2,0,28.7V12.8c0-2.6,0.7-4.6,2.2-5.9c1.5-1.4,3.5-2,6.2-2h12.9c0.2,0,0.4,0.1,0.6,0.2
		s0.2,0.3,0.2,0.5v2.7c0,0.5-0.3,0.8-0.8,0.8H8.4C8,9.1,7.5,9.2,7.1,9.3S6.3,9.7,5.9,9.9c-0.4,0.3-0.6,0.7-0.9,1.2
		c-0.2,0.5-0.3,1-0.3,1.7v5.1h15.6c0.5,0,0.8,0.3,0.8,0.8v2.7c0,0.5-0.3,0.8-0.8,0.8H4.7v6.6c0,0.6,0.1,1.2,0.3,1.7
		c0.2,0.5,0.5,0.9,0.9,1.2c0.4,0.3,0.8,0.6,1.2,0.7c0.4,0.1,0.9,0.2,1.3,0.2h13.3c0.5,0,0.7,0.3,0.7,0.8L22.4,35.8L22.4,35.8z"/>
	<path class="st0" d="M31.2,35.8c0,0.5-0.2,0.8-0.7,0.8h-3.2c-0.2,0-0.4-0.1-0.5-0.2s-0.2-0.3-0.2-0.6V14.1c0-0.6,0.2-1.1,0.7-1.6
		s1-0.7,1.7-0.7h12.2c2.8,0,4.9,0.7,6.3,2.2s2.1,3.4,2.1,5.7v16.1c0,0.5-0.2,0.8-0.7,0.8h-3.2c-0.2,0-0.4-0.1-0.5-0.2
		S45,36.1,45,35.8V19.7c0-0.5-0.1-0.9-0.2-1.4c-0.1-0.4-0.3-0.8-0.6-1.2c-0.3-0.4-0.7-0.6-1.2-0.8c-0.5-0.2-1.1-0.3-1.8-0.3h-9.9
		L31.2,35.8L31.2,35.8z"/>
	<path class="st0" d="M53.1,16.4c-0.2,0-0.4-0.1-0.5-0.2s-0.2-0.3-0.2-0.6v-2.7c0-0.2,0.1-0.4,0.2-0.6s0.3-0.2,0.5-0.2h6.2
		c0.6,0,1.2,0.2,1.7,0.7s0.7,1,0.7,1.6v25.3c0,2.4-0.7,4.2-2.1,5.5s-3.5,2-6.3,2h-4.4c-0.2,0-0.4-0.1-0.5-0.2s-0.2-0.3-0.2-0.5v-2.7
		c0-0.2,0.1-0.4,0.2-0.5s0.3-0.2,0.5-0.2h4.4c1.4,0,2.4-0.3,3-1c0.5-0.6,0.8-1.4,0.8-2.4V16.3h-4V16.4z M60.5,0
		c0.2,0,0.4,0.1,0.5,0.2s0.2,0.3,0.2,0.6v5.5c0,0.2-0.1,0.4-0.2,0.6c-0.1,0.1-0.3,0.2-0.5,0.2h-3.2c-0.5,0-0.7-0.3-0.7-0.8V0.8
		c0-0.5,0.2-0.8,0.7-0.8L60.5,0L60.5,0z"/>
	<path class="st0" d="M75.6,36.6c-2.8,0-5-0.7-6.4-2s-2.1-3.2-2.1-5.5v-9.8c0-2.4,0.7-4.2,2.1-5.5s3.5-2,6.4-2h6.1
		c2.8,0,4.9,0.7,6.3,2s2.1,3.2,2.1,5.5v9.8c0,2.3-0.7,4.2-2.1,5.5s-3.5,2-6.3,2H75.6z M71.8,29.1c0,0.9,0.3,1.7,0.8,2.3
		c0.5,0.6,1.5,0.9,3,0.9h6.1c1.4,0,2.4-0.3,2.9-0.9s0.8-1.4,0.8-2.3v-9.8c0-1-0.3-1.8-0.8-2.4S83.1,16,81.7,16h-6.1
		c-1.4,0-2.4,0.3-3,0.9c-0.5,0.6-0.8,1.4-0.8,2.4V29.1z"/>
	<path class="st0" d="M115.5,11.7c0.3,0,0.4,0.1,0.6,0.3c0.1,0.2,0.2,0.4,0.1,0.6l-3.7,24c-0.1,0.8-0.3,1.7-0.6,2.7
		c-0.2,1.1-0.6,2.1-1.2,3.1c-0.5,1-1.3,1.8-2.3,2.4c-1,0.7-2.2,1-3.8,1h-7.8c-0.2,0-0.4-0.1-0.6-0.2c-0.1-0.1-0.2-0.3-0.2-0.5v-2.6
		c0-0.5,0.3-0.8,0.8-0.8h7.8c0.5,0,0.9-0.2,1.2-0.5c0.3-0.3,0.6-0.7,0.9-1.2c0.2-0.5,0.4-1.1,0.6-1.8c0.2-0.7,0.3-1.4,0.4-2.2
		c0-0.1,0-0.1,0-0.2s0-0.2,0-0.2h-3.8c-1.7,0-3.1-0.3-4.2-1c-1-0.7-1.8-1.5-2.4-2.5s-1-2.1-1.2-3.3c-0.2-1.2-0.4-2.3-0.6-3.4l0,0
		c-0.2-1.3-0.4-2.8-0.6-4.3s-0.4-2.9-0.6-4.2c-0.2-1.5-0.4-3-0.7-4.5c0-0.2,0-0.4,0.2-0.6c0.1-0.2,0.3-0.3,0.6-0.3l3.1-0.4
		c0.2,0,0.4,0,0.5,0.2c0.2,0.1,0.3,0.3,0.3,0.5c0.2,1.5,0.4,3,0.7,4.5c0.2,1.3,0.4,2.7,0.6,4.2s0.4,3,0.6,4.3
		c0.2,1.1,0.4,2.1,0.6,2.9s0.4,1.5,0.6,2c0.3,0.5,0.6,0.9,1,1.2c0.4,0.3,0.9,0.4,1.6,0.4h4.5c0.2-1.1,0.4-2.3,0.6-3.7
		c0.2-1.4,0.4-2.7,0.6-4.2c0.2-1.4,0.4-2.8,0.6-4.1c0.2-1.3,0.4-2.6,0.6-3.6c0.2-1.1,0.3-2,0.4-2.7s0.2-1.1,0.2-1.2
		c0.1-0.2,0.2-0.4,0.3-0.5c0.2-0.1,0.3-0.2,0.5-0.1L115.5,11.7z"/>
	<path class="st0" d="M142.4,15.9c-0.4,0-0.9,0.1-1.3,0.4s-0.6,0.8-0.6,1.5v2.3c0,0.4,0.1,0.7,0.3,1c0.2,0.3,0.4,0.5,0.7,0.7
		c0.3,0.2,0.8,0.3,1.5,0.3h7.1c1.4,0,2.5,0.2,3.5,0.7c0.9,0.5,1.7,1,2.3,1.7c0.5,0.6,0.9,1.3,1.2,2c0.2,0.7,0.4,1.3,0.4,1.8v2.3
		c0,1-0.2,1.9-0.6,2.7c-0.4,0.8-0.9,1.4-1.5,1.9s-1.4,0.9-2.1,1.2s-1.6,0.4-2.4,0.4h-13.8c-0.2,0-0.4-0.1-0.5-0.2s-0.2-0.3-0.2-0.6
		v-2.7c0-0.2,0.1-0.4,0.2-0.6c0.1-0.1,0.3-0.2,0.5-0.2h13.8c0.4,0,0.9-0.1,1.3-0.4s0.6-0.8,0.6-1.5v-2.3c-0.1-0.4-0.2-0.8-0.3-1
		c-0.2-0.2-0.4-0.4-0.8-0.6s-0.8-0.3-1.5-0.3h-7.1c-1.4,0-2.5-0.2-3.5-0.7c-0.9-0.4-1.7-1-2.2-1.6c-0.6-0.6-1-1.3-1.2-2
		s-0.4-1.3-0.4-1.8v-2.4c0-1,0.2-1.9,0.6-2.6c0.4-0.8,0.9-1.4,1.5-1.9s1.3-0.9,2.1-1.2c0.8-0.3,1.6-0.4,2.4-0.4h13.3
		c0.5,0,0.8,0.3,0.8,0.8v2.7c0,0.2-0.1,0.4-0.2,0.5S156,16,155.7,16L142.4,15.9L142.4,15.9z"/>
	<path class="st0" d="M177.1,35.8c0,0.5-0.3,0.8-0.8,0.8h-4c-1.5,0-2.8-0.3-3.9-0.8s-1.9-1.2-2.5-2c-0.7-0.8-1.2-1.6-1.5-2.5
		s-0.5-1.7-0.5-2.5V15.9h-3.5c-0.2,0-0.4-0.1-0.5-0.2s-0.2-0.3-0.2-0.5v-2.7c0-0.2,0.1-0.4,0.2-0.6c0.1-0.1,0.3-0.2,0.5-0.2h3.5V4.5
		c0-0.5,0.2-0.8,0.7-0.8h3.2c0.2,0,0.4,0.1,0.5,0.2s0.2,0.3,0.2,0.6v7.2h6.3c0.5,0,0.8,0.3,0.8,0.8v2.7c0,0.2-0.1,0.4-0.2,0.5
		s-0.3,0.2-0.6,0.2h-6.3v12.9c0.1,0.7,0.3,1.3,0.5,1.7c0.2,0.4,0.6,0.9,1.1,1.2c0.5,0.4,1.2,0.6,2.1,0.6h4c0.5,0,0.8,0.3,0.8,0.8
		v2.7H177.1z"/>
	<path class="st0" d="M195.8,11.7c0.7,0,1.2,0.2,1.7,0.6c0.4,0.4,0.7,1,0.7,1.6V18c0,0.2-0.1,0.4-0.2,0.6c-0.1,0.1-0.3,0.2-0.5,0.2
		h-3.2c-0.5,0-0.8-0.3-0.8-0.8v-2.1h-4.2c-0.7,0-1.3,0.1-1.8,0.3c-0.5,0.2-0.9,0.5-1.2,0.8c-0.3,0.4-0.5,0.8-0.7,1.2
		c-0.1,0.4-0.2,0.9-0.2,1.4v16.1c0,0.5-0.2,0.8-0.7,0.8h-3.2c-0.2,0-0.4-0.1-0.5-0.2s-0.2-0.3-0.2-0.6V19.6c0-2.3,0.7-4.2,2.1-5.7
		s3.5-2.2,6.4-2.2L195.8,11.7L195.8,11.7z"/>
	<path class="st0" d="M216.4,11.7c1.1,0,2.2,0.2,3.1,0.5c1,0.3,1.8,0.8,2.5,1.4s1.3,1.4,1.7,2.4c0.4,0.9,0.6,2,0.6,3.3
		c0,5.2-3,7.9-8.9,8H206v1.9c0,0.9,0.3,1.7,0.8,2.3c0.5,0.6,1.5,0.9,3,0.9h12.3c0.5,0,0.8,0.3,0.8,0.8v2.7c0,0.5-0.3,0.8-0.8,0.8
		h-12.3c-2.8,0-5-0.7-6.4-2s-2.1-3.2-2.1-5.5v-9.8c0-2.4,0.7-4.2,2.1-5.5s3.5-2,6.4-2h6.6V11.7z M209.9,15.9c-1.4,0-2.4,0.3-3,0.9
		c-0.5,0.6-0.8,1.4-0.8,2.4v3.7h9.4c1.5,0,2.6-0.3,3.3-0.9c0.6-0.6,1-1.6,1-2.8c0-0.6-0.1-1.2-0.3-1.6c-0.2-0.4-0.4-0.8-0.7-1
		c-0.3-0.3-0.7-0.4-1.1-0.5s-0.8-0.1-1.2-0.1h-6.6V15.9z"/>
	<path class="st0" d="M243.5,11.7c1.1,0,2.2,0.2,3.1,0.5c1,0.3,1.8,0.8,2.5,1.4s1.3,1.4,1.7,2.4c0.4,0.9,0.6,2,0.6,3.3
		c0,5.2-3,7.9-8.9,8h-9.4v1.9c0,0.9,0.3,1.7,0.8,2.3c0.5,0.6,1.5,0.9,3,0.9h12.3c0.5,0,0.8,0.3,0.8,0.8v2.7c0,0.5-0.3,0.8-0.8,0.8
		h-12.3c-2.8,0-5-0.7-6.4-2s-2.1-3.2-2.1-5.5v-9.8c0-2.4,0.7-4.2,2.1-5.5s3.5-2,6.4-2h6.6V11.7z M237,15.9c-1.4,0-2.4,0.3-3,0.9
		c-0.5,0.6-0.8,1.4-0.8,2.4v3.7h9.4c1.5,0,2.6-0.3,3.3-0.9c0.6-0.6,1-1.6,1-2.8c0-0.6-0.1-1.2-0.3-1.6s-0.4-0.8-0.7-1
		c-0.3-0.3-0.7-0.4-1.1-0.5S244,16,243.6,16H237V15.9z"/>
	<path class="st0" d="M271.1,35.8c0,0.5-0.3,0.8-0.8,0.8h-4c-1.5,0-2.8-0.3-3.9-0.8s-1.9-1.2-2.5-2c-0.7-0.8-1.2-1.6-1.5-2.5
		s-0.5-1.7-0.5-2.5V15.9h-3.5c-0.2,0-0.4-0.1-0.5-0.2s-0.2-0.3-0.2-0.5v-2.7c0-0.2,0.1-0.4,0.2-0.6c0.1-0.1,0.3-0.2,0.5-0.2h3.5V4.5
		c0-0.5,0.2-0.8,0.7-0.8h3.2c0.2,0,0.4,0.1,0.5,0.2s0.2,0.3,0.2,0.6v7.2h6.3c0.5,0,0.8,0.3,0.8,0.8v2.7c0,0.2-0.1,0.4-0.2,0.5
		c-0.1,0.1-0.3,0.2-0.6,0.2h-6.3v12.9c0.1,0.7,0.3,1.3,0.5,1.7c0.2,0.4,0.6,0.9,1.1,1.2c0.5,0.4,1.2,0.6,2.1,0.6h4
		c0.5,0,0.8,0.3,0.8,0.8v2.7H271.1z"/>
</g>
</svg>
