<?xml version="1.0" encoding="utf-8"?>
<!-- Generator: Adobe Illustrator 25.2.0, SVG Export Plug-In . SVG Version: 6.00 Build 0)  -->
<svg version="1.1" id="레이어_1" xmlns="http://www.w3.org/2000/svg" xmlns:xlink="http://www.w3.org/1999/xlink" x="0px"
	 y="0px" viewBox="0 0 100 100" style="enable-background:new 0 0 100 100;" xml:space="preserve">
<style type="text/css">
	.st0{fill:#FFFFFF;}
	.st1{fill:#4285F4;}
	.st2{fill:#34A853;}
	.st3{fill:#FBBC04;}
	.st4{fill:#EA4335;}
	.st5{fill:#C5221F;}
</style>
<circle class="st0" cx="50" cy="49.2" r="49.2"/>
<g>
	<path class="st1" d="M30.6,66.9h7.1V49.5l-10.3-7.7v22C27.5,65.6,28.8,66.9,30.6,66.9C30.5,66.9,30.5,66.9,30.6,66.9z"/>
	<path class="st2" d="M62.3,66.9h7.1c1.7,0,3.1-1.4,3.1-3.1l0,0v-22l-10.2,7.7V66.9z"/>
	<path class="st3" d="M62.3,36.2v13.3l10.2-7.7v-4.1c0-2.5-2.1-4.6-4.6-4.6c-1,0-1.9,0.3-2.7,0.9L62.3,36.2z"/>
	<path class="st4" d="M37.8,49.5V36.2L50,45.3l12.3-9.2v13.3L50,58.7L37.8,49.5z"/>
	<path class="st5" d="M27.5,37.7v4.1l10.2,7.7V36.2L34.8,34c-2-1.5-4.9-1.1-6.5,1C27.8,35.8,27.5,36.7,27.5,37.7z"/>
</g>
</svg>
