<?xml version="1.0" encoding="utf-8"?>
<!-- Generator: Adobe Illustrator 25.2.2, SVG Export Plug-In . SVG Version: 6.00 Build 0)  -->
<svg version="1.1" id="레이어_1" xmlns="http://www.w3.org/2000/svg" xmlns:xlink="http://www.w3.org/1999/xlink" x="0px"
	 y="0px" viewBox="0 0 512 512" style="enable-background:new 0 0 512 512;" xml:space="preserve">
<path d="M470,180H329.4c0.4-4.9,0.7-9.9,0.7-15C330,74,256,0,165,0c-29,0-57.5,7.6-82.5,22c-4.8,2.8-6.4,8.9-3.7,13.7
	c2.8,4.8,8.9,6.4,13.7,3.7C114.5,26.7,139.5,20,165,20c80,0,145,65.1,145,145S245,310,165,310c-33.5,0-64.9-11.1-90.9-32.1
	c-2.6-2.1-6.1-2.7-9.2-1.8l-26.5,6.9l10.4-22.9c1.5-3.3,1.1-7.1-1-10C29.6,225.4,20,195.9,20,165c0-25.5,6.7-50.7,19.5-72.6
	c2.8-4.8,1.1-10.9-3.6-13.7s-10.9-1.1-13.7,3.6C7.7,107.4,0,136,0,165c0,33.2,9.7,64.9,28.2,92.2L11.4,294c-1.6,3.5-1,7.6,1.4,10.6
	s6.4,4.2,10.2,3.2l42.5-11.1C94.1,318.2,129.2,330,165,330c7.8,0,15.5-0.6,23-1.6V416c0,23.2,18.8,42,42,42h141.4l63.2,51.7
	c1.8,1.5,4.1,2.3,6.3,2.3c1.5,0,2.9-0.3,4.3-1c3.5-1.7,5.7-5.2,5.7-9v-44h19c23.2,0,42-18.8,42-42V222C512,198.8,493.2,180,470,180z
	 M492,416c0,12.1-9.9,22-22,22h-29c-5.5,0-10,4.5-10,10v32.9l-49.4-40.4c-2.7-2.5-5.1-2.5-10.5-2.5H230c-12.1,0-22-9.9-22-22v-91.6
	c59.2-16,105.2-64.1,118.3-124.4H470c12.1,0,22,9.9,22,22V416z"/>
<path d="M399.8,348.6c3.4-1.6,5.7-5,5.7-9c0-5.5-4.5-10-10-10h-4.1l-32.3-73.5c-1.6-3.6-5.2-6-9.2-6s-7.6,2.3-9.2,6l-32.3,73.5h-4.1
	c-5.5,0-10,4.5-10,10c0,4,2.4,7.4,5.7,9l-12,27.4c-2.2,5.1,0.1,11,5.1,13.2c5.1,2.2,11-0.1,13.2-5.1l15.1-34.4h56.7l15.1,34.4
	c1.6,3.8,5.3,6,9.2,6c1.3,0,2.7-0.3,4-0.8c5.1-2.2,7.4-8.1,5.1-13.2L399.8,348.6z M330.4,329.6L350,285l19.6,44.6H330.4z"/>
<path d="M55.4,65.4c2.6,0,5.2-1.1,7.1-2.9c1.9-1.9,2.9-4.4,2.9-7.1c0-2.6-1.1-5.2-2.9-7.1c-1.9-1.9-4.4-2.9-7.1-2.9
	c-2.6,0-5.2,1.1-7.1,2.9c-1.9,1.9-2.9,4.4-2.9,7.1c0,2.6,1.1,5.2,2.9,7.1C50.2,64.3,52.8,65.4,55.4,65.4z"/>
<path d="M105.3,225.9c-4.8,2.7-6.6,8.7-4,13.6c1.8,3.3,5.2,5.2,8.8,5.2c1.6,0,3.3-0.4,4.8-1.2c22.3-12.2,39.5-31.3,49.5-53.7
	c10,22.4,27.2,41.5,49.5,53.7c1.5,0.8,3.2,1.2,4.8,1.2c3.5,0,7-1.9,8.8-5.2c2.7-4.8,0.9-10.9-4-13.6c-26.1-14.3-43.7-39.9-48-68.8
	h44.4c5.5,0,10-4.5,10-10s-4.5-10-10-10h-45.5V95.4c0-5.5-4.5-10-10-10s-10,4.5-10,10v41.7h-36.1c-5.5,0-10,4.5-10,10s4.5,10,10,10
	h35.1C149,186,131.4,211.6,105.3,225.9z"/>
</svg>
