<svg id="Capa_1" data-name="Capa 1" xmlns="http://www.w3.org/2000/svg" viewBox="0 0 405.85 512"><defs><style>.cls-1{fill:#ffce00;}</style></defs><path class="cls-1" d="M250.09,109.63,231.67,161.4l-20.5,5.91-50.73,3.13,2.09,15.29L205.61,216l-11.46,61.85,1.73,13.9,30.58-15.29,26.06-18.76,36.14,16.68s20.15,14.59,21.54,15.28,11.82-3.82,11.47-5.21S304,224.65,304,224.65l23.63-22.94,25-22.24-2.44-11.12-55.25,4.52-11.46-15.64-15.64-45.86-12.16-10.43-4.17,8.34Z" transform="translate(-53.07 0)"/><path d="M452.42,210.23a39.56,39.56,0,0,0-4.56-49.18,24.75,24.75,0,0,1-6.32-22.22,39.58,39.58,0,0,0-22-44.22A24.72,24.72,0,0,1,405.6,76.18,39.56,39.56,0,0,0,369.1,42.9a24.71,24.71,0,0,1-19.64-12.16A39.56,39.56,0,0,0,303.4,12.9a24.72,24.72,0,0,1-22.71-4.25,39.58,39.58,0,0,0-49.39,0,24.7,24.7,0,0,1-22.7,4.25,39.56,39.56,0,0,0-46.06,17.84A24.71,24.71,0,0,1,142.9,42.9a39.57,39.57,0,0,0-36.5,33.28A24.72,24.72,0,0,1,92.47,94.61a39.58,39.58,0,0,0-22,44.22,24.75,24.75,0,0,1-6.32,22.22,39.56,39.56,0,0,0-4.56,49.18,24.7,24.7,0,0,1,2.13,23,39.57,39.57,0,0,0,13.52,47.51,24.7,24.7,0,0,1,10.29,20.68,39.57,39.57,0,0,0,29.77,39.41,24.73,24.73,0,0,1,13.21,8.63L87.18,449.22A17.89,17.89,0,0,0,109,473.17l45.24-13.89a2.89,2.89,0,0,1,3.39,1.41l22.18,41.81A17.88,17.88,0,0,0,212.08,501l43.07-104c.57,0,1.13,0,1.7,0l43.07,104a17.88,17.88,0,0,0,32.32,1.54l22.17-41.81a2.9,2.9,0,0,1,3.4-1.41l45.24,13.89a17.88,17.88,0,0,0,21.77-23.94l-41.33-99.77a24.77,24.77,0,0,1,13.22-8.63,39.57,39.57,0,0,0,29.76-39.41,24.74,24.74,0,0,1,10.3-20.68,39.58,39.58,0,0,0,13.52-47.51,24.7,24.7,0,0,1,2.13-23Zm-254.2,285a2.88,2.88,0,0,1-5.21.25l-22.17-41.81a17.92,17.92,0,0,0-21.05-8.72l-45.24,13.89A2.88,2.88,0,0,1,101,455l36.66-88.51a39.56,39.56,0,0,0,36.66,15.95,24.73,24.73,0,0,1,21.54,8.34A39.38,39.38,0,0,0,236.43,403Zm209.23-36.4-45.24-13.88a17.92,17.92,0,0,0-21,8.72L319,495.47a2.88,2.88,0,0,1-5.21-.25L275.58,403a39.54,39.54,0,0,0,40.52-12.27,24.71,24.71,0,0,1,21.54-8.35,39.51,39.51,0,0,0,36.66-15.94L411,455a2.89,2.89,0,0,1-3.52,3.87ZM439.86,202A39.7,39.7,0,0,0,436.44,239,24.62,24.62,0,0,1,428,268.55a39.73,39.73,0,0,0-16.54,33.22A24.62,24.62,0,0,1,393,326.31,39.72,39.72,0,0,0,368.43,345s0,0,0,.08a39.56,39.56,0,0,0-2.86,6.19,24.64,24.64,0,0,1-26.14,16.19,39.73,39.73,0,0,0-34.61,13.4,24.62,24.62,0,0,1-30.22,5.65,40,40,0,0,0-10.92-3.84l-.09,0a39.59,39.59,0,0,0-15.11,0h-.06a40.14,40.14,0,0,0-10.93,3.85,24.63,24.63,0,0,1-30.23-5.65,39.7,39.7,0,0,0-34.6-13.4,24.64,24.64,0,0,1-26.14-16.19,39.49,39.49,0,0,0-2.87-6.18.31.31,0,0,0-.05-.1,39.72,39.72,0,0,0-24.51-18.72,24.63,24.63,0,0,1-18.53-24.54A39.71,39.71,0,0,0,84,268.55,24.62,24.62,0,0,1,75.57,239,39.73,39.73,0,0,0,72.14,202,24.64,24.64,0,0,1,75,171.41a39.71,39.71,0,0,0,10.16-35.69,24.64,24.64,0,0,1,13.7-27.53,39.71,39.71,0,0,0,22.37-29.61,24.63,24.63,0,0,1,22.72-20.72,39.68,39.68,0,0,0,31.55-19.53,24.64,24.64,0,0,1,28.67-11.11,39.69,39.69,0,0,0,36.48-6.82,24.64,24.64,0,0,1,30.75,0,39.69,39.69,0,0,0,36.48,6.82,24.63,24.63,0,0,1,28.67,11.11,39.69,39.69,0,0,0,31.55,19.53A24.64,24.64,0,0,1,390.8,78.58a39.71,39.71,0,0,0,22.37,29.61,24.64,24.64,0,0,1,13.7,27.53A39.71,39.71,0,0,0,437,171.41,24.64,24.64,0,0,1,439.86,202Z" transform="translate(-53.07 0)"/><path d="M114,192.13a7.51,7.51,0,0,0,8.36-6.53C130.59,118.29,188.07,67.53,256,67.53A134.76,134.76,0,0,1,389.7,185.67a7.49,7.49,0,0,0,7.43,6.58c.31,0,.61,0,.92-.05a7.52,7.52,0,0,0,6.54-8.36C395.41,109,331.53,52.53,256,52.53S116.63,109,107.42,183.77a7.51,7.51,0,0,0,6.53,8.36Z" transform="translate(-53.07 0)"/><path d="M398.05,212.26a7.51,7.51,0,0,0-8.35,6.53,134.72,134.72,0,0,1-267.39.06,7.5,7.5,0,1,0-14.89,1.83c9.2,74.83,73.08,131.25,148.58,131.25s139.41-56.45,148.58-131.32A7.48,7.48,0,0,0,398.05,212.26Z" transform="translate(-53.07 0)"/><path d="M361.9,171.28a14.39,14.39,0,0,0-13.29-10l-58.8-2.11-20.17-55.27a14.51,14.51,0,0,0-27.27,0l-20.18,55.27-58.8,2.11A14.52,14.52,0,0,0,155,187.2l46.33,36.27L185.13,280a14.51,14.51,0,0,0,22.06,16L256,263.21l48.81,32.86a14.51,14.51,0,0,0,22.06-16l-16.16-56.57L357,187.2a14.39,14.39,0,0,0,4.86-15.92Zm-60.69,40.58a14.44,14.44,0,0,0-5,15.41l15.89,55.62-48-32.3a14.5,14.5,0,0,0-16.22,0l-48,32.3,15.89-55.62a14.46,14.46,0,0,0-5-15.42L165.25,176.2l57.8-2.07a14.49,14.49,0,0,0,13.12-9.53L256,110.26l19.84,54.34A14.47,14.47,0,0,0,289,174.13l57.8,2.07Z" transform="translate(-53.07 0)"/></svg>