<?xml version="1.0" encoding="utf-8"?>
<!-- Generator: Adobe Illustrator 25.2.0, SVG Export Plug-In . SVG Version: 6.00 Build 0)  -->
<svg version="1.1" id="Layer_1" xmlns="http://www.w3.org/2000/svg" xmlns:xlink="http://www.w3.org/1999/xlink" x="0px" y="0px"
	 viewBox="0 0 30.3 45.3" style="enable-background:new 0 0 30.3 45.3;" xml:space="preserve">
<style type="text/css">
	.st0{fill:#FFFFFF;}
	.st1{fill:#231F20;}
	.st2{fill:#FFCC00;}
</style>
<g id="XMLID_1_">
	<g>
		<path class="st0" d="M28.7,5H1.6c0.4-2,2.1-3.5,4.2-3.5h18.8C26.6,1.5,28.4,3,28.7,5z"/>
		<path class="st0" d="M1.5,37.1h27.3v2.5c0,2.4-1.9,4.2-4.2,4.2H5.7c-2.3,0-4.2-1.9-4.2-4.2V37.1z M12.6,41h5.1c0.1,0,0.1,0,0.2,0
			c0.4,0,0.7-0.4,0.7-0.8c0-0.4-0.4-0.7-0.8-0.7h-5.1c-0.1,0-0.1,0-0.2,0c-0.4,0-0.7,0.4-0.7,0.8C11.8,40.8,12.1,41.1,12.6,41z"/>
		<path class="st1" d="M29.5,36.4V5.7h-0.7c0-0.2,0-0.5-0.1-0.7h0.8c0.4,0,0.8,0.3,0.8,0.8v30.6c0,0.4-0.3,0.7-0.8,0.7h-0.7v-0.8
			H29.5z"/>
		<polygon class="st1" points="29.5,5.7 29.5,36.4 28.8,36.4 28.8,35.6 28.8,6.5 28.8,5.7 28.8,5.7 		"/>
		<rect x="1.5" y="35.6" class="st1" width="27.3" height="0.8"/>
		<rect x="1.5" y="36.4" class="st1" width="27.3" height="0.8"/>
		<path class="st2" d="M28.8,6.5v29.1H1.5V6.5H28.8z M23.7,21c0-4.7-3.8-8.5-8.4-8.5c-4.7,0-8.5,3.8-8.5,8.5s3.8,8.5,8.5,8.5
			c0,0,0,0,0,0C19.8,29.5,23.6,25.6,23.7,21z"/>
		<polygon class="st1" points="28.8,5.7 28.8,6.5 1.5,6.5 1.5,5.7 1.5,5.7 28.8,5.7 		"/>
		<path class="st1" d="M28.8,5.7H1.5c0-0.2,0-0.5,0.1-0.7h27.1C28.8,5.2,28.8,5.5,28.8,5.7z"/>
		<polygon class="st0" points="18.2,21 13.4,23.7 13.4,18.2 		"/>
		<path class="st1" d="M12.6,25v-8.1l7.1,4.1L12.6,25z M13.4,18.2v5.6l4.8-2.8L13.4,18.2z"/>
		<path class="st1" d="M19.7,21l-7.1-4.1V25L19.7,21z M20.1,21.6L13,25.7c-0.1,0.1-0.2,0.1-0.4,0.1s-0.3,0-0.4-0.1
			c-0.2-0.1-0.4-0.4-0.4-0.6v-8.1c0-0.3,0.1-0.5,0.4-0.6c0.2-0.1,0.5-0.1,0.7,0l7.1,4.1c0.4,0.2,0.5,0.7,0.3,1
			C20.3,21.5,20.2,21.5,20.1,21.6z"/>
		<path class="st1" d="M17.7,41h-5.1c-0.4,0-0.8-0.2-0.8-0.7c0-0.4,0.2-0.8,0.7-0.8c0,0,0.1,0,0.2,0h5.1c0.4,0,0.8,0.2,0.8,0.7
			c0.1,0.4-0.2,0.8-0.7,0.8C17.8,41,17.7,41,17.7,41z"/>
		<path class="st0" d="M13,25.7l7.1-4.1c0.1-0.1,0.2-0.1,0.3-0.3c0.2-0.4,0.1-0.8-0.3-1L13,16.2c-0.2-0.1-0.5-0.1-0.7,0
			c-0.2,0.1-0.4,0.4-0.4,0.6V25c0,0.3,0.1,0.5,0.4,0.6c0.1,0.1,0.2,0.1,0.4,0.1S12.9,25.7,13,25.7z M8.1,21c0-3.9,3.1-7,7-7
			s7,3.1,7,7s-3.1,7-7,7S8.1,24.8,8.1,21z"/>
		<path class="st1" d="M15.1,14c-3.9,0-7,3.1-7,7s3.1,7,7,7s7-3.1,7-7S19,14,15.1,14z M15.1,28.7c-4.3,0-7.7-3.5-7.7-7.7
			s3.5-7.7,7.7-7.7s7.7,3.5,7.7,7.7S19.4,28.7,15.1,28.7z"/>
		<path class="st1" d="M6.7,20.9c0-4.7,3.8-8.5,8.5-8.5c4.7,0,8.4,3.8,8.4,8.5c0,4.7-3.8,8.5-8.5,8.5c0,0,0,0,0,0
			C10.4,29.4,6.7,25.6,6.7,20.9z M22.9,21c0-4.3-3.5-7.7-7.7-7.7S7.4,16.7,7.4,21s3.5,7.7,7.7,7.7S22.9,25.2,22.9,21z"/>
		<path class="st1" d="M28.7,5c-0.4-2-2.1-3.5-4.2-3.5H5.7C3.7,1.5,1.9,3,1.6,5H0.8C0.3,5,0,5.3,0,5.7C0,2.6,2.6,0,5.7,0h18.8
			c3.2,0,5.7,2.6,5.7,5.8c0-0.4-0.3-0.8-0.8-0.8H28.7z"/>
		<polygon class="st1" points="1.5,35.6 1.5,36.4 0.7,36.4 0.7,5.7 1.5,5.7 1.5,5.7 1.5,6.5 		"/>
		<path class="st1" d="M29.5,37.1c0.4,0,0.7-0.3,0.8-0.7v3.2c0,3.2-2.6,5.7-5.7,5.7H5.7c-3.2,0-5.7-2.6-5.7-5.7v-3.2
			c0,0.4,0.3,0.7,0.8,0.7h0.7v2.5c0,2.4,1.9,4.2,4.2,4.2h18.8c2.3,0,4.2-1.9,4.2-4.2v-2.5H29.5z"/>
		<path class="st1" d="M0.8,5h0.8c0,0.2-0.1,0.5-0.1,0.7H0.7v30.6h0.8v0.8H0.8c-0.4,0-0.7-0.3-0.8-0.7V5.7C0,5.3,0.3,5,0.8,5z"/>
	</g>
	<g>
	</g>
</g>
</svg>
