<?xml version="1.0" encoding="utf-8"?>
<!-- Generator: Adobe Illustrator 25.2.2, SVG Export Plug-In . SVG Version: 6.00 Build 0)  -->
<svg version="1.1" id="Capa_1" xmlns="http://www.w3.org/2000/svg" xmlns:xlink="http://www.w3.org/1999/xlink" x="0px" y="0px"
	 viewBox="0 0 512 512" style="enable-background:new 0 0 512 512;" xml:space="preserve">
<style type="text/css">
	.st0{fill:#FFCE00;}
</style>
<g>
	<polygon class="st0" points="40,200.9 39,321.9 76,310.9 184,262.9 	"/>
	<rect x="295" y="436.9" class="st0" width="57" height="60"/>
	<g>
		<path d="M435.4,317.1c-14.3-2.3-59.2-9.5-73.4-11.7v-17.7c36.2-15.8,60-51.8,60-91.7v-41h50c5.5,0,10-4.5,10-10v-11.5
			c0-24-19.5-43.5-43.5-43.5h-17c-5-50.5-47.7-90-99.5-90s-94.5,39.5-99.5,90h-17c-24,0-43.5,19.5-43.5,43.5V145c0,5.5,4.5,10,10,10
			h50v41c0,39.9,23.8,75.9,60,91.7v17.7c-15.3,2.5-58,9.3-73.4,11.7c-44.1,7.1-76.6,45.1-76.6,89.9V502c0,5.5,4.5,10,10,10h360
			c5.5,0,10-4.5,10-10v-95C512,362.3,479.6,324.2,435.4,317.1L435.4,317.1z M322,20c40.7,0,74.4,30.6,79.4,70H242.6
			C247.6,50.6,281.3,20,322,20z M242,196v-41h36c5.5,0,10-4.5,10-10s-4.5-10-10-10c-10.3,0-83.8,0-96,0v-1.5
			c0-13,10.6-23.5,23.5-23.5h232.9c13,0,23.5,10.6,23.5,23.5v1.5c-9.6,0-83.5,0-94,0c-5.5,0-10,4.5-10,10s4.5,10,10,10h34v41
			c0,43.7-35.4,80-80,80C277.4,276,242,239.7,242,196L242,196z M293.6,323.8c4.9-0.8,8.4-5,8.4-9.9V294c6.5,1.3,13.2,2,20,2
			s13.5-0.7,20-2v19.9c0,4.9,3.6,9.1,8.4,9.9l33.2,5.3L322,411.2l-61.6-82.1L293.6,323.8z M343,492h-41v-46h41V492z M152,407
			c0-35.1,25.1-64.6,59.8-70.1l26.3-4.2l70,93.4H292c-5.5,0-10,4.5-10,10v56h-70v-56c0-5.5-4.5-10-10-10s-10,4.5-10,10v56h-40V407z
			 M492,492h-40v-56c0-5.5-4.5-10-10-10s-10,4.5-10,10v56h-69v-56c0-5.5-4.5-10-10-10h-17.1l70-93.4l26.3,4.2
			c34.6,5.5,59.8,35,59.8,70.1V492z"/>
		<path d="M356.6,216c2.8-4.8,1.1-10.9-3.7-13.7c-4.8-2.8-10.9-1.1-13.7,3.7c-3.6,6.2-10.2,10-17.3,10s-13.7-3.8-17.3-10
			c-2.8-4.8-8.9-6.4-13.7-3.7c-4.8,2.8-6.4,8.9-3.7,13.7c7.1,12.3,20.4,20,34.6,20S349.5,228.3,356.6,216L356.6,216z"/>
		<path d="M10,492c-5.5,0-10,4.5-10,10s4.5,10,10,10h60c5.5,0,10-4.5,10-10s-4.5-10-10-10H50V328.8l143.7-57.5
			c3.8-1.5,6.3-5.2,6.3-9.3s-2.5-7.8-6.3-9.3L50,195.2V142c0-5.5-4.5-10-10-10s-10,4.5-10,10v350H10z M163.1,262L50,307.2v-90.5
			L163.1,262z"/>
		<circle cx="323" cy="145" r="10"/>
	</g>
</g>
</svg>
