<?xml version="1.0" encoding="utf-8"?>
<!-- Generator: Adobe Illustrator 25.2.0, SVG Export Plug-In . SVG Version: 6.00 Build 0)  -->
<svg version="1.1" id="레이어_1" xmlns="http://www.w3.org/2000/svg" xmlns:xlink="http://www.w3.org/1999/xlink" x="0px"
	 y="0px" viewBox="0 0 100 100" style="enable-background:new 0 0 100 100;" xml:space="preserve">
<style type="text/css">
	.st0{fill:#FAE300;}
	.st1{fill:#391B1B;}
</style>
<circle class="st0" cx="49.7" cy="50" r="49.2"/>
<path class="st1" d="M49.7,33.4c-11.3,0-20.4,7.2-20.4,16.1c0,5.8,3.9,10.9,9.7,13.7c-0.4,1.6-1.6,5.8-1.8,6.7
	c-0.3,1.1,0.4,1,0.9,0.8c0.4-0.2,5.6-3.8,7.9-5.4c1.3,0.2,2.5,0.3,3.8,0.3c11.3,0,20.4-7.2,20.4-16.1S61,33.4,49.7,33.4"/>
<path class="st0" d="M41.5,44.7h-5.9c-0.5,0-0.9,0.5-0.9,1l0,0l0,0c0,0.5,0.5,0.9,0.9,0.9h2v7.1c0,0.5,0.5,1,1,1h0.2
	c0.5,0,1-0.5,1-1v-7.1h1.8c0.5,0,1-0.4,1-0.9l0,0c0.1-0.5-0.4-1-0.9-1.1l0,0L41.5,44.7L41.5,44.7z"/>
<path class="st0" d="M55.8,53H53v-7.3c0-0.6-0.5-1.1-1-1.1c-0.6,0-1.1,0.5-1.1,1v8.2c0,0.5,0.4,0.9,0.9,0.9h4.1c0.5,0,0.9-0.3,1-0.9
	l0,0c0-0.5-0.3-0.9-0.9-1l0,0C56,53,55.9,53,55.8,53L55.8,53z"/>
<path class="st0" d="M64.7,53.3l-3.1-4.1l2.8-2.8c0.3-0.4,0.3-1-0.1-1.3l0,0c-0.4-0.3-0.9-0.3-1.3,0l-3.4,3.4v-2.9
	c0-0.6-0.5-1.1-1-1.1l0,0c-0.6,0-1.1,0.5-1.1,1v8.1c0,0.6,0.5,1.1,1,1.1l0,0c0.6,0,1.1-0.5,1.1-1.1v-2.5l0.6-0.6l2.9,3.8
	c0.3,0.5,0.9,0.6,1.3,0.3l0,0C65,54.4,65.1,53.9,64.7,53.3L64.7,53.3L64.7,53.3C64.8,53.4,64.7,53.4,64.7,53.3z"/>
<path class="st0" d="M50,53.5l-2.9-8.1l0,0c-0.4-0.8-1.3-1.1-2-0.7c-0.4,0.2-0.6,0.5-0.8,0.9c0,0,0,0.1-0.1,0.2l-2.9,7.9
	c-0.2,0.5,0.1,1.1,0.5,1.3l0,0c0.5,0.2,1.1-0.1,1.3-0.5l0,0l0,0l0,0l0.5-1.5h4.1l0.5,1.5c0.2,0.5,0.7,0.8,1.3,0.6l0,0l0,0
	c0.5-0.2,0.8-0.7,0.6-1.2l0,0l0,0L50,53.5z M44.3,51l1.4-3.9l0,0L47,51H44.3z"/>
</svg>
