<svg id="레이어_1" data-name="레이어 1" xmlns="http://www.w3.org/2000/svg" viewBox="0 0 5.66 5.66"><defs><style>.cls-1{fill:#fff;}.cls-2{fill:#104b9a;}.cls-3{fill:#cd2e38;}.cls-4{fill:#221e1f;}</style></defs><circle class="cls-1" cx="2.83" cy="2.83" r="2.83"/><path class="cls-2" d="M1.81,2.17A1.23,1.23,0,0,0,3.87,3.5c.37-.57-.57-1.39-1-.67S1.43,2.74,1.81,2.17Z" transform="translate(0 0)"/><ellipse class="cls-2" cx="2.83" cy="2.68" rx="1.18" ry="0.94"/><path class="cls-3" d="M3.86,3.5A1.23,1.23,0,1,0,1.8,2.17c-.37.57.57,1.38,1,.66S4.24,2.93,3.86,3.5Z" transform="translate(0 0)"/><rect class="cls-4" x="1.32" y="3.26" width="0.18" height="1.07" transform="translate(-1.86 1.41) rotate(-33.47)"/><rect class="cls-4" x="0.87" y="3.55" width="0.18" height="1.07" transform="translate(-2.1 1.21) rotate(-33.47)"/><rect class="cls-4" x="0.93" y="3.45" width="0.18" height="0.49" transform="matrix(0.83, -0.55, 0.55, 0.83, -1.87, 1.18)"/><rect class="cls-4" x="1.26" y="3.93" width="0.18" height="0.49" transform="translate(-2.08 1.43) rotate(-33.47)"/><rect class="cls-4" x="0.44" y="1.49" width="1.07" height="0.18" transform="translate(-0.88 1.51) rotate(-56.08)"/><rect class="cls-4" x="0.88" y="1.79" width="1.07" height="0.18" transform="translate(-0.94 2.01) rotate(-56.09)"/><rect class="cls-4" x="0.66" y="1.65" width="1.07" height="0.18" transform="matrix(0.56, -0.83, 0.83, 0.56, -0.91, 1.76)"/><rect class="cls-4" x="4.18" y="3.43" width="0.49" height="0.18" transform="translate(-0.96 5.25) rotate(-56.28)"/><rect class="cls-4" x="4.62" y="3.73" width="0.49" height="0.18" transform="translate(-1.01 5.75) rotate(-56.28)"/><rect class="cls-4" x="4.4" y="3.59" width="0.49" height="0.18" transform="translate(-0.99 5.5) rotate(-56.29)"/><rect class="cls-4" x="3.85" y="3.92" width="0.49" height="0.18" transform="translate(-1.51 5.19) rotate(-56.28)"/><rect class="cls-4" x="4.3" y="4.21" width="0.49" height="0.18" transform="translate(-1.56 5.7) rotate(-56.29)"/><rect class="cls-4" x="4.08" y="4.07" width="0.49" height="0.18" transform="translate(-1.53 5.45) rotate(-56.29)"/><rect class="cls-4" x="4.42" y="1.12" width="0.18" height="0.49" transform="translate(0.01 2.76) rotate(-34.05)"/><rect class="cls-4" x="4.75" y="1.6" width="0.18" height="0.49" transform="translate(-0.2 3.02) rotate(-34.05)"/><rect class="cls-4" x="3.98" y="1.41" width="0.18" height="0.49" transform="translate(-0.23 2.56) rotate(-34.04)"/><rect class="cls-4" x="4.31" y="1.9" width="0.18" height="0.49" transform="translate(-0.45 2.83) rotate(-34.05)"/><rect class="cls-4" x="4.36" y="1.22" width="0.18" height="1.07" transform="translate(-0.22 2.79) rotate(-34.05)"/></svg>