<?xml version="1.0" encoding="utf-8"?>
<!-- Generator: Adobe Illustrator 25.3.1, SVG Export Plug-In . SVG Version: 6.00 Build 0)  -->
<svg version="1.1" id="레이어_1" xmlns="http://www.w3.org/2000/svg" xmlns:xlink="http://www.w3.org/1999/xlink" x="0px"
	 y="0px" viewBox="0 0 24 48" style="enable-background:new 0 0 24 48;" xml:space="preserve">
<style type="text/css">
	.st0{fill:#5F63FF;}
	.st1{fill:#FFFFFF;}
	.st2{fill:#BBBBBB;}
</style>
<circle class="st0" cx="12" cy="36" r="12"/>
<g>
	<g>
		<circle class="st1" cx="12" cy="12" r="12"/>
		<path class="st2" d="M12,1.5c5.8,0,10.5,4.7,10.5,10.5S17.8,22.5,12,22.5S1.5,17.8,1.5,12S6.2,1.5,12,1.5 M12,0C5.4,0,0,5.4,0,12
			s5.4,12,12,12s12-5.4,12-12S18.6,0,12,0L12,0z"/>
	</g>
	<g>
		<polyline class="st1" points="5.5,12.7 10.2,17.7 18.5,8.3 		"/>
		<path class="st2" d="M10.2,18.4c-0.2,0-0.4-0.1-0.5-0.2l-4.8-4.9c-0.3-0.3-0.3-0.8,0-1.1c0.3-0.3,0.8-0.3,1.1,0l4.2,4.3L18,7.8
			c0.3-0.3,0.7-0.3,1.1-0.1s0.3,0.7,0.1,1.1l-8.3,9.3C10.7,18.3,10.5,18.4,10.2,18.4C10.2,18.4,10.2,18.4,10.2,18.4z"/>
	</g>
</g>
<g>
	<g>
		<path class="st1" d="M10.2,42.4c-0.2,0-0.4-0.1-0.5-0.2l-4.8-4.9c-0.3-0.3-0.3-0.8,0-1.1c0.3-0.3,0.8-0.3,1.1,0l4.2,4.3l7.8-8.7
			c0.3-0.3,0.7-0.3,1.1-0.1s0.3,0.7,0.1,1.1l-8.3,9.3C10.7,42.3,10.5,42.4,10.2,42.4C10.2,42.4,10.2,42.4,10.2,42.4z"/>
	</g>
</g>
</svg>
