<?xml version="1.0" encoding="utf-8"?>
<!-- Generator: Adobe Illustrator 25.2.0, SVG Export Plug-In . SVG Version: 6.00 Build 0)  -->
<svg version="1.1" id="레이어_1" xmlns="http://www.w3.org/2000/svg" xmlns:xlink="http://www.w3.org/1999/xlink" x="0px"
	 y="0px" viewBox="0 0 512 512" style="enable-background:new 0 0 512 512;" xml:space="preserve">
<style type="text/css">
	.st0{fill:#FFFFFF;}
	.st1{fill:#5F63FF;}
</style>
<g>
	<g>
		<g id="XMLID_1_">
			<g>
				<path class="st0" d="M512,63.9v166.3c0,5.5-4.5,10-10,10s-10-4.5-10-10V63.9c0-5.5,4.5-10,10-10S512,58.4,512,63.9z"/>
				<path class="st0" d="M472,103.3v97.6c0,5.5-4.5,10-10,10s-10-4.5-10-10v-97.6c0-5.5,4.5-10,10-10S472,97.8,472,103.3z"/>
				<path class="st0" d="M432,93.2v92.7c0,5.5-4.5,10-10,10s-10-4.5-10-10V93.2c0-5.5,4.5-10,10-10S432,87.7,432,93.2z"/>
				<path class="st0" d="M432,228.4c0,2.7-1,5.2-2.9,7.1c-1.9,1.8-4.4,2.9-7.1,2.9c-2.7,0-5.2-1-7.1-2.9c-1.8-1.9-2.9-4.5-2.9-7.1
					c0-2.7,1-5.2,2.9-7.1c1.9-1.8,4.5-2.9,7.1-2.9s5.2,1.1,7.1,2.9C430.9,223.2,432,225.8,432,228.4z"/>
				<path class="st0" d="M384,256.4c5.6,0,10,4.5,9.9,10c0,66-46.5,121.4-108.5,134.9v50.6h0.8c27.6,0,50.1,22.5,50.1,50.1
					c0,5.5-4.5,10-10,10H185.6c-5.5,0-10-4.5-10-10c0-27.6,22.5-50.1,50.1-50.1h0.8v-50.6C164.6,387.7,118,332.4,118,266.4
					c0-5.5,4.5-10,10-10c5.5,0,10,4.5,10,10c0,65.1,52.9,118,118,118s118-52.9,118-118C374,260.9,378.5,256.4,384,256.4z
					 M197.4,491.9h117.2c-4.1-11.7-15.3-20.1-28.3-20.1h-60.5C212.7,471.8,201.5,480.2,197.4,491.9z M265.5,451.8v-47.7
					c-3.2,0.2-6.3,0.3-9.5,0.3c-3.2,0-6.4-0.1-9.5-0.3v47.7H265.5z"/>
				<path class="st0" d="M392,128.3v47.6c0,5.5-4.5,10-10,10s-10-4.4-10-10v-47.6c0-5.5,4.5-10,10-10S392,122.8,392,128.3z"/>
				<path class="st0" d="M350,93.9v172.5c0,51.8-42.2,94-94,94s-94-42.1-94-94V93.9c0-51.8,42.2-94,94-94S350,42.1,350,93.9z
					 M330,266.4v-69.9H182v69.9c0,40.8,33.2,74,74,74S330,307.2,330,266.4z M330,176.5V93.9c0-40.8-33.2-74-74-74s-74,33.2-74,74
					v82.6H330z"/>
				<path class="st0" d="M330,196.5v69.9c0,40.8-33.2,74-74,74s-74-33.2-74-74v-69.9H330z M305.1,239c1.9-1.8,2.9-4.4,2.9-7.1
					s-1.1-5.2-2.9-7.1c-1.9-1.9-4.4-2.9-7.1-2.9c-2.6,0-5.2,1.1-7.1,2.9c-1.9,1.8-2.9,4.4-2.9,7.1s1.1,5.2,2.9,7.1
					c1.9,1.8,4.4,2.9,7.1,2.9C300.6,241.9,303.2,240.8,305.1,239z M308,266.4c0-5.5-4.5-10-10-10s-10,4.5-10,10
					c0,17.6-14.3,32-32,32c-5.5,0-10,4.5-10,10s4.5,10,10,10C284.7,318.4,308,295.1,308,266.4z"/>
				<path class="st0" d="M330,93.9v82.6H182V93.9c0-40.8,33.2-74,74-74S330,53.1,330,93.9z M290.4,83.9c0-5.5-4.5-10-10-10h-48.7
					c-5.5,0-10,4.5-10,10s4.4,10,10,10h48.7C285.9,93.9,290.4,89.4,290.4,83.9z M290.4,121.2c0-5.5-4.5-10-10-10h-48.7
					c-5.5,0-10,4.5-10,10s4.4,10,10,10h48.7C285.9,131.2,290.4,126.7,290.4,121.2z"/>
				<path class="st0" d="M314.6,491.9H197.4c4.1-11.7,15.3-20.1,28.4-20.1h60.5C299.3,471.8,310.5,480.2,314.6,491.9z"/>
				<path class="st0" d="M308,231.9c0,2.7-1,5.3-2.9,7.1c-1.9,1.8-4.5,2.9-7.1,2.9c-2.7,0-5.2-1.1-7.1-2.9c-1.8-1.9-2.9-4.4-2.9-7.1
					s1-5.3,2.9-7.1c1.9-1.8,4.5-2.9,7.1-2.9c2.7,0,5.2,1,7.1,2.9C306.9,226.7,308,229.2,308,231.9z"/>
				<path class="st0" d="M298,256.4c5.5,0,10,4.5,10,10c0,28.7-23.3,52-52,52c-5.5,0-10-4.5-10-10s4.5-10,10-10
					c17.7,0,32-14.4,32-32C288,260.9,292.5,256.4,298,256.4z"/>
				<path class="st0" d="M280.4,73.9c5.5,0,10,4.5,10,10s-4.5,10-10,10h-48.7c-5.6,0-10-4.5-10-10s4.5-10,10-10H280.4z"/>
				<path class="st0" d="M280.4,111.2c5.5,0,10,4.5,10,10s-4.5,10-10,10h-48.7c-5.6,0-10-4.5-10-10s4.5-10,10-10H280.4z"/>
				<path class="st0" d="M265.5,404.1v47.7h-19v-47.7c3.1,0.2,6.3,0.3,9.5,0.3C259.2,404.4,262.3,404.3,265.5,404.1z"/>
				<path class="st0" d="M140,128.3v47.6c0,5.5-4.5,10-10,10c-5.5,0-10-4.4-10-10v-47.6c0-5.5,4.5-10,10-10
					C135.5,118.3,140,122.8,140,128.3z"/>
				<path class="st0" d="M100,93.2v135.2c0,5.5-4.5,10-10,10s-10-4.5-10-10V93.2c0-5.5,4.5-10,10-10S100,87.7,100,93.2z"/>
				<path class="st0" d="M60,103.3v97.6c0,5.5-4.5,10-10,10s-10-4.5-10-10v-97.6c0-5.5,4.5-10,10-10S60,97.8,60,103.3z"/>
				<path class="st0" d="M20,63.9v166.3c0,5.5-4.5,10-10,10s-10-4.5-10-10V63.9c0-5.5,4.5-10,10-10S20,58.4,20,63.9z"/>
			</g>
			<g>
			</g>
		</g>
	</g>
	<g>
		<path class="st1" d="M256,360.5c51.8,0,94-42.2,94-94V94c0-51.8-42.2-94-94-94s-94,42.2-94,94v172.5
			C162,318.4,204.2,360.5,256,360.5z M256,20c40.8,0,74,33.2,74,74v82.6H182V94C182,53.2,215.2,20,256,20z M182,196.6h148v69.9
			c0,40.8-33.2,74-74,74s-74-33.2-74-74V196.6z"/>
		<path class="st1" d="M231.7,131.3h48.7c5.5,0,10-4.5,10-10s-4.5-10-10-10h-48.7c-5.5,0-10,4.5-10,10S226.1,131.3,231.7,131.3z"/>
		<path class="st1" d="M231.7,94h48.7c5.5,0,10-4.5,10-10s-4.5-10-10-10h-48.7c-5.5,0-10,4.5-10,10S226.1,94,231.7,94z"/>
		<path class="st1" d="M384,256.5c-5.5,0-10,4.5-10,10c0,65.1-52.9,118-118,118s-118-52.9-118-118c0-5.5-4.5-10-10-10s-10,4.5-10,10
			c0,66,46.6,121.3,108.5,134.9V452h-0.8c-27.6,0-50.1,22.5-50.1,50.1c0,5.5,4.5,10,10,10h140.7c5.5,0,10-4.5,10-10
			c0-27.6-22.5-50.1-50.1-50.1h-0.8v-50.6c62-13.5,108.5-68.9,108.5-134.9C394,261,389.6,256.5,384,256.5z M314.6,492H197.4
			c4.1-11.7,15.3-20.1,28.4-20.1h60.5C299.3,471.9,310.5,480.2,314.6,492z M265.5,451.9h-19v-47.7c3.1,0.2,6.3,0.3,9.5,0.3
			c3.2,0,6.3-0.1,9.5-0.3V451.9z"/>
		<path class="st1" d="M50,93.4c-5.5,0-10,4.5-10,10V201c0,5.5,4.5,10,10,10s10-4.5,10-10v-97.6C60,97.9,55.5,93.4,50,93.4z"/>
		<path class="st1" d="M130,186c5.5,0,10-4.5,10-10v-47.6c0-5.5-4.5-10-10-10s-10,4.5-10,10V176C120,181.6,124.5,186,130,186z"/>
		<path class="st1" d="M10,54C4.5,54,0,58.5,0,64v166.3c0,5.5,4.5,10,10,10s10-4.5,10-10V64C20,58.5,15.5,54,10,54z"/>
		<path class="st1" d="M90,83.3c-5.5,0-10,4.5-10,10v135.2c0,5.5,4.5,10,10,10s10-4.5,10-10V93.3C100,87.8,95.5,83.3,90,83.3z"/>
		<path class="st1" d="M462,93.4c-5.5,0-10,4.5-10,10V201c0,5.5,4.5,10,10,10s10-4.5,10-10v-97.6C472,97.9,467.5,93.4,462,93.4z"/>
		<path class="st1" d="M382,186c5.5,0,10-4.5,10-10v-47.6c0-5.5-4.5-10-10-10s-10,4.5-10,10V176C372,181.6,376.5,186,382,186z"/>
		<path class="st1" d="M502,54c-5.5,0-10,4.5-10,10v166.3c0,5.5,4.5,10,10,10s10-4.5,10-10V64C512,58.5,507.5,54,502,54z"/>
		<path class="st1" d="M422,218.5c-2.6,0-5.2,1.1-7.1,2.9c-1.9,1.9-2.9,4.4-2.9,7.1c0,2.6,1.1,5.2,2.9,7.1c1.9,1.9,4.4,2.9,7.1,2.9
			s5.2-1.1,7.1-2.9c1.9-1.9,2.9-4.4,2.9-7.1c0-2.6-1.1-5.2-2.9-7.1C427.2,219.6,424.6,218.5,422,218.5z"/>
		<path class="st1" d="M422,83.3c-5.5,0-10,4.5-10,10V186c0,5.5,4.5,10,10,10s10-4.5,10-10V93.3C432,87.8,427.5,83.3,422,83.3z"/>
		<path class="st1" d="M256,318.5c28.7,0,52-23.3,52-52c0-5.5-4.5-10-10-10s-10,4.5-10,10c0,17.6-14.3,32-32,32c-5.5,0-10,4.5-10,10
			S250.5,318.5,256,318.5z"/>
		<path class="st1" d="M298,242c2.6,0,5.2-1.1,7.1-2.9s2.9-4.4,2.9-7.1s-1.1-5.2-2.9-7.1c-1.9-1.9-4.4-2.9-7.1-2.9
			c-2.6,0-5.2,1.1-7.1,2.9s-2.9,4.4-2.9,7.1s1.1,5.2,2.9,7.1C292.8,240.9,295.3,242,298,242z"/>
	</g>
</g>
</svg>
