<svg id="Capa_1" data-name="Capa 1" xmlns="http://www.w3.org/2000/svg" viewBox="0 0 477.87 341.33"><defs><style>.cls-1{fill:#fff;}</style></defs><path class="cls-1" d="M426.67,68.27H51.2A51.2,51.2,0,0,0,0,119.47V358.4a51.2,51.2,0,0,0,51.2,51.2H426.67a51.2,51.2,0,0,0,51.2-51.2V119.47A51.2,51.2,0,0,0,426.67,68.27ZM443.73,266,336.33,158.6a17.07,17.07,0,0,0-24.13,0L170.67,300.13l-56.2-56.2a17.08,17.08,0,0,0-24.14,0l-56.2,56.2V119.47A17.07,17.07,0,0,1,51.2,102.4H426.67a17.06,17.06,0,0,1,17.06,17.07V266Z" transform="translate(0 -68.27)"/><circle class="cls-1" cx="153.6" cy="119.47" r="51.2"/></svg>