<?xml version="1.0" encoding="utf-8"?>
<!-- Generator: Adobe Illustrator 25.2.0, SVG Export Plug-In . SVG Version: 6.00 Build 0)  -->
<svg version="1.1" id="레이어_1" xmlns="http://www.w3.org/2000/svg" xmlns:xlink="http://www.w3.org/1999/xlink" x="0px"
	 y="0px" viewBox="0 0 512 512" style="enable-background:new 0 0 512 512;" xml:space="preserve">
<style type="text/css">
	.st0{fill:#FFFFFF;}
	.st1{fill:#5F63FF;}
</style>
<g>
	<g>
		<g id="XMLID_1_">
			<g>
				<path class="st0" d="M503.2,492.4c1.2,2.5,1.1,5.4-0.3,7.8c-1.5,2.4-4,3.8-6.8,3.8H16c-2.8,0-5.3-1.4-6.8-3.8
					c-1.5-2.4-1.6-5.3-0.4-7.8l120-240c1.4-2.7,4.1-4.4,7.2-4.4h111.1l-1-4.4C214,232.7,192,202.2,192,168c0-44.1,35.9-80,80-80
					c44.1,0,80,35.9,80,80c0,34.2-22,64.7-54.1,75.6l-1,4.4H376c3,0,5.8,1.7,7.2,4.4L503.2,492.4z M483.1,488l-8-16H296v-16h19.4
					l29.7-52c2.8-5,11-5,13.9,0l12.2,21.5l15.1-15.1c1.7-1.7,4-2.6,6.5-2.3c2.4,0.2,4.5,1.5,5.9,3.5l29.6,44.4h38.8l-32-64H315.3
					l-56,56l40,40H483.1z M427.1,376l-8-16H299.3l-69.7,69.7c-1.6,1.6-3.6,2.3-5.7,2.3c-2,0-4.1-0.8-5.6-2.3l-48-48
					c-3.1-3.1-3.1-8.2,0-11.3l45.6-45.7V264h-16v48c0,2.1-0.8,4.2-2.3,5.7l-40,40c-1.6,1.6-3.6,2.3-5.7,2.3c-2,0-4.1-0.8-5.7-2.3
					l-34.8-34.8l-8.4,16.9l62.6,62.6c3.1,3.1,3.1,8.2,0,11.3L91.3,488h25.4l61.7-61.7c3.1-3.1,8.2-3.1,11.3,0l61.7,61.7h25.4
					l-34.3-34.3c-3.1-3.1-3.1-8.2,0-11.3l64-64c1.5-1.5,3.5-2.3,5.7-2.3H427.1z M411.1,344l-40-80h-77.9l-13.4,57.8
					c-0.8,3.6-4.1,6.2-7.8,6.2c-3.7,0-7-2.6-7.8-6.2L250.8,264H232v64c0,2.1-0.8,4.2-2.3,5.7L187.3,376l36.7,36.7l66.3-66.3
					c1.5-1.5,3.5-2.3,5.7-2.3H411.1z M409.1,456l-18.3-27.4l-11.3,11.3l9.2,16.1H409.1z M370.2,456L352,424.1L333.8,456H370.2z
					 M289,229.6c27.7-7.6,47-33,47-61.6c0-35.3-28.7-64-64-64c-35.3,0-64,28.7-64,64c0,28.7,19.3,54,47,61.6c2.8,0.8,5,3.1,5.7,5.9
					l11.3,48.9l11.3-48.9C284,232.7,286.2,230.4,289,229.6z M139.3,488h89.4L184,443.3L139.3,488z M184,308.7V264h-43.1l-21.9,43.8
					l32.9,32.9L184,308.7z M68.7,488l80-80l-53.2-53.2L28.9,488H68.7z"/>
				<path class="st0" d="M475.1,472l8,16H299.3l-40-40l56-56h119.7l32,64h-38.8l-29.6-44.4c-1.3-2-3.5-3.3-5.9-3.5
					c-2.4-0.2-4.8,0.6-6.5,2.3l-15.1,15.1L358.9,404c-2.8-5-11-5-13.9,0l-29.7,52H296v16H475.1z"/>
				<path class="st0" d="M419.1,360l8,16H312c-2.1,0-4.2,0.8-5.7,2.3l-64,64c-3.1,3.1-3.1,8.2,0,11.3l34.3,34.3h-25.4l-61.7-61.7
					c-3.1-3.1-8.2-3.1-11.3,0L116.7,488H91.3l74.3-74.3c3.1-3.1,3.1-8.2,0-11.3l-62.6-62.6l8.4-16.9l34.8,34.8
					c1.6,1.6,3.6,2.3,5.7,2.3c2.1,0,4.1-0.8,5.7-2.3l40-40c1.5-1.5,2.3-3.5,2.3-5.7v-48h16v60.7l-45.6,45.7c-3.1,3.1-3.1,8.2,0,11.3
					l48,48c1.6,1.6,3.6,2.3,5.6,2.3c2.1,0,4.1-0.8,5.7-2.3l69.7-69.7H419.1z"/>
				<path class="st0" d="M371.1,264l40,80H296c-2.1,0-4.2,0.8-5.7,2.3L224,412.7L187.3,376l42.3-42.3c1.5-1.5,2.3-3.5,2.3-5.7v-64
					h18.8l13.4,57.8c0.9,3.6,4.1,6.2,7.8,6.2c3.7,0,7-2.6,7.8-6.2l13.4-57.8H371.1z"/>
				<polygon class="st0" points="390.8,428.6 409.1,456 388.6,456 379.4,439.9 				"/>
				<polygon class="st0" points="352,424.1 370.2,456 333.8,456 				"/>
				<path class="st0" d="M336,168c0,28.7-19.3,54-47,61.6c-2.8,0.8-5,3.1-5.7,5.9L272,284.5l-11.3-48.9c-0.7-2.9-2.8-5.1-5.7-5.9
					c-27.7-7.6-47-33-47-61.6c0-35.3,28.7-64,64-64C307.3,104,336,132.7,336,168z M304,168h16c0-26.5-21.5-48-48-48v16
					C289.6,136,304,150.3,304,168z M316,187.2l-14.7-6.4c-2.2,5.1-5.7,9.5-10.1,12.8l9.6,12.8C307.4,201.4,312.7,194.8,316,187.2z"
					/>
				<path class="st0" d="M320,168h-16c0-17.6-14.4-32-32-32v-16C298.5,120,320,141.5,320,168z"/>
				<path class="st0" d="M301.3,180.8l14.7,6.4c-3.3,7.6-8.6,14.2-15.2,19.2l-9.6-12.8C295.6,190.3,299.1,185.8,301.3,180.8z"/>
				<polygon class="st0" points="228.7,488 139.3,488 184,443.3 				"/>
				<polygon class="st0" points="184,264 184,308.7 152,340.7 119.1,307.7 140.9,264 				"/>
				<path class="st0" d="M183.1,124.2c1.4,2.6,1.2,5.8-0.4,8.2l-13,19.6l13,19.6c1.6,2.5,1.8,5.6,0.4,8.2S179,184,176,184h-56v72
					c0,4.4-3.6,8-8,8H80c-4.4,0-8-3.6-8-8v-72H32c-2.7,0-5.2-1.3-6.6-3.6l-16-24c-1.8-2.7-1.8-6.2,0-8.9l16-24
					c1.5-2.2,4-3.6,6.6-3.6h40v-16H16c-2.9,0-5.7-1.6-7-4.2c-1.4-2.6-1.2-5.8,0.4-8.2l13-19.6l-13-19.6c-1.6-2.5-1.8-5.6-0.4-8.2
					c1.4-2.6,4.1-4.2,7-4.2h56V16c0-4.4,3.6-8,8-8h32c4.4,0,8,3.6,8,8v24h40c2.7,0,5.2,1.3,6.7,3.6l16,24c1.8,2.7,1.8,6.2,0,8.9
					l-16,24c-1.5,2.2-4,3.6-6.7,3.6h-40v16h56C179,120,181.7,121.6,183.1,124.2z M166.4,72l-10.7-16H30.9l7.7,11.6
					c1.8,2.7,1.8,6.2,0,8.9L30.9,88h124.8L166.4,72z M153.3,147.6l7.7-11.6H36.3l-10.7,16l10.7,16h124.8l-7.7-11.6
					C151.6,153.7,151.6,150.2,153.3,147.6z M104,248v-64H88v64H104z M104,120v-16H88v16H104z M104,40V24H88v16H104z"/>
				<path class="st0" d="M155.7,56l10.7,16l-10.7,16H30.9l7.7-11.6c1.8-2.7,1.8-6.2,0-8.9L30.9,56H155.7z M152,80V64h-16v16H152z
					 M120,80V64h-16v16H120z"/>
				<path class="st0" d="M161.1,136l-7.7,11.6c-1.8,2.7-1.8,6.2,0,8.9l7.7,11.6H36.3l-10.7-16l10.7-16H161.1z M88,160v-16H72v16H88z
					 M56,160v-16H40v16H56z"/>
				<rect x="136" y="64" class="st0" width="16" height="16"/>
				<polygon class="st0" points="148.7,408 68.7,488 28.9,488 95.5,354.8 				"/>
				<rect x="104" y="64" class="st0" width="16" height="16"/>
				<rect x="88" y="184" class="st0" width="16" height="64"/>
				<rect x="88" y="104" class="st0" width="16" height="16"/>
				<rect x="88" y="24" class="st0" width="16" height="16"/>
				<rect x="72" y="144" class="st0" width="16" height="16"/>
				<rect x="40" y="144" class="st0" width="16" height="16"/>
			</g>
			<g>
			</g>
		</g>
	</g>
	<g>
		<path class="st1" d="M503.2,492.4l-120-240c-1.4-2.7-4.1-4.4-7.2-4.4h-79.1l1-4.4c32.1-11,54.1-41.4,54.1-75.6
			c0-44.1-35.9-80-80-80s-80,35.9-80,80c0,34.2,22,64.7,54.1,75.6l1,4.4H136c-3,0-5.8,1.7-7.2,4.4l-120,240
			c-1.2,2.5-1.1,5.4,0.4,7.8c1.5,2.4,4,3.8,6.8,3.8h480c2.8,0,5.3-1.4,6.8-3.8C504.3,497.8,504.4,494.9,503.2,492.4z M242.3,453.7
			l34.3,34.3h-25.4l-61.7-61.7c-3.1-3.1-8.2-3.1-11.3,0L116.7,488H91.3l74.3-74.3c3.1-3.1,3.1-8.2,0-11.3l-62.6-62.6l8.5-16.9
			l34.8,34.8c1.6,1.6,3.6,2.4,5.7,2.4s4.1-0.8,5.7-2.3l40-40c1.5-1.5,2.3-3.5,2.3-5.7v-48h16v60.7l-45.7,45.7
			c-3.1,3.1-3.1,8.2,0,11.3l48,48c1.6,1.6,3.6,2.3,5.7,2.3s4.1-0.8,5.7-2.3l69.7-69.7h119.7l8,16H312c-2.1,0-4.2,0.8-5.7,2.3l-64,64
			C239.2,445.5,239.2,450.5,242.3,453.7L242.3,453.7z M228.7,488h-89.4l44.7-44.7L228.7,488z M208,168c0-35.3,28.7-64,64-64
			s64,28.7,64,64c0,28.7-19.3,54-47,61.6c-2.8,0.8-5,3-5.7,5.9L272,284.5l-11.3-48.9c-0.7-2.9-2.8-5.1-5.7-5.9
			C227.3,222,208,196.7,208,168L208,168z M264.2,321.8c0.8,3.6,4.1,6.2,7.8,6.2s7-2.6,7.8-6.2l13.4-57.8h77.9l40,80H296
			c-2.1,0-4.2,0.8-5.7,2.3L224,412.7L187.3,376l42.3-42.3c1.5-1.5,2.3-3.5,2.3-5.7v-64h18.8L264.2,321.8z M140.9,264H184v44.7
			l-32,32l-32.9-32.9L140.9,264z M95.5,354.8l53.2,53.2l-80,80H28.9L95.5,354.8z M299.3,488l-40-40l56-56h119.7l32,64h-38.8
			l-29.6-44.4c-1.3-2-3.5-3.3-5.9-3.5c-2.4-0.2-4.8,0.6-6.4,2.3l-15.1,15.1L358.9,404c-2.8-5-11-5-13.9,0l-29.7,52H296v16h179.1
			l8,16H299.3z M370.2,456h-36.4l18.2-31.9L370.2,456z M388.6,456l-9.2-16.1l11.3-11.3l18.3,27.4H388.6z"/>
		<path class="st1" d="M304,168h16c0-26.5-21.5-48-48-48v16C289.6,136,304,150.4,304,168z"/>
		<path class="st1" d="M291.2,193.6l9.6,12.8c6.6-5,11.9-11.6,15.2-19.2l-14.7-6.4C299.1,185.8,295.6,190.3,291.2,193.6L291.2,193.6
			z"/>
		<path class="st1" d="M32,120c-2.7,0-5.2,1.3-6.7,3.6l-16,24c-1.8,2.7-1.8,6.2,0,8.9l16,24c1.5,2.2,4,3.6,6.7,3.6h40v72
			c0,4.4,3.6,8,8,8h32c4.4,0,8-3.6,8-8v-72h56c3,0,5.7-1.6,7.1-4.2s1.2-5.8-0.4-8.2l-13-19.6l13-19.6c1.6-2.5,1.8-5.6,0.4-8.2
			S179,120,176,120h-56v-16h40c2.7,0,5.2-1.3,6.7-3.6l16-24c1.8-2.7,1.8-6.2,0-8.9l-16-24c-1.5-2.2-4-3.6-6.7-3.6h-40V16
			c0-4.4-3.6-8-8-8H80c-4.4,0-8,3.6-8,8v24H16c-3,0-5.7,1.6-7.1,4.2S7.7,50,9.3,52.4l13,19.6l-13,19.6c-1.6,2.5-1.8,5.6-0.4,8.2
			S13,104,16,104h56v16H32z M104,248H88v-64h16V248z M153.3,156.4l7.7,11.6H36.3l-10.7-16l10.7-16h124.8l-7.7,11.6
			C151.6,150.2,151.6,153.8,153.3,156.4z M88,24h16v16H88V24z M38.7,67.6L30.9,56h124.8l10.7,16l-10.7,16H30.9l7.7-11.6
			C40.4,73.8,40.4,70.2,38.7,67.6z M88,104h16v16H88V104z"/>
		<path class="st1" d="M40,144h16v16H40V144z"/>
		<path class="st1" d="M72,144h16v16H72V144z"/>
		<path class="st1" d="M136,64h16v16h-16V64z"/>
		<path class="st1" d="M104,64h16v16h-16V64z"/>
	</g>
</g>
</svg>
