<svg id="레이어_1" data-name="레이어 1" xmlns="http://www.w3.org/2000/svg" xmlns:xlink="http://www.w3.org/1999/xlink" viewBox="0 0 5.66 5.66"><defs><style>.cls-1{fill:none;}.cls-2{fill:#fff;}.cls-3{clip-path:url(#clip-path);}.cls-4{fill:#d20037;}.cls-5{fill:#c40d3c;}.cls-6{fill:#00205c;}</style><clipPath id="clip-path"><circle id="SVGID" class="cls-1" cx="2.83" cy="2.83" r="2.83"/></clipPath></defs><circle class="cls-2" cx="2.83" cy="2.83" r="2.83"/><g class="cls-3"><rect class="cls-1" x="-1.1" y="3.72" width="10.23" height="0.41"/><rect class="cls-4" x="-1.1" y="3.3" width="10.23" height="0.41"/><rect class="cls-4" x="-1.1" y="4.96" width="10.23" height="0.41"/><rect class="cls-4" x="-1.1" y="4.13" width="10.23" height="0.41"/><rect class="cls-1" x="-1.1" y="2.89" width="10.23" height="0.41"/><rect class="cls-1" x="-1.1" y="4.54" width="10.23" height="0.41"/><rect class="cls-1" x="-1.1" y="2.06" width="10.23" height="0.41"/><rect class="cls-4" x="-1.1" y="2.47" width="10.23" height="0.41"/><rect class="cls-1" x="-1.1" y="0.4" width="10.23" height="0.41"/><rect class="cls-4" x="-1.1" y="0.82" width="10.23" height="0.41"/><rect class="cls-5" x="-1.1" y="-0.01" width="10.23" height="0.41"/><rect class="cls-1" x="-1.1" y="1.23" width="10.23" height="0.41"/><rect class="cls-4" x="-1.1" y="1.65" width="10.23" height="0.41"/><rect class="cls-6" x="-1.1" y="-0.01" width="4.09" height="2.89"/><polygon class="cls-2" points="0.24 0.35 0.28 0.48 0.41 0.48 0.31 0.56 0.35 0.69 0.24 0.61 0.13 0.69 0.17 0.56 0.06 0.48 0.2 0.48 0.24 0.35"/><polygon class="cls-2" points="0.92 0.35 0.96 0.48 1.09 0.48 0.98 0.56 1.03 0.69 0.92 0.61 0.81 0.69 0.85 0.56 0.74 0.48 0.88 0.48 0.92 0.35"/><polygon class="cls-2" points="1.61 0.35 1.65 0.48 1.78 0.48 1.67 0.56 1.71 0.69 1.61 0.61 1.5 0.69 1.54 0.56 1.43 0.48 1.56 0.48 1.61 0.35"/><polygon class="cls-2" points="2.28 0.35 2.32 0.48 2.46 0.48 2.35 0.56 2.39 0.69 2.28 0.61 2.17 0.69 2.22 0.56 2.11 0.48 2.24 0.48 2.28 0.35"/><polygon class="cls-2" points="0.24 0.94 0.28 1.07 0.41 1.07 0.31 1.15 0.35 1.28 0.24 1.2 0.13 1.28 0.17 1.15 0.06 1.07 0.2 1.07 0.24 0.94"/><polygon class="cls-2" points="0.92 0.94 0.96 1.07 1.09 1.07 0.98 1.15 1.03 1.28 0.92 1.2 0.81 1.28 0.85 1.15 0.74 1.07 0.88 1.07 0.92 0.94"/><polygon class="cls-2" points="1.61 0.94 1.65 1.07 1.78 1.07 1.67 1.15 1.71 1.28 1.61 1.2 1.5 1.28 1.54 1.15 1.43 1.07 1.56 1.07 1.61 0.94"/><polygon class="cls-2" points="2.28 0.94 2.32 1.07 2.46 1.07 2.35 1.15 2.39 1.28 2.28 1.2 2.17 1.28 2.22 1.15 2.11 1.07 2.24 1.07 2.28 0.94"/><polygon class="cls-2" points="0.24 1.52 0.28 1.65 0.41 1.65 0.31 1.73 0.35 1.86 0.24 1.78 0.13 1.86 0.17 1.73 0.06 1.65 0.2 1.65 0.24 1.52"/><polygon class="cls-2" points="0.92 1.52 0.96 1.65 1.09 1.65 0.98 1.73 1.03 1.86 0.92 1.78 0.81 1.86 0.85 1.73 0.74 1.65 0.88 1.65 0.92 1.52"/><polygon class="cls-2" points="1.61 1.52 1.65 1.65 1.78 1.65 1.67 1.73 1.71 1.86 1.61 1.78 1.5 1.86 1.54 1.73 1.43 1.65 1.56 1.65 1.61 1.52"/><polygon class="cls-2" points="2.28 1.52 2.32 1.65 2.46 1.65 2.35 1.73 2.39 1.86 2.28 1.78 2.17 1.86 2.22 1.73 2.11 1.65 2.24 1.65 2.28 1.52"/><polygon class="cls-2" points="0.24 2.11 0.28 2.24 0.41 2.24 0.31 2.32 0.35 2.44 0.24 2.37 0.13 2.44 0.17 2.32 0.06 2.24 0.2 2.24 0.24 2.11"/><polygon class="cls-2" points="0.92 2.11 0.96 2.24 1.09 2.24 0.98 2.32 1.03 2.44 0.92 2.37 0.81 2.44 0.85 2.32 0.74 2.24 0.88 2.24 0.92 2.11"/><polygon class="cls-2" points="1.61 2.11 1.65 2.24 1.78 2.24 1.67 2.32 1.71 2.44 1.61 2.37 1.5 2.44 1.54 2.32 1.43 2.24 1.56 2.24 1.61 2.11"/><polygon class="cls-2" points="2.28 2.11 2.32 2.24 2.46 2.24 2.35 2.32 2.39 2.44 2.28 2.37 2.17 2.44 2.22 2.32 2.11 2.24 2.24 2.24 2.28 2.11"/><polygon class="cls-2" points="-0.1 0.65 -0.06 0.78 0.07 0.78 -0.04 0.85 0.01 0.98 -0.1 0.9 -0.21 0.98 -0.17 0.85 -0.28 0.78 -0.14 0.78 -0.1 0.65"/><polygon class="cls-2" points="0.58 0.65 0.62 0.78 0.75 0.78 0.64 0.85 0.68 0.98 0.58 0.9 0.47 0.98 0.51 0.85 0.4 0.78 0.54 0.78 0.58 0.65"/><polygon class="cls-2" points="1.26 0.65 1.3 0.78 1.44 0.78 1.33 0.85 1.37 0.98 1.26 0.9 1.15 0.98 1.2 0.85 1.09 0.78 1.22 0.78 1.26 0.65"/><polygon class="cls-2" points="1.94 0.65 1.98 0.78 2.12 0.78 2.01 0.85 2.05 0.98 1.94 0.9 1.83 0.98 1.88 0.85 1.77 0.78 1.9 0.78 1.94 0.65"/><polygon class="cls-2" points="2.63 0.65 2.67 0.78 2.8 0.78 2.69 0.85 2.73 0.98 2.63 0.9 2.52 0.98 2.56 0.85 2.45 0.78 2.58 0.78 2.63 0.65"/><polygon class="cls-2" points="-0.1 0.06 -0.06 0.19 0.07 0.19 -0.04 0.27 0.01 0.4 -0.1 0.32 -0.21 0.4 -0.17 0.27 -0.28 0.19 -0.14 0.19 -0.1 0.06"/><polygon class="cls-2" points="0.58 0.06 0.62 0.19 0.75 0.19 0.64 0.27 0.68 0.4 0.58 0.32 0.47 0.4 0.51 0.27 0.4 0.19 0.54 0.19 0.58 0.06"/><polygon class="cls-2" points="1.26 0.06 1.3 0.19 1.44 0.19 1.33 0.27 1.37 0.4 1.26 0.32 1.15 0.4 1.2 0.27 1.09 0.19 1.22 0.19 1.26 0.06"/><polygon class="cls-2" points="1.94 0.06 1.98 0.19 2.12 0.19 2.01 0.27 2.05 0.4 1.94 0.32 1.83 0.4 1.88 0.27 1.77 0.19 1.9 0.19 1.94 0.06"/><polygon class="cls-2" points="2.63 0.06 2.67 0.19 2.8 0.19 2.69 0.27 2.73 0.4 2.63 0.32 2.52 0.4 2.56 0.27 2.45 0.19 2.58 0.19 2.63 0.06"/><polygon class="cls-2" points="-0.1 1.23 -0.06 1.36 0.07 1.36 -0.04 1.44 0.01 1.57 -0.1 1.49 -0.21 1.57 -0.17 1.44 -0.28 1.36 -0.14 1.36 -0.1 1.23"/><polygon class="cls-2" points="0.58 1.23 0.62 1.36 0.75 1.36 0.64 1.44 0.68 1.57 0.58 1.49 0.47 1.57 0.51 1.44 0.4 1.36 0.54 1.36 0.58 1.23"/><polygon class="cls-2" points="1.26 1.23 1.3 1.36 1.44 1.36 1.33 1.44 1.37 1.57 1.26 1.49 1.15 1.57 1.2 1.44 1.09 1.36 1.22 1.36 1.26 1.23"/><polygon class="cls-2" points="1.94 1.23 1.98 1.36 2.12 1.36 2.01 1.44 2.05 1.57 1.94 1.49 1.83 1.57 1.88 1.44 1.77 1.36 1.9 1.36 1.94 1.23"/><polygon class="cls-2" points="2.63 1.23 2.67 1.36 2.8 1.36 2.69 1.44 2.73 1.57 2.63 1.49 2.52 1.57 2.56 1.44 2.45 1.36 2.58 1.36 2.63 1.23"/><polygon class="cls-2" points="-0.1 1.82 -0.06 1.95 0.07 1.95 -0.04 2.03 0.01 2.16 -0.1 2.08 -0.21 2.16 -0.17 2.03 -0.28 1.95 -0.14 1.95 -0.1 1.82"/><polygon class="cls-2" points="0.58 1.82 0.62 1.95 0.75 1.95 0.64 2.03 0.68 2.16 0.58 2.08 0.47 2.16 0.51 2.03 0.4 1.95 0.54 1.95 0.58 1.82"/><polygon class="cls-2" points="1.26 1.82 1.3 1.95 1.44 1.95 1.33 2.03 1.37 2.16 1.26 2.08 1.15 2.16 1.2 2.03 1.09 1.95 1.22 1.95 1.26 1.82"/><polygon class="cls-2" points="1.94 1.82 1.98 1.95 2.12 1.95 2.01 2.03 2.05 2.16 1.94 2.08 1.83 2.16 1.88 2.03 1.77 1.95 1.9 1.95 1.94 1.82"/><polygon class="cls-2" points="2.63 1.82 2.67 1.95 2.8 1.95 2.69 2.03 2.73 2.16 2.63 2.08 2.52 2.16 2.56 2.03 2.45 1.95 2.58 1.95 2.63 1.82"/><polygon class="cls-2" points="-0.1 2.4 -0.06 2.53 0.07 2.53 -0.04 2.61 0.01 2.73 -0.1 2.65 -0.21 2.73 -0.17 2.61 -0.28 2.53 -0.14 2.53 -0.1 2.4"/><polygon class="cls-2" points="0.58 2.4 0.62 2.53 0.75 2.53 0.64 2.61 0.68 2.73 0.58 2.65 0.47 2.73 0.51 2.61 0.4 2.53 0.54 2.53 0.58 2.4"/><polygon class="cls-2" points="1.26 2.4 1.3 2.53 1.44 2.53 1.33 2.61 1.37 2.73 1.26 2.65 1.15 2.73 1.2 2.61 1.09 2.53 1.22 2.53 1.26 2.4"/><polygon class="cls-2" points="1.94 2.4 1.98 2.53 2.12 2.53 2.01 2.61 2.05 2.73 1.94 2.65 1.83 2.73 1.88 2.61 1.77 2.53 1.9 2.53 1.94 2.4"/><polygon class="cls-2" points="2.63 2.4 2.67 2.53 2.8 2.53 2.69 2.61 2.73 2.73 2.63 2.65 2.52 2.73 2.56 2.61 2.45 2.53 2.58 2.53 2.63 2.4"/></g></svg>