<?xml version="1.0" encoding="utf-8"?>
<!-- Generator: Adobe Illustrator 25.2.3, SVG Export Plug-In . SVG Version: 6.00 Build 0)  -->
<svg version="1.1" id="레이어_1" xmlns="http://www.w3.org/2000/svg" xmlns:xlink="http://www.w3.org/1999/xlink" x="0px"
	 y="0px" viewBox="0 0 243.1 61.3" style="enable-background:new 0 0 243.1 61.3;" xml:space="preserve">
<style type="text/css">
	.st0{fill:#3826BF;}
	.st1{fill:#B5B5B6;}
	.st2{fill:#F45D5D;}
	.st3{fill:#FFFFFF;}
</style>
<path class="st0" d="M72.4,42.1c0-6,4.2-9.5,8.8-9.5s8.8,3.5,8.8,9.5s-4.2,9.5-8.8,9.5S72.4,48.1,72.4,42.1z M84.6,42.1
	c0-3.1-1.1-5.2-3.3-5.2s-3.3,2-3.3,5.2s1.1,5.1,3.3,5.1S84.6,45.2,84.6,42.1z"/>
<path class="st0" d="M95.8,56.4l0.3-1.1c0.2-0.7,0.8-1.2,1.6-1.2l0,0c1.5,0.1,2.8-0.9,3.2-2.4l0.1-0.5c0.1-0.3,0.1-0.6,0-1l-6-15.1
	c-0.3-0.8,0.1-1.6,0.9-1.9c0.2-0.1,0.3-0.1,0.5-0.1h2.1c0.6,0,1.2,0.4,1.4,1l2.1,6.7c0.5,1.6,1,3.4,1.4,5.1h0.1
	c0.4-1.7,0.8-3.4,1.3-5.1l1.9-6.7c0.2-0.6,0.8-1.1,1.4-1.1h1.9c0.8,0,1.5,0.7,1.5,1.5c0,0.2,0,0.3-0.1,0.5l-5.6,16.3
	c-1.7,4.5-3.6,6.9-7.9,6.9c-0.4,0-0.7,0-1,0c-0.8-0.1-1.4-0.8-1.3-1.6C95.7,56.6,95.7,56.5,95.8,56.4z"/>
<path class="st1" d="M125.9,48.1L125.9,48.1c0.7-0.9,1.8-1.2,2.6-0.7c1,0.6,2.1,0.9,3.2,0.9c1.6,0,2.3-0.6,2.3-1.6
	c0-1.2-1.8-1.7-3.7-2.5c-2.2-0.9-4.8-2.3-4.8-5.3c0-3.4,2.7-5.7,6.9-5.7c1.5,0,3.1,0.4,4.5,1.1c1,0.5,1.3,1.7,0.8,2.7
	c0,0.1-0.1,0.1-0.1,0.2l-0.1,0.1c-0.6,0.8-1.7,1-2.5,0.5c-0.7-0.4-1.5-0.6-2.4-0.6c-1.4,0-2.1,0.5-2.1,1.5c0,1.1,1.7,1.6,3.6,2.3
	c2.3,0.9,4.9,2.1,4.9,5.5s-2.6,5.8-7.4,5.8c-1.8,0-3.5-0.5-5.1-1.3c-1-0.5-1.3-1.7-0.8-2.7C125.8,48.2,125.8,48.2,125.9,48.1z"/>
<path class="st1" d="M144.5,45.7v-6.1c0-0.7-0.6-1.2-1.2-1.2l0,0l0,0c-0.7,0-1.2-0.6-1.2-1.2l0,0v-1.6c0-0.6,0.5-1.2,1.1-1.2h0.6
	c0.6-0.1,1.1-0.5,1.1-1.1l0.4-2.7c0.1-0.6,0.6-1.1,1.2-1.1h2.1c0.7,0,1.2,0.6,1.2,1.2V33c0,0.7,0.6,1.2,1.2,1.2h1.9
	c0.7,0,1.2,0.6,1.2,1.2l0,0v1.7c0,0.7-0.5,1.2-1.2,1.2l0,0H151c-0.7,0-1.2,0.5-1.2,1.2v6c0,2,0.9,2.9,2.4,2.9c0.2,0,0.4,0,0.6,0
	c0.7-0.1,1.3,0.3,1.4,1l0.3,1.5c0.2,0.7-0.2,1.3-0.9,1.5c-0.9,0.2-1.9,0.3-2.8,0.3C146.2,52.8,144.5,49.9,144.5,45.7z"/>
<path class="st1" d="M220.2,45.7v-6.1c0-0.7-0.6-1.2-1.2-1.2l0,0c-0.7,0-1.2-0.6-1.2-1.2v-1.6c0-0.6,0.5-1.2,1.1-1.2h0.6
	c0.6-0.1,1.1-0.5,1.1-1.1l0.4-2.7c0.1-0.6,0.6-1.1,1.2-1.1h2.1c0.7,0,1.2,0.6,1.2,1.2V33c0,0.7,0.6,1.2,1.2,1.2l0,0h1.9
	c0.7,0,1.2,0.6,1.2,1.2v1.7c0,0.7-0.6,1.2-1.2,1.2h-1.9c-0.7,0-1.2,0.6-1.2,1.2l0,0v6c0,2,0.9,2.9,2.3,2.9c0.2,0,0.4,0,0.6,0
	c0.7-0.1,1.3,0.3,1.4,1l0.3,1.5c0.1,0.7-0.3,1.3-0.9,1.5c-0.9,0.2-1.9,0.3-2.9,0.3C222,52.8,220.2,49.9,220.2,45.7z"/>
<circle class="st1" cx="63.1" cy="31.6" r="2.7"/>
<path class="st0" d="M64.3,36.1h-1.8c-1,0-1.8,0.8-1.8,1.8l0,0v16.4c0,2-0.5,2.9-1.9,2.9c-0.9,0-1.7,0.6-1.8,1.5l-0.1,0.5
	c-0.2,0.9,0.3,1.9,1.3,2.1c0.1,0,0.2,0,0.2,0c0.4,0,0.8,0.1,1.2,0.1c4.9,0,6.5-3.3,6.5-7.3V37.8C66,36.8,65.2,36.1,64.3,36.1z"/>
<path class="st0" d="M15.5,21.4C7.6,21.4,0,27.3,0,36.8c0,9.7,7.2,15.3,16.6,15.3c2.9,0,5.8-0.6,8.5-1.7c1.5-0.5,2.3-2.2,1.8-3.7
	c-0.1-0.2-0.2-0.4-0.3-0.5l0,0c-0.9-1.4-2.7-2-4.3-1.4c-1.2,0.4-2.4,0.6-3.7,0.7l0,0c-1.7,0.1-3.3-0.2-4.9-0.8
	c-1.9-0.7-3.5-1.8-4.9-3.4c-0.1-0.1-0.1-0.2-0.2-0.3c-0.2-0.3-0.5-0.6-0.7-0.9c-0.5-0.9-0.8-1.9-0.9-2.9c0-0.2,0-0.3-0.1-0.5v-0.1
	c0-1,0.1-2.1,0.3-3.1c0.5-2.1,1.7-3.9,3.5-5.1c0.6-0.3,1.1-0.6,1.7-0.9c2.2-0.8,4.7-0.6,6.8,0.5h0.1h0.1c0.3,0.2,0.6,0.5,0.9,0.7
	c1.4,1.5,2.1,3.5,2.2,5.5l0,0c0,0,0,0.8-0.1,1.5c-0.1,1.1,0.4,2.1,1.2,2.8l0.2,0.1l0.1,0.1c0.4,0.3,0.9,0.4,1.4,0.5H26
	c1.8,0.1,3.3-1.2,3.5-3c0-0.3,0-0.6,0-0.9C29.4,27.5,24.8,21.4,15.5,21.4z"/>
<circle class="st1" cx="15.2" cy="35.6" r="3.5"/>
<path class="st0" d="M50.8,35L50.8,35L50.8,35l-0.2-0.1c-2.5-1.1-5.3-1.3-8-0.6c-0.8,0.3-1.6,0.7-2.4,1.1c-0.7,0.5-1.3,1.1-1.7,1.9
	c-0.8,1.7-1.1,3.5-1.1,5.3v8c0,1.3,1.1,2.4,2.4,2.4h0.6c1.3,0,2.4-1.1,2.4-2.4v-8.8c0-0.7,0.3-1.4,0.9-1.9c0.7-0.6,1.5-1,2.5-1
	c1.6,0,2.2,0.8,2.2,3.4v8.2c0,1.3,1.1,2.4,2.4,2.4h0.6c1.3,0,2.4-1.1,2.4-2.4v-8.7C53.8,38.4,52.9,36.1,50.8,35z"/>
<circle class="st1" cx="37.4" cy="31.6" r="2.7"/>
<path class="st1" d="M184.8,31.6c-5.6-0.1-10.2,4.3-10.3,9.9c0,0.1,0,0.2,0,0.3c0,6.5,4.8,10.2,11.1,10.2c1.9,0,3.9-0.4,5.7-1.1
	c1-0.4,1.5-1.6,1.1-2.6c0-0.1-0.1-0.2-0.1-0.3l0,0c-0.6-0.9-1.8-1.3-2.9-0.9c-0.8,0.3-1.6,0.4-2.5,0.5l0,0c-1.1,0.1-2.2-0.1-3.3-0.5
	c-1.3-0.5-2.4-1.2-3.2-2.2l-0.2-0.2c-0.2-0.2-0.3-0.4-0.5-0.6c-0.3-0.6-0.5-1.3-0.6-2c0-0.1,0-0.2,0-0.3v-0.1c0-0.7,0-1.4,0.2-2
	c0.3-1.4,1.2-2.6,2.3-3.4c0.4-0.2,0.8-0.4,1.1-0.6c1.5-0.5,3.1-0.4,4.5,0.3l0,0l0,0c0.2,0.1,0.4,0.3,0.6,0.5c0.9,1,1.4,2.3,1.4,3.7
	l0,0c0,0,0,0.5,0,1c0,0.7,0.3,1.4,0.8,1.9l0.1,0.1l0,0c0.3,0.2,0.6,0.3,0.9,0.3h0.5c1.2,0.1,2.2-0.8,2.3-2c0-0.2,0-0.4,0-0.6
	C194.1,35.6,191.1,31.6,184.8,31.6z"/>
<circle class="st0" cx="184.9" cy="40.1" r="2.7"/>
<path class="st1" d="M206.4,31.6c-5.6-0.1-10.2,4.3-10.3,9.9c0,0.1,0,0.2,0,0.3c0,6.5,4.8,10.2,11.1,10.2c1.9,0,3.9-0.4,5.7-1.1
	c1-0.4,1.5-1.6,1.1-2.6c0-0.1-0.1-0.2-0.1-0.3l0,0c-0.6-0.9-1.8-1.3-2.9-0.9c-0.8,0.3-1.6,0.4-2.5,0.5l0,0c-1.1,0.1-2.2-0.1-3.3-0.5
	c-1.3-0.5-2.4-1.2-3.2-2.2l-0.2-0.2c-0.2-0.2-0.3-0.4-0.5-0.6c-0.3-0.6-0.5-1.3-0.6-2v-0.3v-0.1c0-0.7,0-1.4,0.2-2
	c0.3-1.4,1.2-2.6,2.3-3.4c0.4-0.2,0.8-0.4,1.2-0.6c1.5-0.5,3.1-0.4,4.5,0.3l0,0l0,0c0.2,0.1,0.4,0.3,0.6,0.5c0.9,1,1.4,2.3,1.4,3.7
	l0,0c0,0,0,0.5,0,1c0,0.7,0.3,1.4,0.8,1.9l0.1,0.1h0.1c0.3,0.2,0.6,0.3,0.9,0.3h0.5c1.2,0.1,2.2-0.8,2.3-2c0-0.2,0-0.4,0-0.6
	C215.8,35.6,212.7,31.6,206.4,31.6z"/>
<circle class="st0" cx="206.6" cy="40.1" r="2.7"/>
<path class="st1" d="M170.3,34.2L170.3,34.2c-2-0.1-4,0.4-5.6,1.5c-2,1.4-3.5,3.5-4.1,5.9c-0.2,0.9-0.3,1.9-0.3,2.9V51
	c0,1,0.8,1.9,1.9,1.9l0,0h1.7c1,0,1.8-0.8,1.8-1.8l0,0v-8.3c0-0.3,0-0.5,0.1-0.7c1-2.2,2.5-3,3.8-3h0.4c0.9,0,1.7-0.6,1.9-1.5l0.2-1
	c0.2-1-0.4-2-1.4-2.2C170.5,34.2,170.4,34.2,170.3,34.2z"/>
<circle class="st0" cx="161.4" cy="32" r="2.7"/>
<path class="st0" d="M242.8,14.5c-1.2-3.6-5.1-5.6-8.7-4.5c-2.9,0.9-4.8,3.7-4.8,6.7c0,0.9,0.2,1.8,0.5,2.6l0,0l0.2,0.4l0.1,0.2
	l2.1,4.3l0,0l2.4,5.3l0.2,0.4c0.2,0.6,0.7,0.9,1.3,1h0.5c0.1,0,0.1,0,0.2,0c0.5-0.1,0.8-0.5,1-0.9l2.6-5.7l2.1-4.3l0,0l0.2-0.4l0,0
	C243.3,18.1,243.4,16.2,242.8,14.5z M240,18.2c-0.3,2.1-2.3,3.5-4.4,3.2c-2.1-0.3-3.5-2.3-3.2-4.4c0.3-1.6,1.5-2.9,3.2-3.2
	c2.1-0.3,4.1,1.2,4.4,3.3C240,17.4,240,17.8,240,18.2L240,18.2z"/>
<g>
	<path class="st2" d="M217.3,22.6h-50.4c-2.3,0-4.2-1.9-4.2-4.2V4.7c0-2.3,1.9-4.2,4.2-4.2h50.4c2.3,0,4.2,1.9,4.2,4.2v13.7
		C221.5,20.7,219.7,22.6,217.3,22.6z"/>
	<path class="st3" d="M181.4,12.1c-0.2-0.3-0.5-0.6-0.8-0.8c0.2-0.2,0.5-0.5,0.7-0.8c0.2-0.4,0.3-0.9,0.3-1.5V7.8
		c0-0.3-0.1-0.7-0.2-1.1c-0.2-0.4-0.4-0.7-0.7-1c-0.3-0.3-0.7-0.5-1.2-0.7c-0.5-0.2-1.1-0.3-1.7-0.3h-5.4c-0.3,0-0.6,0.1-0.8,0.3
		c-0.2,0.2-0.3,0.4-0.3,0.7v11.5c0,0.3,0.1,0.5,0.3,0.7c0.2,0.2,0.5,0.3,0.8,0.3h5.9c1.1-0.1,2-0.4,2.6-1c0.6-0.6,1-1.4,1-2.3v-1.7
		C181.8,12.9,181.6,12.5,181.4,12.1z M179.4,9c0,0.3-0.1,0.6-0.3,0.8c-0.2,0.2-0.4,0.4-0.6,0.5h-5.1V6.8h4.3c0.4,0,0.7,0,0.9,0.1
		c0.2,0.1,0.4,0.2,0.5,0.3c0.1,0.1,0.2,0.2,0.2,0.3c0,0.1,0.1,0.2,0.1,0.3V9z M179.4,15.6c-0.1,0.2-0.2,0.3-0.4,0.4
		c-0.2,0.1-0.3,0.2-0.5,0.2c-0.2,0-0.3,0.1-0.4,0.1h-4.8v-4.1h5c0.3,0,0.6,0.1,0.9,0.3c0.3,0.2,0.4,0.5,0.4,0.8V15
		C179.6,15.3,179.5,15.4,179.4,15.6z"/>
	<path class="st3" d="M192.4,16.3h-5.1c-0.6,0-0.9-0.1-1.1-0.3c-0.2-0.2-0.3-0.5-0.3-0.9v-0.7h3.8c2.5,0,3.8-1.2,3.8-3.4
		c0-0.5-0.1-1-0.3-1.4c-0.2-0.4-0.4-0.7-0.7-1c-0.3-0.3-0.7-0.5-1.1-0.6c-0.4-0.1-0.9-0.2-1.3-0.2h-2.7c-1.2,0-2.1,0.3-2.7,0.9
		c-0.6,0.6-0.9,1.4-0.9,2.4V15c0,1,0.3,1.8,0.9,2.4c0.6,0.6,1.5,0.9,2.7,0.9h5.1c0.3,0,0.4-0.2,0.4-0.4v-1.1
		C192.8,16.4,192.6,16.3,192.4,16.3z M187.2,9.7h2.7c0.2,0,0.3,0,0.5,0.1c0.1,0,0.3,0.1,0.4,0.2c0.1,0.1,0.2,0.2,0.3,0.4
		c0.1,0.2,0.1,0.4,0.1,0.6c0,0.5-0.1,0.9-0.4,1.1c-0.2,0.2-0.7,0.3-1.3,0.3h-3.8v-1.4c0-0.4,0.1-0.7,0.3-0.9
		C186.3,9.8,186.7,9.7,187.2,9.7z"/>
	<path class="st3" d="M201.3,16.3h-1.7c-0.4,0-0.6-0.1-0.8-0.2c-0.2-0.1-0.3-0.3-0.4-0.5c-0.1-0.2-0.1-0.4-0.2-0.7V9.7h2.5
		c0.1,0,0.2,0,0.3-0.1c0.1-0.1,0.1-0.2,0.1-0.3V8.1c0-0.3-0.2-0.4-0.4-0.4h-2.5V4.8c0-0.1,0-0.2-0.1-0.3c-0.1-0.1-0.2-0.1-0.3-0.1
		h-1.3c-0.3,0-0.4,0.2-0.4,0.4v2.9h-1.3c-0.1,0-0.2,0-0.3,0.1c-0.1,0.1-0.1,0.2-0.1,0.3v1.1c0,0.1,0,0.2,0.1,0.3
		c0.1,0.1,0.2,0.1,0.3,0.1h1.3v5.3c0,0.3,0.1,0.7,0.2,1.1c0.1,0.4,0.3,0.7,0.6,1.1c0.3,0.3,0.6,0.6,1.1,0.9c0.5,0.2,1,0.3,1.7,0.3
		h1.7c0.3,0,0.4-0.2,0.4-0.4v-1.1C201.8,16.4,201.6,16.3,201.3,16.3z"/>
	<path class="st3" d="M212.2,8.5c-0.6-0.6-1.5-0.9-2.7-0.9h-5.2c-0.3,0-0.4,0.2-0.4,0.4v1.1c0,0.1,0,0.2,0.1,0.3
		c0.1,0.1,0.2,0.1,0.3,0.1h5.2c0.5,0,0.9,0.1,1.1,0.3c0.2,0.2,0.3,0.5,0.3,0.9v0.7h-4c-1.3,0-2.2,0.3-2.9,0.9c-0.7,0.6-1,1.4-1,2.5
		c0,0.5,0.1,1,0.3,1.4c0.2,0.4,0.4,0.8,0.8,1c0.3,0.3,0.7,0.5,1.1,0.6c0.4,0.1,0.9,0.2,1.3,0.2h2.9c1.2,0,2.1-0.3,2.7-0.9
		c0.6-0.6,0.9-1.4,0.9-2.4v-4.1C213.1,9.9,212.8,9.1,212.2,8.5z M205.6,13.9c0.2-0.2,0.7-0.3,1.3-0.3l4,0V15c0,0.4-0.1,0.6-0.3,0.9
		c-0.2,0.2-0.6,0.3-1.1,0.3h-2.9c-0.2,0-0.3,0-0.5-0.1c-0.1,0-0.3-0.1-0.4-0.2c-0.1-0.1-0.2-0.2-0.3-0.4c-0.1-0.2-0.1-0.4-0.1-0.6
		C205.3,14.5,205.4,14.2,205.6,13.9z"/>
</g>
</svg>
