<?xml version="1.0" encoding="utf-8"?>
<!-- Generator: Adobe Illustrator 24.0.2, SVG Export Plug-In . SVG Version: 6.00 Build 0)  -->
<svg version="1.1" id="레이어_1" xmlns="http://www.w3.org/2000/svg" xmlns:xlink="http://www.w3.org/1999/xlink" x="0px"
	 y="0px" viewBox="0 0 14 15" style="enable-background:new 0 0 14 15;" xml:space="preserve">
<style type="text/css">
	.st0{fill:#5567FF;}
</style>
<g>
	<path class="st0" d="M11.59,15H2.14c-1.04,0-1.89-0.85-1.89-1.89v-8.5c0-1.04,0.85-1.89,1.89-1.89h9.45c1.04,0,1.89,0.85,1.89,1.89
		v8.5C13.48,14.15,12.63,15,11.59,15z M2.14,3.66c-0.52,0-0.94,0.42-0.94,0.94v8.5c0,0.52,0.42,0.94,0.94,0.94h9.45
		c0.52,0,0.94-0.42,0.94-0.94v-8.5c0-0.52-0.42-0.94-0.94-0.94H2.14z"/>
	<path class="st0" d="M11.05,3.19H2.67c-1.08,0-1.95,0.89-1.95,1.98v1.8h0.47c0-0.47,0.47-0.94,0.94-0.94h9.45
		c0.47,0,0.94,0.47,0.94,0.94H13v-1.8C13,4.08,12.13,3.19,11.05,3.19z"/>
	<circle class="st0" cx="8.04" cy="7.68" r="0.71"/>
	<circle class="st0" cx="10.41" cy="7.68" r="0.71"/>
	<circle class="st0" cx="8.04" cy="10.04" r="0.71"/>
	<circle class="st0" cx="10.41" cy="10.04" r="0.71"/>
	<circle class="st0" cx="3.32" cy="10.04" r="0.71"/>
	<circle class="st0" cx="5.68" cy="10.04" r="0.71"/>
	<circle class="st0" cx="3.32" cy="12.4" r="0.71"/>
	<circle class="st0" cx="5.68" cy="12.4" r="0.71"/>
	<circle class="st0" cx="8.04" cy="12.4" r="0.71"/>
	<path class="st0" d="M3.08,3.66c-0.26,0-0.47-0.21-0.47-0.47V0.47C2.61,0.21,2.82,0,3.08,0s0.47,0.21,0.47,0.47v2.72
		C3.56,3.45,3.34,3.66,3.08,3.66z"/>
	<path class="st0" d="M10.64,3.66c-0.26,0-0.47-0.21-0.47-0.47V0.47c0-0.26,0.21-0.47,0.47-0.47c0.26,0,0.47,0.21,0.47,0.47v2.72
		C11.11,3.45,10.9,3.66,10.64,3.66z"/>
</g>
</svg>
