<svg xmlns="http://www.w3.org/2000/svg" viewBox="0 0 140 133.18"><defs><style>.cls-1{isolation:isolate;}.cls-2{mix-blend-mode:multiply;}.cls-3{fill:#fff;}.cls-4{fill:#6dc6d8;}.cls-5{fill:#f5c51d;}.cls-6{fill:#e56d82;}</style></defs><g class="cls-1"><g id="레이어_1" data-name="레이어 1"><g class="cls-2"><path class="cls-3" d="M104.42,120.71a23.13,23.13,0,1,0-7.24,6.55c3.24,1.33,10.55,4,10.55,4Z"/><path class="cls-4" d="M107.73,133.18a1.92,1.92,0,0,1-.66-.12c-.28-.1-6.28-2.28-9.76-3.67a25,25,0,1,1,9.23-8.36l3,9.64a2,2,0,0,1-.51,2A1.9,1.9,0,0,1,107.73,133.18ZM85.65,86.07a21.17,21.17,0,1,0,10.57,39.52,2,2,0,0,1,1.7-.12c1.67.69,4.5,1.76,6.79,2.61l-2.13-6.79a1.93,1.93,0,0,1,.27-1.71,21.17,21.17,0,0,0-17.2-33.51Z"/></g><path class="cls-4" d="M85.65,121.05a15.79,15.79,0,0,1-14.77-10.31,1.93,1.93,0,0,1,3.62-1.33,11.88,11.88,0,0,0,22.3,0,1.93,1.93,0,0,1,3.63,1.33A15.8,15.8,0,0,1,85.65,121.05Z"/><path class="cls-4" d="M82.25,101.44a1.72,1.72,0,1,1-1.72-1.72A1.72,1.72,0,0,1,82.25,101.44Z"/><path class="cls-4" d="M92.49,101.44a1.72,1.72,0,1,1-1.72-1.72A1.72,1.72,0,0,1,92.49,101.44Z"/><path class="cls-3" d="M13.39,111.92h0a35.35,35.35,0,1,1,11.84,7.53l-14.94,7.72Z"/><path class="cls-5" d="M10.29,129.63a2.46,2.46,0,0,1-2.41-2.95l2.84-14A37.57,37.57,0,0,1,0,86.29a37.93,37.93,0,1,1,25.4,35.84l-14,7.22A2.35,2.35,0,0,1,10.29,129.63Zm5.48-17.11-2.06,10.11,10.4-5.37a2.47,2.47,0,0,1,2-.11A33.07,33.07,0,0,0,71,86.29a33.06,33.06,0,1,0-66.12,0,32.76,32.76,0,0,0,10.18,23.85A2.48,2.48,0,0,1,15.77,112.52Z"/><path class="cls-5" d="M38,107.93A24.38,24.38,0,0,1,15.17,92a2.46,2.46,0,1,1,4.61-1.7,19.38,19.38,0,0,0,36.38,0A2.46,2.46,0,1,1,60.77,92,24.38,24.38,0,0,1,38,107.93Z"/><path class="cls-5" d="M43.35,77.52a2.72,2.72,0,1,0,2.72-2.72A2.72,2.72,0,0,0,43.35,77.52Z"/><path class="cls-5" d="M27.15,77.52a2.72,2.72,0,1,0,2.72-2.72A2.72,2.72,0,0,0,27.15,77.52Z"/><path class="cls-3" d="M124.24,76.89h0a43.12,43.12,0,1,0-14.42,9.17l18.2,9.4Z"/><path class="cls-6" d="M128,97.92a2.46,2.46,0,0,1-1.12-.27l-17.24-8.91a45.74,45.74,0,1,1,17.26-11L130.42,95a2.47,2.47,0,0,1-2.41,3ZM109.81,83.6a2.49,2.49,0,0,1,1.13.28l13.64,7.05-2.72-13.41a2.46,2.46,0,0,1,.67-2.4,40.42,40.42,0,0,0,12.56-29.43,40.75,40.75,0,1,0-26.16,38.08A2.5,2.5,0,0,1,109.81,83.6Z"/><path class="cls-3" d="M69.36,51.65a26.59,26.59,0,0,0,49.9,0"/><path class="cls-6" d="M94.31,71.51a29.14,29.14,0,0,1-27.26-19,2.46,2.46,0,1,1,4.61-1.69,24.13,24.13,0,0,0,45.29,0,2.46,2.46,0,1,1,4.61,1.69A29.13,29.13,0,0,1,94.31,71.51Z"/><path class="cls-6" d="M87.76,35a3.31,3.31,0,1,1-3.31-3.31A3.31,3.31,0,0,1,87.76,35Z"/><path class="cls-6" d="M107.48,35a3.31,3.31,0,1,1-3.31-3.31A3.31,3.31,0,0,1,107.48,35Z"/></g></g></svg>