<svg id="레이어_1" data-name="레이어 1" xmlns="http://www.w3.org/2000/svg" xmlns:xlink="http://www.w3.org/1999/xlink" viewBox="0 0 64.08 64.45"><defs><style>.cls-1{fill:url(#linear-gradient);}.cls-2{fill:url(#linear-gradient-2);}.cls-3{fill:url(#linear-gradient-3);}.cls-4{fill:url(#linear-gradient-4);}</style><linearGradient id="linear-gradient" x1="32.04" y1="-0.19" x2="32.04" y2="64.35" gradientUnits="userSpaceOnUse"><stop offset="0" stop-color="#fff362"/><stop offset="1" stop-color="#fff000"/></linearGradient><linearGradient id="linear-gradient-2" x1="406.27" y1="277.78" x2="429.68" y2="311.46" gradientUnits="userSpaceOnUse"><stop offset="0" stop-color="#623c3b"/><stop offset="1" stop-color="#280c0b"/></linearGradient><linearGradient id="linear-gradient-3" x1="406.38" y1="290.04" x2="406.38" y2="302.61" xlink:href="#linear-gradient"/><linearGradient id="linear-gradient-4" x1="424.95" y1="290.04" x2="424.95" y2="302.61" xlink:href="#linear-gradient"/></defs><rect class="cls-1" width="64.08" height="64.45" rx="13.86"/><path class="cls-2" d="M421,273.93c-14.51,0-26.28,9.37-26.28,20.93,0,7.35,4.76,13.81,11.95,17.55l-2,10.29L416,315.42a32.12,32.12,0,0,0,4.95.38c14.52,0,26.28-9.38,26.28-20.94S435.47,273.93,421,273.93Z" transform="translate(-388.5 -265.63)"/><path class="cls-3" d="M402.47,289.88a1.12,1.12,0,0,0-.78.3,1.08,1.08,0,0,0-.24.32,1.06,1.06,0,0,0-.09.39,1,1,0,0,0,.09.39,1,1,0,0,0,.4.45,1.24,1.24,0,0,0,.62.18h2.69v9.15a1.11,1.11,0,0,0,1.11,1.1h.25a1.08,1.08,0,0,0,.78-.32,1.11,1.11,0,0,0,.33-.78v-9.15h2.66a1.19,1.19,0,0,0,.79-.3,1,1,0,0,0,.23-.33.89.89,0,0,0,0-.78,1,1,0,0,0-.4-.45,1.2,1.2,0,0,0-.62-.17Z" transform="translate(-388.5 -265.63)"/><path class="cls-4" d="M412.54,299.61h5.11l.91,2a1.06,1.06,0,0,0,.42.47,1.07,1.07,0,0,0,1,.07l.23-.1a1.13,1.13,0,0,0,.48-.41l.32-.51-4.72-10.37a1,1,0,0,0-.14-.35,1.19,1.19,0,0,0-.15-.18,1.12,1.12,0,0,0-.83-.42l-.18,0a1,1,0,0,0-.59.18,1,1,0,0,0-.34.33l-.09.12a1,1,0,0,0-.13.32l0,.09-4.44,9.74a1.06,1.06,0,0,0-.1.46,1.12,1.12,0,0,0,.17.59,1.08,1.08,0,0,0,.48.42l.22.1a1.12,1.12,0,0,0,1.05-.07,1.06,1.06,0,0,0,.42-.47ZM434.92,297l3.48,4.74a1,1,0,0,0,.4.34,1.11,1.11,0,0,0,1.14-.1l.21-.14a1.26,1.26,0,0,0,.33-.4,1.11,1.11,0,0,0,.12-.5,1.17,1.17,0,0,0-.21-.65l-3.74-5.1,3.12-3.24a1.14,1.14,0,0,0,.3-.77,1.26,1.26,0,0,0-.08-.43,1.18,1.18,0,0,0-.26-.37l-.18-.17a1.11,1.11,0,0,0-1.19-.22.94.94,0,0,0-.37.25l-4.53,4.72V291a1.14,1.14,0,0,0-.32-.78,1.1,1.1,0,0,0-.78-.32h-.26A1.09,1.09,0,0,0,431,291v10.36l.14.25a1.14,1.14,0,0,0,.18.25,1.1,1.1,0,0,0,.78.32h.25a1.08,1.08,0,0,0,.78-.32,1.11,1.11,0,0,0,.33-.78v-2.57Zm-13.31,4.45.11.19a1,1,0,0,0,.37.38,1.24,1.24,0,0,0,.5.17h6.57a1.14,1.14,0,0,0,.78-.29.9.9,0,0,0,.21-.27l.31-.57-.44-.5a1.59,1.59,0,0,0-.24-.2,1.2,1.2,0,0,0-.62-.17h-5.09V291a1.11,1.11,0,0,0-.33-.78,1.07,1.07,0,0,0-.77-.32h-.26a1.1,1.1,0,0,0-.78.32,1.14,1.14,0,0,0-.32.78Zm-4.87-3.81h-3.28l1.64-3.6Z" transform="translate(-388.5 -265.63)"/></svg>