<?xml version="1.0" encoding="utf-8"?>
<!-- Generator: Adobe Illustrator 26.0.1, SVG Export Plug-In . SVG Version: 6.00 Build 0)  -->
<svg version="1.1" id="style1-svg" xmlns="http://www.w3.org/2000/svg" xmlns:xlink="http://www.w3.org/1999/xlink" x="0px" y="0px"
	 viewBox="0 0 400 400" style="enable-background:new 0 0 400 400;" xml:space="preserve">
<style type="text/css">
	.st0{fill:#FFFFFF;}
</style>
<g>
	<path class="st0" d="M365.3,400H34.7C15.5,400,0,384.5,0,365.3V34.7C0,15.5,15.5,0,34.7,0h330.5C384.5,0,400,15.5,400,34.7v330.5
		C400,384.5,384.4,400,365.3,400z"/>
	<g>
		<rect x="9.6" y="9.6" shape-rendering="optimizeSpeed" class="st0" width="380.8" height="380.8"/>
		<rect x="19.1" y="19.2" shape-rendering="optimizeSpeed" width="14.6" height="14.6"/>
		<rect x="33.6" y="19.2" shape-rendering="optimizeSpeed" width="14.6" height="14.6"/>
		<rect x="48" y="19.2" shape-rendering="optimizeSpeed" width="14.6" height="14.6"/>
		<rect x="62.5" y="19.2" shape-rendering="optimizeSpeed" width="14.6" height="14.6"/>
		<rect x="77" y="19.2" shape-rendering="optimizeSpeed" width="14.6" height="14.6"/>
		<rect x="91.4" y="19.2" shape-rendering="optimizeSpeed" width="14.6" height="14.6"/>
		<rect x="105.9" y="19.2" shape-rendering="optimizeSpeed" width="14.6" height="14.6"/>
		<rect x="134.8" y="19.2" shape-rendering="optimizeSpeed" width="14.6" height="14.6"/>
		<rect x="149.3" y="19.2" shape-rendering="optimizeSpeed" width="14.6" height="14.6"/>
		<rect x="163.8" y="19.2" shape-rendering="optimizeSpeed" width="14.6" height="14.6"/>
		<rect x="178.3" y="19.2" shape-rendering="optimizeSpeed" width="14.6" height="14.6"/>
		<rect x="207.3" y="19.2" shape-rendering="optimizeSpeed" width="14.6" height="14.6"/>
		<rect x="221.7" y="19.2" shape-rendering="optimizeSpeed" width="14.6" height="14.6"/>
		<rect x="279.6" y="19.2" shape-rendering="optimizeSpeed" width="14.6" height="14.6"/>
		<rect x="294.1" y="19.2" shape-rendering="optimizeSpeed" width="14.6" height="14.6"/>
		<rect x="308.5" y="19.2" shape-rendering="optimizeSpeed" width="14.6" height="14.6"/>
		<rect x="323" y="19.2" shape-rendering="optimizeSpeed" width="14.6" height="14.6"/>
		<rect x="337.5" y="19.2" shape-rendering="optimizeSpeed" width="14.6" height="14.6"/>
		<rect x="352" y="19.2" shape-rendering="optimizeSpeed" width="14.6" height="14.6"/>
		<rect x="366.4" y="19.2" shape-rendering="optimizeSpeed" width="14.6" height="14.6"/>
		<rect x="19.1" y="33.6" shape-rendering="optimizeSpeed" width="14.6" height="14.6"/>
		<rect x="105.9" y="33.6" shape-rendering="optimizeSpeed" width="14.6" height="14.6"/>
		<rect x="178.3" y="33.6" shape-rendering="optimizeSpeed" width="14.6" height="14.6"/>
		<rect x="192.7" y="33.6" shape-rendering="optimizeSpeed" width="14.6" height="14.6"/>
		<rect x="207.3" y="33.6" shape-rendering="optimizeSpeed" width="14.6" height="14.6"/>
		<rect x="250.7" y="33.6" shape-rendering="optimizeSpeed" width="14.6" height="14.6"/>
		<rect x="279.6" y="33.6" shape-rendering="optimizeSpeed" width="14.6" height="14.6"/>
		<rect x="366.4" y="33.6" shape-rendering="optimizeSpeed" width="14.6" height="14.6"/>
		<rect x="19.1" y="48.1" shape-rendering="optimizeSpeed" width="14.6" height="14.6"/>
		<rect x="48" y="48.1" shape-rendering="optimizeSpeed" width="14.6" height="14.6"/>
		<rect x="62.5" y="48.1" shape-rendering="optimizeSpeed" width="14.6" height="14.6"/>
		<rect x="77" y="48.1" shape-rendering="optimizeSpeed" width="14.6" height="14.6"/>
		<rect x="105.9" y="48.1" shape-rendering="optimizeSpeed" width="14.6" height="14.6"/>
		<rect x="149.3" y="48.1" shape-rendering="optimizeSpeed" width="14.6" height="14.6"/>
		<rect x="178.3" y="48.1" shape-rendering="optimizeSpeed" width="14.6" height="14.6"/>
		<rect x="207.3" y="48.1" shape-rendering="optimizeSpeed" width="14.6" height="14.6"/>
		<rect x="221.7" y="48.1" shape-rendering="optimizeSpeed" width="14.6" height="14.6"/>
		<rect x="236.1" y="48.1" shape-rendering="optimizeSpeed" width="14.6" height="14.6"/>
		<rect x="279.6" y="48.1" shape-rendering="optimizeSpeed" width="14.6" height="14.6"/>
		<rect x="308.5" y="48.1" shape-rendering="optimizeSpeed" width="14.6" height="14.6"/>
		<rect x="323" y="48.1" shape-rendering="optimizeSpeed" width="14.6" height="14.6"/>
		<rect x="337.5" y="48.1" shape-rendering="optimizeSpeed" width="14.6" height="14.6"/>
		<rect x="366.4" y="48.1" shape-rendering="optimizeSpeed" width="14.6" height="14.6"/>
		<rect x="19.1" y="62.5" shape-rendering="optimizeSpeed" width="14.6" height="14.6"/>
		<rect x="48" y="62.5" shape-rendering="optimizeSpeed" width="14.6" height="14.6"/>
		<rect x="62.5" y="62.5" shape-rendering="optimizeSpeed" width="14.6" height="14.6"/>
		<rect x="77" y="62.5" shape-rendering="optimizeSpeed" width="14.6" height="14.6"/>
		<rect x="105.9" y="62.5" shape-rendering="optimizeSpeed" width="14.6" height="14.6"/>
		<rect x="163.8" y="62.5" shape-rendering="optimizeSpeed" width="14.6" height="14.6"/>
		<rect x="178.3" y="62.5" shape-rendering="optimizeSpeed" width="14.6" height="14.6"/>
		<rect x="192.7" y="62.5" shape-rendering="optimizeSpeed" width="14.6" height="14.6"/>
		<rect x="207.3" y="62.5" shape-rendering="optimizeSpeed" width="14.6" height="14.6"/>
		<rect x="250.7" y="62.5" shape-rendering="optimizeSpeed" width="14.6" height="14.6"/>
		<rect x="279.6" y="62.5" shape-rendering="optimizeSpeed" width="14.6" height="14.6"/>
		<rect x="308.5" y="62.5" shape-rendering="optimizeSpeed" width="14.6" height="14.6"/>
		<rect x="323" y="62.5" shape-rendering="optimizeSpeed" width="14.6" height="14.6"/>
		<rect x="337.5" y="62.5" shape-rendering="optimizeSpeed" width="14.6" height="14.6"/>
		<rect x="366.4" y="62.5" shape-rendering="optimizeSpeed" width="14.6" height="14.6"/>
		<rect x="19.1" y="77" shape-rendering="optimizeSpeed" width="14.6" height="14.6"/>
		<rect x="48" y="77" shape-rendering="optimizeSpeed" width="14.6" height="14.6"/>
		<rect x="62.5" y="77" shape-rendering="optimizeSpeed" width="14.6" height="14.6"/>
		<rect x="77" y="77" shape-rendering="optimizeSpeed" width="14.6" height="14.6"/>
		<rect x="105.9" y="77" shape-rendering="optimizeSpeed" width="14.6" height="14.6"/>
		<rect x="163.8" y="77" shape-rendering="optimizeSpeed" width="14.6" height="14.6"/>
		<rect x="178.3" y="77" shape-rendering="optimizeSpeed" width="14.6" height="14.6"/>
		<rect x="192.7" y="77" shape-rendering="optimizeSpeed" width="14.6" height="14.6"/>
		<rect x="250.7" y="77" shape-rendering="optimizeSpeed" width="14.6" height="14.6"/>
		<rect x="279.6" y="77" shape-rendering="optimizeSpeed" width="14.6" height="14.6"/>
		<rect x="308.5" y="77" shape-rendering="optimizeSpeed" width="14.6" height="14.6"/>
		<rect x="323" y="77" shape-rendering="optimizeSpeed" width="14.6" height="14.6"/>
		<rect x="337.5" y="77" shape-rendering="optimizeSpeed" width="14.6" height="14.6"/>
		<rect x="366.4" y="77" shape-rendering="optimizeSpeed" width="14.6" height="14.6"/>
		<rect x="19.1" y="91.5" shape-rendering="optimizeSpeed" width="14.6" height="14.6"/>
		<rect x="105.9" y="91.5" shape-rendering="optimizeSpeed" width="14.6" height="14.6"/>
		<rect x="149.3" y="91.5" shape-rendering="optimizeSpeed" width="14.6" height="14.6"/>
		<rect x="178.3" y="91.5" shape-rendering="optimizeSpeed" width="14.6" height="14.6"/>
		<rect x="221.7" y="91.5" shape-rendering="optimizeSpeed" width="14.6" height="14.6"/>
		<rect x="250.7" y="91.5" shape-rendering="optimizeSpeed" width="14.6" height="14.6"/>
		<rect x="279.6" y="91.5" shape-rendering="optimizeSpeed" width="14.6" height="14.6"/>
		<rect x="366.4" y="91.5" shape-rendering="optimizeSpeed" width="14.6" height="14.6"/>
		<rect x="19.1" y="105.9" shape-rendering="optimizeSpeed" width="14.6" height="14.6"/>
		<rect x="33.6" y="105.9" shape-rendering="optimizeSpeed" width="14.6" height="14.6"/>
		<rect x="48" y="105.9" shape-rendering="optimizeSpeed" width="14.6" height="14.6"/>
		<rect x="62.5" y="105.9" shape-rendering="optimizeSpeed" width="14.6" height="14.6"/>
		<rect x="77" y="105.9" shape-rendering="optimizeSpeed" width="14.6" height="14.6"/>
		<rect x="91.4" y="105.9" shape-rendering="optimizeSpeed" width="14.6" height="14.6"/>
		<rect x="105.9" y="105.9" shape-rendering="optimizeSpeed" width="14.6" height="14.6"/>
		<rect x="134.8" y="105.9" shape-rendering="optimizeSpeed" width="14.6" height="14.6"/>
		<rect x="163.8" y="105.9" shape-rendering="optimizeSpeed" width="14.6" height="14.6"/>
		<rect x="192.7" y="105.9" shape-rendering="optimizeSpeed" width="14.6" height="14.6"/>
		<rect x="221.7" y="105.9" shape-rendering="optimizeSpeed" width="14.6" height="14.6"/>
		<rect x="250.7" y="105.9" shape-rendering="optimizeSpeed" width="14.6" height="14.6"/>
		<rect x="279.6" y="105.9" shape-rendering="optimizeSpeed" width="14.6" height="14.6"/>
		<rect x="294.1" y="105.9" shape-rendering="optimizeSpeed" width="14.6" height="14.6"/>
		<rect x="308.5" y="105.9" shape-rendering="optimizeSpeed" width="14.6" height="14.6"/>
		<rect x="323" y="105.9" shape-rendering="optimizeSpeed" width="14.6" height="14.6"/>
		<rect x="337.5" y="105.9" shape-rendering="optimizeSpeed" width="14.6" height="14.6"/>
		<rect x="352" y="105.9" shape-rendering="optimizeSpeed" width="14.6" height="14.6"/>
		<rect x="366.4" y="105.9" shape-rendering="optimizeSpeed" width="14.6" height="14.6"/>
		<rect x="134.8" y="120.5" shape-rendering="optimizeSpeed" width="14.6" height="14.6"/>
		<rect x="149.3" y="120.5" shape-rendering="optimizeSpeed" width="14.6" height="14.6"/>
		<rect x="178.3" y="120.5" shape-rendering="optimizeSpeed" width="14.6" height="14.6"/>
		<rect x="207.3" y="120.5" shape-rendering="optimizeSpeed" width="14.6" height="14.6"/>
		<rect x="221.7" y="120.5" shape-rendering="optimizeSpeed" width="14.6" height="14.6"/>
		<rect x="236.1" y="120.5" shape-rendering="optimizeSpeed" width="14.6" height="14.6"/>
		<rect x="19.1" y="134.9" shape-rendering="optimizeSpeed" width="14.6" height="14.6"/>
		<rect x="33.6" y="134.9" shape-rendering="optimizeSpeed" width="14.6" height="14.6"/>
		<rect x="62.5" y="134.9" shape-rendering="optimizeSpeed" width="14.6" height="14.6"/>
		<rect x="77" y="134.9" shape-rendering="optimizeSpeed" width="14.6" height="14.6"/>
		<rect x="105.9" y="134.9" shape-rendering="optimizeSpeed" width="14.6" height="14.6"/>
		<rect x="149.3" y="134.9" shape-rendering="optimizeSpeed" width="14.6" height="14.6"/>
		<rect x="178.3" y="134.9" shape-rendering="optimizeSpeed" width="14.6" height="14.6"/>
		<rect x="192.7" y="134.9" shape-rendering="optimizeSpeed" width="14.6" height="14.6"/>
		<rect x="236.1" y="134.9" shape-rendering="optimizeSpeed" width="14.6" height="14.6"/>
		<rect x="279.6" y="134.9" shape-rendering="optimizeSpeed" width="14.6" height="14.6"/>
		<rect x="366.4" y="134.9" shape-rendering="optimizeSpeed" width="14.6" height="14.6"/>
		<rect x="62.5" y="149.3" shape-rendering="optimizeSpeed" width="14.6" height="14.6"/>
		<rect x="77" y="149.3" shape-rendering="optimizeSpeed" width="14.6" height="14.6"/>
		<rect x="120.4" y="149.3" shape-rendering="optimizeSpeed" width="14.6" height="14.6"/>
		<rect x="134.8" y="149.3" shape-rendering="optimizeSpeed" width="14.6" height="14.6"/>
		<rect x="163.8" y="149.3" shape-rendering="optimizeSpeed" width="14.6" height="14.6"/>
		<rect x="178.3" y="149.3" shape-rendering="optimizeSpeed" width="14.6" height="14.6"/>
		<rect x="192.7" y="149.3" shape-rendering="optimizeSpeed" width="14.6" height="14.6"/>
		<rect x="207.3" y="149.3" shape-rendering="optimizeSpeed" width="14.6" height="14.6"/>
		<rect x="221.7" y="149.3" shape-rendering="optimizeSpeed" width="14.6" height="14.6"/>
		<rect x="236.1" y="149.3" shape-rendering="optimizeSpeed" width="14.6" height="14.6"/>
		<rect x="294.1" y="149.3" shape-rendering="optimizeSpeed" width="14.6" height="14.6"/>
		<rect x="308.5" y="149.3" shape-rendering="optimizeSpeed" width="14.6" height="14.6"/>
		<rect x="323" y="149.3" shape-rendering="optimizeSpeed" width="14.6" height="14.6"/>
		<rect x="337.5" y="149.3" shape-rendering="optimizeSpeed" width="14.6" height="14.6"/>
		<rect x="352" y="149.3" shape-rendering="optimizeSpeed" width="14.6" height="14.6"/>
		<rect x="33.6" y="163.9" shape-rendering="optimizeSpeed" width="14.6" height="14.6"/>
		<rect x="62.5" y="163.9" shape-rendering="optimizeSpeed" width="14.6" height="14.6"/>
		<rect x="77" y="163.9" shape-rendering="optimizeSpeed" width="14.6" height="14.6"/>
		<rect x="105.9" y="163.9" shape-rendering="optimizeSpeed" width="14.6" height="14.6"/>
		<rect x="134.8" y="163.9" shape-rendering="optimizeSpeed" width="14.6" height="14.6"/>
		<rect x="149.3" y="163.9" shape-rendering="optimizeSpeed" width="14.6" height="14.6"/>
		<rect x="178.3" y="163.9" shape-rendering="optimizeSpeed" width="14.6" height="14.6"/>
		<rect x="192.7" y="163.9" shape-rendering="optimizeSpeed" width="14.6" height="14.6"/>
		<rect x="207.3" y="163.9" shape-rendering="optimizeSpeed" width="14.6" height="14.6"/>
		<rect x="236.1" y="163.9" shape-rendering="optimizeSpeed" width="14.6" height="14.6"/>
		<rect x="294.1" y="163.9" shape-rendering="optimizeSpeed" width="14.6" height="14.6"/>
		<rect x="308.5" y="163.9" shape-rendering="optimizeSpeed" width="14.6" height="14.6"/>
		<rect x="323" y="163.9" shape-rendering="optimizeSpeed" width="14.6" height="14.6"/>
		<rect x="366.4" y="163.9" shape-rendering="optimizeSpeed" width="14.6" height="14.6"/>
		<rect x="48" y="178.3" shape-rendering="optimizeSpeed" width="14.6" height="14.6"/>
		<rect x="77" y="178.3" shape-rendering="optimizeSpeed" width="14.6" height="14.6"/>
		<rect x="91.4" y="178.3" shape-rendering="optimizeSpeed" width="14.6" height="14.6"/>
		<rect x="120.4" y="178.3" shape-rendering="optimizeSpeed" width="14.6" height="14.6"/>
		<rect x="192.7" y="178.3" shape-rendering="optimizeSpeed" width="14.6" height="14.6"/>
		<rect x="265.1" y="178.3" shape-rendering="optimizeSpeed" width="14.6" height="14.6"/>
		<rect x="294.1" y="178.3" shape-rendering="optimizeSpeed" width="14.6" height="14.6"/>
		<rect x="323" y="178.3" shape-rendering="optimizeSpeed" width="14.6" height="14.6"/>
		<rect x="337.5" y="178.3" shape-rendering="optimizeSpeed" width="14.6" height="14.6"/>
		<rect x="352" y="178.3" shape-rendering="optimizeSpeed" width="14.6" height="14.6"/>
		<rect x="366.4" y="178.3" shape-rendering="optimizeSpeed" width="14.6" height="14.6"/>
		<rect x="48" y="192.8" shape-rendering="optimizeSpeed" width="14.6" height="14.6"/>
		<rect x="62.5" y="192.8" shape-rendering="optimizeSpeed" width="14.6" height="14.6"/>
		<rect x="105.9" y="192.8" shape-rendering="optimizeSpeed" width="14.6" height="14.6"/>
		<rect x="120.4" y="192.8" shape-rendering="optimizeSpeed" width="14.6" height="14.6"/>
		<rect x="149.3" y="192.8" shape-rendering="optimizeSpeed" width="14.6" height="14.6"/>
		<rect x="163.8" y="192.8" shape-rendering="optimizeSpeed" width="14.6" height="14.6"/>
		<rect x="178.3" y="192.8" shape-rendering="optimizeSpeed" width="14.6" height="14.6"/>
		<rect x="236.1" y="192.8" shape-rendering="optimizeSpeed" width="14.6" height="14.6"/>
		<rect x="279.6" y="192.8" shape-rendering="optimizeSpeed" width="14.6" height="14.6"/>
		<rect x="294.1" y="192.8" shape-rendering="optimizeSpeed" width="14.6" height="14.6"/>
		<rect x="366.4" y="192.8" shape-rendering="optimizeSpeed" width="14.6" height="14.6"/>
		<rect x="19.1" y="207.3" shape-rendering="optimizeSpeed" width="14.6" height="14.6"/>
		<rect x="33.6" y="207.3" shape-rendering="optimizeSpeed" width="14.6" height="14.6"/>
		<rect x="48" y="207.3" shape-rendering="optimizeSpeed" width="14.6" height="14.6"/>
		<rect x="62.5" y="207.3" shape-rendering="optimizeSpeed" width="14.6" height="14.6"/>
		<rect x="77" y="207.3" shape-rendering="optimizeSpeed" width="14.6" height="14.6"/>
		<rect x="91.4" y="207.3" shape-rendering="optimizeSpeed" width="14.6" height="14.6"/>
		<rect x="134.8" y="207.3" shape-rendering="optimizeSpeed" width="14.6" height="14.6"/>
		<rect x="149.3" y="207.3" shape-rendering="optimizeSpeed" width="14.6" height="14.6"/>
		<rect x="163.8" y="207.3" shape-rendering="optimizeSpeed" width="14.6" height="14.6"/>
		<rect x="178.3" y="207.3" shape-rendering="optimizeSpeed" width="14.6" height="14.6"/>
		<rect x="192.7" y="207.3" shape-rendering="optimizeSpeed" width="14.6" height="14.6"/>
		<rect x="207.3" y="207.3" shape-rendering="optimizeSpeed" width="14.6" height="14.6"/>
		<rect x="221.7" y="207.3" shape-rendering="optimizeSpeed" width="14.6" height="14.6"/>
		<rect x="236.1" y="207.3" shape-rendering="optimizeSpeed" width="14.6" height="14.6"/>
		<rect x="250.7" y="207.3" shape-rendering="optimizeSpeed" width="14.6" height="14.6"/>
		<rect x="308.5" y="207.3" shape-rendering="optimizeSpeed" width="14.6" height="14.6"/>
		<rect x="352" y="207.3" shape-rendering="optimizeSpeed" width="14.6" height="14.6"/>
		<rect x="19.1" y="221.8" shape-rendering="optimizeSpeed" width="14.6" height="14.6"/>
		<rect x="33.6" y="221.8" shape-rendering="optimizeSpeed" width="14.6" height="14.6"/>
		<rect x="48" y="221.8" shape-rendering="optimizeSpeed" width="14.6" height="14.6"/>
		<rect x="62.5" y="221.8" shape-rendering="optimizeSpeed" width="14.6" height="14.6"/>
		<rect x="105.9" y="221.8" shape-rendering="optimizeSpeed" width="14.6" height="14.6"/>
		<rect x="236.1" y="221.8" shape-rendering="optimizeSpeed" width="14.6" height="14.6"/>
		<rect x="308.5" y="221.8" shape-rendering="optimizeSpeed" width="14.6" height="14.6"/>
		<rect x="323" y="221.8" shape-rendering="optimizeSpeed" width="14.6" height="14.6"/>
		<rect x="337.5" y="221.8" shape-rendering="optimizeSpeed" width="14.6" height="14.6"/>
		<rect x="352" y="221.8" shape-rendering="optimizeSpeed" width="14.6" height="14.6"/>
		<rect x="366.4" y="221.8" shape-rendering="optimizeSpeed" width="14.6" height="14.6"/>
		<rect x="19.1" y="236.2" shape-rendering="optimizeSpeed" width="14.6" height="14.6"/>
		<rect x="48" y="236.2" shape-rendering="optimizeSpeed" width="14.6" height="14.6"/>
		<rect x="77" y="236.2" shape-rendering="optimizeSpeed" width="14.6" height="14.6"/>
		<rect x="134.8" y="236.2" shape-rendering="optimizeSpeed" width="14.6" height="14.6"/>
		<rect x="149.3" y="236.2" shape-rendering="optimizeSpeed" width="14.6" height="14.6"/>
		<rect x="178.3" y="236.2" shape-rendering="optimizeSpeed" width="14.6" height="14.6"/>
		<rect x="192.7" y="236.2" shape-rendering="optimizeSpeed" width="14.6" height="14.6"/>
		<rect x="236.1" y="236.2" shape-rendering="optimizeSpeed" width="14.6" height="14.6"/>
		<rect x="250.7" y="236.2" shape-rendering="optimizeSpeed" width="14.6" height="14.6"/>
		<rect x="294.1" y="236.2" shape-rendering="optimizeSpeed" width="14.6" height="14.6"/>
		<rect x="323" y="236.2" shape-rendering="optimizeSpeed" width="14.6" height="14.6"/>
		<rect x="337.5" y="236.2" shape-rendering="optimizeSpeed" width="14.6" height="14.6"/>
		<rect x="366.4" y="236.2" shape-rendering="optimizeSpeed" width="14.6" height="14.6"/>
		<rect x="19.1" y="250.7" shape-rendering="optimizeSpeed" width="14.6" height="14.6"/>
		<rect x="48" y="250.7" shape-rendering="optimizeSpeed" width="14.6" height="14.6"/>
		<rect x="62.5" y="250.7" shape-rendering="optimizeSpeed" width="14.6" height="14.6"/>
		<rect x="105.9" y="250.7" shape-rendering="optimizeSpeed" width="14.6" height="14.6"/>
		<rect x="149.3" y="250.7" shape-rendering="optimizeSpeed" width="14.6" height="14.6"/>
		<rect x="163.8" y="250.7" shape-rendering="optimizeSpeed" width="14.6" height="14.6"/>
		<rect x="178.3" y="250.7" shape-rendering="optimizeSpeed" width="14.6" height="14.6"/>
		<rect x="192.7" y="250.7" shape-rendering="optimizeSpeed" width="14.6" height="14.6"/>
		<rect x="207.3" y="250.7" shape-rendering="optimizeSpeed" width="14.6" height="14.6"/>
		<rect x="236.1" y="250.7" shape-rendering="optimizeSpeed" width="14.6" height="14.6"/>
		<rect x="250.7" y="250.7" shape-rendering="optimizeSpeed" width="14.6" height="14.6"/>
		<rect x="265.1" y="250.7" shape-rendering="optimizeSpeed" width="14.6" height="14.6"/>
		<rect x="279.6" y="250.7" shape-rendering="optimizeSpeed" width="14.6" height="14.6"/>
		<rect x="294.1" y="250.7" shape-rendering="optimizeSpeed" width="14.6" height="14.6"/>
		<rect x="308.5" y="250.7" shape-rendering="optimizeSpeed" width="14.6" height="14.6"/>
		<rect x="337.5" y="250.7" shape-rendering="optimizeSpeed" width="14.6" height="14.6"/>
		<rect x="352" y="250.7" shape-rendering="optimizeSpeed" width="14.6" height="14.6"/>
		<rect x="134.8" y="265.2" shape-rendering="optimizeSpeed" width="14.6" height="14.6"/>
		<rect x="149.3" y="265.2" shape-rendering="optimizeSpeed" width="14.6" height="14.6"/>
		<rect x="163.8" y="265.2" shape-rendering="optimizeSpeed" width="14.6" height="14.6"/>
		<rect x="207.3" y="265.2" shape-rendering="optimizeSpeed" width="14.6" height="14.6"/>
		<rect x="236.1" y="265.2" shape-rendering="optimizeSpeed" width="14.6" height="14.6"/>
		<rect x="250.7" y="265.2" shape-rendering="optimizeSpeed" width="14.6" height="14.6"/>
		<rect x="308.5" y="265.2" shape-rendering="optimizeSpeed" width="14.6" height="14.6"/>
		<rect x="337.5" y="265.2" shape-rendering="optimizeSpeed" width="14.6" height="14.6"/>
		<rect x="352" y="265.2" shape-rendering="optimizeSpeed" width="14.6" height="14.6"/>
		<rect x="19.1" y="279.6" shape-rendering="optimizeSpeed" width="14.6" height="14.6"/>
		<rect x="33.6" y="279.6" shape-rendering="optimizeSpeed" width="14.6" height="14.6"/>
		<rect x="48" y="279.6" shape-rendering="optimizeSpeed" width="14.6" height="14.6"/>
		<rect x="62.5" y="279.6" shape-rendering="optimizeSpeed" width="14.6" height="14.6"/>
		<rect x="77" y="279.6" shape-rendering="optimizeSpeed" width="14.6" height="14.6"/>
		<rect x="91.4" y="279.6" shape-rendering="optimizeSpeed" width="14.6" height="14.6"/>
		<rect x="105.9" y="279.6" shape-rendering="optimizeSpeed" width="14.6" height="14.6"/>
		<rect x="149.3" y="279.6" shape-rendering="optimizeSpeed" width="14.6" height="14.6"/>
		<rect x="178.3" y="279.6" shape-rendering="optimizeSpeed" width="14.6" height="14.6"/>
		<rect x="250.7" y="279.6" shape-rendering="optimizeSpeed" width="14.6" height="14.6"/>
		<rect x="279.6" y="279.6" shape-rendering="optimizeSpeed" width="14.6" height="14.6"/>
		<rect x="308.5" y="279.6" shape-rendering="optimizeSpeed" width="14.6" height="14.6"/>
		<rect x="366.4" y="279.6" shape-rendering="optimizeSpeed" width="14.6" height="14.6"/>
		<rect x="19.1" y="294.1" shape-rendering="optimizeSpeed" width="14.6" height="14.6"/>
		<rect x="105.9" y="294.1" shape-rendering="optimizeSpeed" width="14.6" height="14.6"/>
		<rect x="207.3" y="294.1" shape-rendering="optimizeSpeed" width="14.6" height="14.6"/>
		<rect x="236.1" y="294.1" shape-rendering="optimizeSpeed" width="14.6" height="14.6"/>
		<rect x="250.7" y="294.1" shape-rendering="optimizeSpeed" width="14.6" height="14.6"/>
		<rect x="308.5" y="294.1" shape-rendering="optimizeSpeed" width="14.6" height="14.6"/>
		<rect x="366.4" y="294.1" shape-rendering="optimizeSpeed" width="14.6" height="14.6"/>
		<rect x="19.1" y="308.6" shape-rendering="optimizeSpeed" width="14.6" height="14.6"/>
		<rect x="48" y="308.6" shape-rendering="optimizeSpeed" width="14.6" height="14.6"/>
		<rect x="62.5" y="308.6" shape-rendering="optimizeSpeed" width="14.6" height="14.6"/>
		<rect x="77" y="308.6" shape-rendering="optimizeSpeed" width="14.6" height="14.6"/>
		<rect x="105.9" y="308.6" shape-rendering="optimizeSpeed" width="14.6" height="14.6"/>
		<rect x="134.8" y="308.6" shape-rendering="optimizeSpeed" width="14.6" height="14.6"/>
		<rect x="149.3" y="308.6" shape-rendering="optimizeSpeed" width="14.6" height="14.6"/>
		<rect x="163.8" y="308.6" shape-rendering="optimizeSpeed" width="14.6" height="14.6"/>
		<rect x="192.7" y="308.6" shape-rendering="optimizeSpeed" width="14.6" height="14.6"/>
		<rect x="221.7" y="308.6" shape-rendering="optimizeSpeed" width="14.6" height="14.6"/>
		<rect x="236.1" y="308.6" shape-rendering="optimizeSpeed" width="14.6" height="14.6"/>
		<rect x="250.7" y="308.6" shape-rendering="optimizeSpeed" width="14.6" height="14.6"/>
		<rect x="265.1" y="308.6" shape-rendering="optimizeSpeed" width="14.6" height="14.6"/>
		<rect x="279.6" y="308.6" shape-rendering="optimizeSpeed" width="14.6" height="14.6"/>
		<rect x="294.1" y="308.6" shape-rendering="optimizeSpeed" width="14.6" height="14.6"/>
		<rect x="308.5" y="308.6" shape-rendering="optimizeSpeed" width="14.6" height="14.6"/>
		<rect x="352" y="308.6" shape-rendering="optimizeSpeed" width="14.6" height="14.6"/>
		<rect x="19.1" y="323" shape-rendering="optimizeSpeed" width="14.6" height="14.6"/>
		<rect x="48" y="323" shape-rendering="optimizeSpeed" width="14.6" height="14.6"/>
		<rect x="62.5" y="323" shape-rendering="optimizeSpeed" width="14.6" height="14.6"/>
		<rect x="77" y="323" shape-rendering="optimizeSpeed" width="14.6" height="14.6"/>
		<rect x="105.9" y="323" shape-rendering="optimizeSpeed" width="14.6" height="14.6"/>
		<rect x="134.8" y="323" shape-rendering="optimizeSpeed" width="14.6" height="14.6"/>
		<rect x="178.3" y="323" shape-rendering="optimizeSpeed" width="14.6" height="14.6"/>
		<rect x="207.3" y="323" shape-rendering="optimizeSpeed" width="14.6" height="14.6"/>
		<rect x="221.7" y="323" shape-rendering="optimizeSpeed" width="14.6" height="14.6"/>
		<rect x="236.1" y="323" shape-rendering="optimizeSpeed" width="14.6" height="14.6"/>
		<rect x="250.7" y="323" shape-rendering="optimizeSpeed" width="14.6" height="14.6"/>
		<rect x="265.1" y="323" shape-rendering="optimizeSpeed" width="14.6" height="14.6"/>
		<rect x="279.6" y="323" shape-rendering="optimizeSpeed" width="14.6" height="14.6"/>
		<rect x="352" y="323" shape-rendering="optimizeSpeed" width="14.6" height="14.6"/>
		<rect x="366.4" y="323" shape-rendering="optimizeSpeed" width="14.6" height="14.6"/>
		<rect x="19.1" y="337.5" shape-rendering="optimizeSpeed" width="14.6" height="14.6"/>
		<rect x="48" y="337.5" shape-rendering="optimizeSpeed" width="14.6" height="14.6"/>
		<rect x="62.5" y="337.5" shape-rendering="optimizeSpeed" width="14.6" height="14.6"/>
		<rect x="77" y="337.5" shape-rendering="optimizeSpeed" width="14.6" height="14.6"/>
		<rect x="105.9" y="337.5" shape-rendering="optimizeSpeed" width="14.6" height="14.6"/>
		<rect x="149.3" y="337.5" shape-rendering="optimizeSpeed" width="14.6" height="14.6"/>
		<rect x="163.8" y="337.5" shape-rendering="optimizeSpeed" width="14.6" height="14.6"/>
		<rect x="178.3" y="337.5" shape-rendering="optimizeSpeed" width="14.6" height="14.6"/>
		<rect x="236.1" y="337.5" shape-rendering="optimizeSpeed" width="14.6" height="14.6"/>
		<rect x="250.7" y="337.5" shape-rendering="optimizeSpeed" width="14.6" height="14.6"/>
		<rect x="265.1" y="337.5" shape-rendering="optimizeSpeed" width="14.6" height="14.6"/>
		<rect x="308.5" y="337.5" shape-rendering="optimizeSpeed" width="14.6" height="14.6"/>
		<rect x="323" y="337.5" shape-rendering="optimizeSpeed" width="14.6" height="14.6"/>
		<rect x="337.5" y="337.5" shape-rendering="optimizeSpeed" width="14.6" height="14.6"/>
		<rect x="352" y="337.5" shape-rendering="optimizeSpeed" width="14.6" height="14.6"/>
		<rect x="366.4" y="337.5" shape-rendering="optimizeSpeed" width="14.6" height="14.6"/>
		<rect x="19.1" y="352" shape-rendering="optimizeSpeed" width="14.6" height="14.6"/>
		<rect x="105.9" y="352" shape-rendering="optimizeSpeed" width="14.6" height="14.6"/>
		<rect x="134.8" y="352" shape-rendering="optimizeSpeed" width="14.6" height="14.6"/>
		<rect x="149.3" y="352" shape-rendering="optimizeSpeed" width="14.6" height="14.6"/>
		<rect x="221.7" y="352" shape-rendering="optimizeSpeed" width="14.6" height="14.6"/>
		<rect x="236.1" y="352" shape-rendering="optimizeSpeed" width="14.6" height="14.6"/>
		<rect x="294.1" y="352" shape-rendering="optimizeSpeed" width="14.6" height="14.6"/>
		<rect x="308.5" y="352" shape-rendering="optimizeSpeed" width="14.6" height="14.6"/>
		<rect x="337.5" y="352" shape-rendering="optimizeSpeed" width="14.6" height="14.6"/>
		<rect x="352" y="352" shape-rendering="optimizeSpeed" width="14.6" height="14.6"/>
		<rect x="366.4" y="352" shape-rendering="optimizeSpeed" width="14.6" height="14.6"/>
		<rect x="19.1" y="366.5" shape-rendering="optimizeSpeed" width="14.6" height="14.6"/>
		<rect x="33.6" y="366.5" shape-rendering="optimizeSpeed" width="14.6" height="14.6"/>
		<rect x="48" y="366.5" shape-rendering="optimizeSpeed" width="14.6" height="14.6"/>
		<rect x="62.5" y="366.5" shape-rendering="optimizeSpeed" width="14.6" height="14.6"/>
		<rect x="77" y="366.5" shape-rendering="optimizeSpeed" width="14.6" height="14.6"/>
		<rect x="91.4" y="366.5" shape-rendering="optimizeSpeed" width="14.6" height="14.6"/>
		<rect x="105.9" y="366.5" shape-rendering="optimizeSpeed" width="14.6" height="14.6"/>
		<rect x="134.8" y="366.5" shape-rendering="optimizeSpeed" width="14.6" height="14.6"/>
		<rect x="192.7" y="366.5" shape-rendering="optimizeSpeed" width="14.6" height="14.6"/>
		<rect x="221.7" y="366.5" shape-rendering="optimizeSpeed" width="14.6" height="14.6"/>
		<rect x="250.7" y="366.5" shape-rendering="optimizeSpeed" width="14.6" height="14.6"/>
		<rect x="323" y="366.5" shape-rendering="optimizeSpeed" width="14.6" height="14.6"/>
		<rect x="366.4" y="366.5" shape-rendering="optimizeSpeed" width="14.6" height="14.6"/>
	</g>
</g>
</svg>
